<svg width="35" height="35" viewBox="0 0 35 35" fill="none" xmlns="http://www.w3.org/2000/svg">
<rect x="0.000976562" width="34.9979" height="34.9979" rx="8" fill="#161C21"/>
<path d="M11.3322 9.37023L17.4963 5.78223L23.6603 9.37023L21.3941 10.6957L17.4963 8.43324L13.5984 10.6957L11.3322 9.37023ZM23.6603 13.8952L21.3941 12.5697L17.4963 14.8322L13.5984 12.5697L11.3322 13.8952V16.5462L15.2301 18.8087V23.3337L17.4963 24.6592L19.7624 23.3337V18.8087L23.6603 16.5462V13.8952ZM23.6603 21.0712V18.4202L21.3941 19.7457V22.3967L23.6603 21.0712ZM25.2693 22.0082L21.3715 24.2707V26.9217L27.5355 23.3337V16.1577L25.2693 17.4832V22.0082ZM23.0031 11.6327L25.2693 12.9582V15.6092L27.5355 14.2837V11.6327L25.2693 10.3072L23.0031 11.6327ZM15.2301 25.2306V27.8816L17.4963 29.2071L19.7624 27.8816V25.2306L17.4963 26.5561L15.2301 25.2306ZM11.3322 21.0712L13.5984 22.3967V19.7457L11.3322 18.4202V21.0712ZM15.2301 11.6327L17.4963 12.9582L19.7624 11.6327L17.4963 10.3072L15.2301 11.6327ZM9.72322 12.9582L11.9894 11.6327L9.72322 10.3072L7.45703 11.6327V14.2837L9.72322 15.6092V12.9582ZM9.72322 17.4832L7.45703 16.1577V23.3337L13.6211 26.9217V24.2707L9.72322 22.0082V17.4832Z" fill="#F0B90B"/>
</svg>
