<svg width="96" height="97" viewBox="0 0 96 97" fill="none" xmlns="http://www.w3.org/2000/svg">
<path d="M48 96.5C74.5097 96.5 96 75.0097 96 48.5C96 21.9903 74.5097 0.5 48 0.5C21.4903 0.5 0 21.9903 0 48.5C0 75.0097 21.4903 96.5 48 96.5Z" fill="url(#paint0_linear_1_5430)"/>
<path d="M48 94.7893C73.5649 94.7893 94.2893 74.0649 94.2893 48.5C94.2893 22.9351 73.5649 2.21069 48 2.21069C22.4351 2.21069 1.71069 22.9351 1.71069 48.5C1.71069 74.0649 22.4351 94.7893 48 94.7893Z" fill="url(#paint1_linear_1_5430)"/>
<path d="M48 85.6324C68.5075 85.6324 85.1321 69.0077 85.1321 48.5003C85.1321 27.9928 68.5075 11.3682 48 11.3682C27.4926 11.3682 10.868 27.9928 10.868 48.5003C10.868 69.0077 27.4926 85.6324 48 85.6324Z" fill="url(#paint2_linear_1_5430)"/>
<path d="M48.0001 84.9276C68.1186 84.9276 84.4278 68.6184 84.4278 48.4999C84.4278 28.3815 68.1186 12.0723 48.0001 12.0723C27.8817 12.0723 11.5724 28.3815 11.5724 48.4999C11.5724 68.6184 27.8817 84.9276 48.0001 84.9276Z" fill="url(#paint3_linear_1_5430)"/>
<path d="M48.0002 80.9025C65.8956 80.9025 80.4027 66.3954 80.4027 48.4999C80.4027 30.6045 65.8956 16.0974 48.0002 16.0974C30.1047 16.0974 15.5977 30.6045 15.5977 48.4999C15.5977 66.3954 30.1047 80.9025 48.0002 80.9025Z" fill="url(#paint4_linear_1_5430)"/>
<g filter="url(#filter0_d_1_5430)">
<path d="M68 71.4862H57.1057L49.5044 57.3626L46.8882 52.5028L43.5692 56.8932L43.387 57.1417V71.5H34.0936V52.5995H27V46.3867H34.0936V27.5H43.387V46.9528H43.5041C44.1159 45.8207 45.079 44.2054 46.3936 42.1206L55.7521 27.5H67.3232L53.6044 46.2349L59.2533 56.1476L68 71.4862Z" fill="#FDF193"/>
</g>
<defs>
<filter id="filter0_d_1_5430" x="27" y="26.5" width="41" height="45" filterUnits="userSpaceOnUse" color-interpolation-filters="sRGB">
<feFlood flood-opacity="0" result="BackgroundImageFix"/>
<feColorMatrix in="SourceAlpha" type="matrix" values="0 0 0 0 0 0 0 0 0 0 0 0 0 0 0 0 0 0 127 0" result="hardAlpha"/>
<feOffset dy="-1"/>
<feComposite in2="hardAlpha" operator="out"/>
<feColorMatrix type="matrix" values="0 0 0 0 0.52549 0 0 0 0 0.333333 0 0 0 0 0.133333 0 0 0 0.5 0"/>
<feBlend mode="normal" in2="BackgroundImageFix" result="effect1_dropShadow_1_5430"/>
<feBlend mode="normal" in="SourceGraphic" in2="effect1_dropShadow_1_5430" result="shape"/>
</filter>
<linearGradient id="paint0_linear_1_5430" x1="47.9939" y1="92.5459" x2="47.9939" y2="-3.50423" gradientUnits="userSpaceOnUse">
<stop stop-color="#C99B14"/>
<stop offset="0.2137" stop-color="#B78817"/>
<stop offset="0.2223" stop-color="#B98B1B"/>
<stop offset="0.3396" stop-color="#D6B74E"/>
<stop offset="0.4418" stop-color="#EBD774"/>
<stop offset="0.524" stop-color="#F8EA8B"/>
<stop offset="0.5758" stop-color="#FDF193"/>
<stop offset="0.5784" stop-color="#F9EB8A"/>
<stop offset="0.589" stop-color="#ECD66B"/>
<stop offset="0.6011" stop-color="#E1C34F"/>
<stop offset="0.6146" stop-color="#D8B439"/>
<stop offset="0.6305" stop-color="#D1A928"/>
<stop offset="0.6501" stop-color="#CDA11D"/>
<stop offset="0.6776" stop-color="#CA9C16"/>
<stop offset="0.754" stop-color="#C99B14"/>
<stop offset="0.7571" stop-color="#C79814"/>
<stop offset="0.7907" stop-color="#AF7E15"/>
<stop offset="0.8275" stop-color="#9E6A16"/>
<stop offset="0.8692" stop-color="#915B17"/>
<stop offset="0.9192" stop-color="#895317"/>
<stop offset="1" stop-color="#875017"/>
</linearGradient>
<linearGradient id="paint1_linear_1_5430" x1="47.9939" y1="90.935" x2="47.9939" y2="-1.60083" gradientUnits="userSpaceOnUse">
<stop stop-color="#875017"/>
<stop offset="0.0808151" stop-color="#895317"/>
<stop offset="0.1308" stop-color="#915B17"/>
<stop offset="0.1725" stop-color="#9E6A16"/>
<stop offset="0.2093" stop-color="#AF7E15"/>
<stop offset="0.2429" stop-color="#C79814"/>
<stop offset="0.246" stop-color="#C99B14"/>
<stop offset="0.3224" stop-color="#CA9C16"/>
<stop offset="0.3499" stop-color="#CDA11D"/>
<stop offset="0.3695" stop-color="#D1A928"/>
<stop offset="0.3854" stop-color="#D8B439"/>
<stop offset="0.3989" stop-color="#E1C34F"/>
<stop offset="0.411" stop-color="#ECD66B"/>
<stop offset="0.4216" stop-color="#F9EB8A"/>
<stop offset="0.4242" stop-color="#FDF193"/>
<stop offset="0.476" stop-color="#F8EA8B"/>
<stop offset="0.5582" stop-color="#EBD774"/>
<stop offset="0.6604" stop-color="#D6B74E"/>
<stop offset="0.7777" stop-color="#B98B1B"/>
<stop offset="0.7863" stop-color="#B78817"/>
<stop offset="1" stop-color="#C99B14"/>
</linearGradient>
<linearGradient id="paint2_linear_1_5430" x1="47.9939" y1="83.8852" x2="47.9939" y2="13.4119" gradientUnits="userSpaceOnUse">
<stop stop-color="#C99B14"/>
<stop offset="0.037458" stop-color="#CFA523"/>
<stop offset="0.11" stop-color="#E0C14C"/>
<stop offset="0.2095" stop-color="#FAEC8C"/>
<stop offset="0.2195" stop-color="#FDF193"/>
<stop offset="0.2511" stop-color="#FAEC8B"/>
<stop offset="0.2989" stop-color="#F1DE77"/>
<stop offset="0.357" stop-color="#E3C754"/>
<stop offset="0.4227" stop-color="#D0A725"/>
<stop offset="0.4445" stop-color="#C99B14"/>
<stop offset="0.61" stop-color="#EDD66C"/>
<stop offset="0.6933" stop-color="#FDF193"/>
<stop offset="0.9055" stop-color="#B78817"/>
<stop offset="1" stop-color="#C99B14"/>
</linearGradient>
<linearGradient id="paint3_linear_1_5430" x1="47.994" y1="15.1342" x2="47.994" y2="87.9792" gradientUnits="userSpaceOnUse">
<stop stop-color="#875017"/>
<stop offset="0.1072" stop-color="#9D6A17"/>
<stop offset="0.2475" stop-color="#B78817"/>
<stop offset="0.6677" stop-color="#FDF193"/>
<stop offset="0.7431" stop-color="#FCEF90"/>
<stop offset="0.8008" stop-color="#F8E886"/>
<stop offset="0.8526" stop-color="#F1DD76"/>
<stop offset="0.9009" stop-color="#E8CE5F"/>
<stop offset="0.9469" stop-color="#DBB941"/>
<stop offset="0.9905" stop-color="#CDA11D"/>
<stop offset="1" stop-color="#C99B14"/>
</linearGradient>
<linearGradient id="paint4_linear_1_5430" x1="47.994" y1="78.2406" x2="47.994" y2="13.4012" gradientUnits="userSpaceOnUse">
<stop stop-color="#875017"/>
<stop offset="0.1072" stop-color="#9D6A17"/>
<stop offset="0.2475" stop-color="#B78817"/>
<stop offset="0.6677" stop-color="#F6EA8C"/>
<stop offset="0.7431" stop-color="#F3E687"/>
<stop offset="0.8008" stop-color="#F8E886"/>
<stop offset="0.8526" stop-color="#E2CE67"/>
<stop offset="0.9009" stop-color="#E1C758"/>
<stop offset="0.9469" stop-color="#DBB941"/>
<stop offset="0.9905" stop-color="#CDA11D"/>
<stop offset="1" stop-color="#C99B14"/>
</linearGradient>
</defs>
</svg>
