<svg width="96" height="96" viewBox="0 0 96 96" fill="none" xmlns="http://www.w3.org/2000/svg">
<path d="M48 96C74.5097 96 96 74.5097 96 48C96 21.4903 74.5097 0 48 0C21.4903 0 0 21.4903 0 48C0 74.5097 21.4903 96 48 96Z" fill="url(#paint0_linear_1_4732)"/>
<path d="M48 94.2893C73.5648 94.2893 94.2893 73.5649 94.2893 48C94.2893 22.4351 73.5648 1.71069 48 1.71069C22.4351 1.71069 1.71063 22.4351 1.71063 48C1.71063 73.5649 22.4351 94.2893 48 94.2893Z" fill="url(#paint1_linear_1_4732)"/>
<path d="M48 85.1324C68.5075 85.1324 85.1321 68.5077 85.1321 48.0003C85.1321 27.4928 68.5075 10.8682 48 10.8682C27.4925 10.8682 10.8679 27.4928 10.8679 48.0003C10.8679 68.5077 27.4925 85.1324 48 85.1324Z" fill="url(#paint2_linear_1_4732)"/>
<path d="M48 84.4276C68.1185 84.4276 84.4277 68.1184 84.4277 47.9999C84.4277 27.8815 68.1185 11.5723 48 11.5723C27.8815 11.5723 11.5723 27.8815 11.5723 47.9999C11.5723 68.1184 27.8815 84.4276 48 84.4276Z" fill="url(#paint3_linear_1_4732)"/>
<path d="M48 80.4025C65.8955 80.4025 80.4026 65.8954 80.4026 47.9999C80.4026 30.1045 65.8955 15.5974 48 15.5974C30.1046 15.5974 15.5975 30.1045 15.5975 47.9999C15.5975 65.8954 30.1046 80.4025 48 80.4025Z" fill="url(#paint4_linear_1_4732)"/>
<g filter="url(#filter0_d_1_4732)">
<path d="M32.9346 45.2C32.4758 46.2801 32.1413 47.3984 31.9884 48.5646C31.8833 49.3292 31.8355 50.1035 31.912 50.8873C31.9502 51.2601 31.9884 51.6328 32.0744 51.9961C32.0936 52.063 32.0936 52.1394 32.1031 52.2255C32.0649 52.2063 32.0362 52.2063 32.0267 52.1968C31.3099 51.1262 30.7651 49.9792 30.4593 48.7175C30.163 47.5131 30.0866 46.2896 30.2299 45.047C30.3637 43.8713 30.7078 42.7625 31.2716 41.7302C31.5488 41.2236 31.8546 40.7457 32.2369 40.306C32.2656 40.2773 32.2847 40.2295 32.3229 40.1722C32.1031 40.1818 31.9406 40.2773 31.7686 40.3538C31.6539 40.4016 31.5488 40.4494 31.4437 40.5067C31.2143 40.631 30.9754 40.7553 30.7556 40.8986C30.5931 41.0038 30.4402 41.1185 30.2968 41.2332C30.1439 41.3479 30.0006 41.4721 29.8572 41.606C29.7138 41.7398 29.5896 41.8736 29.4654 42.0265C29.3411 42.1699 29.2264 42.3228 29.1117 42.4853C28.9971 42.6383 28.9015 42.8008 28.7964 42.9633C28.7008 43.1258 28.6243 43.2978 28.5096 43.4985C28.481 43.4221 28.4619 43.3934 28.4619 43.3647C28.4332 43.0971 28.5192 38.9296 29.1786 37.1995C29.6852 35.8613 30.4402 34.6761 31.4437 33.6437C31.998 33.0702 32.6192 32.5827 33.2978 32.1622C33.4602 32.057 28.9588 33.7298 28.8633 33.8253C28.8824 33.7298 30.5357 30.824 31.2716 29.9542C32.0267 29.0557 32.8581 28.2432 33.7661 27.4976C35.4863 26.0925 37.3786 25.0124 39.4812 24.2668C40.695 23.8367 41.9374 23.5117 43.2085 23.3014C44.4509 23.0911 45.7124 23.0242 46.974 23.0242C47.2511 23.0242 47.5187 23.0242 47.7863 23.0242C47.8054 23.0816 47.7863 23.1103 47.7481 23.1198C46.974 23.397 46.3814 23.9036 45.8462 24.5058C45.5978 24.783 45.3684 25.0793 45.1581 25.3852C44.9192 25.7389 44.3649 26.6087 44.3171 26.58C43.3996 25.9683 42.3866 25.7389 41.2971 25.7866C40.1502 25.8344 39.0416 26.0734 37.9616 26.4749C37.2353 26.7425 36.5281 27.0675 35.8591 27.4594C35.8208 27.4785 35.7826 27.5072 35.7444 27.5359C35.7348 27.5454 35.7253 27.5645 35.6966 27.6028C36.0406 27.5167 36.356 27.4307 36.6905 27.3734C37.025 27.3064 37.3595 27.2682 37.694 27.2395C38.0285 27.2109 38.3726 27.2013 38.7071 27.2013C39.032 27.2013 39.3665 27.2204 39.6915 27.2587C40.026 27.2969 40.3605 27.3638 40.6854 27.4307C41.0103 27.4976 41.3353 27.5836 41.6985 27.7366C41.5838 27.7748 41.5455 27.7939 41.5073 27.8035C40.8001 27.9469 40.1502 28.2336 39.5099 28.5491C38.6975 28.9505 37.9425 29.4476 37.2353 30.0115C36.5185 30.585 35.8782 31.235 35.2952 31.9328C34.588 32.7644 33.9954 33.6724 33.4602 34.6187C33.4029 34.7238 33.3455 34.829 33.2978 34.9341C33.0397 35.4885 34.3968 34.3797 35.4959 33.4812C36.5567 32.6114 37.7323 31.9136 39.0033 31.3784C40.198 30.8813 41.4404 30.5468 42.7211 30.3938C43.4952 30.2983 44.2693 30.2791 45.0434 30.3269C45.0721 30.3269 45.0912 30.3365 45.1199 30.3461C45.1295 30.413 45.0817 30.4225 45.0434 30.4416C44.1737 30.8049 43.3709 31.2828 42.5968 31.8276C41.6029 32.5254 40.6854 33.3283 39.8826 34.2364C39.357 34.829 38.86 35.4503 38.4299 36.1194C37.5889 37.4193 36.9772 38.8149 36.5854 40.306C36.4134 40.9751 36.2605 41.6538 36.1936 42.342C36.0789 43.3743 36.0406 44.3971 36.1362 45.4294C36.1936 46.108 36.3082 46.7676 36.4707 47.4271C36.5376 47.7043 36.6141 47.9719 36.6905 48.2396C36.767 48.23 36.7383 47.1595 36.7957 46.7102C36.939 45.697 37.1875 44.722 37.608 43.7949C37.8565 43.2405 38.1814 42.7434 38.535 42.2464C38.5542 42.2273 39.3952 41.281 39.3952 41.3097C39.3283 41.7015 39.4908 48.1918 44.6516 53.7357C44.6516 52.5887 44.0113 48.3638 44.0782 47.3315C44.1546 46.0985 44.3553 45.5823 44.8427 44.4448C45.2919 43.3838 45.894 42.4184 46.6968 41.5964C47.2702 41.0133 46.6681 37.8208 47.4232 37.4862C47.8054 37.3142 51.1504 41.692 54.2087 38.5377C54.7343 38.3561 55.7474 38.3752 56.2157 38.0598C56.512 37.8686 56.2157 36.4731 55.6996 35.1157C55.174 33.7106 53.9698 32.7166 52.5362 32.296C52.4693 32.2769 52.4311 32.2482 52.4502 32.2004C52.4789 32.0953 52.5267 32.0283 52.6222 31.971C53.253 31.5982 53.8742 31.2159 54.4954 30.8431C54.6101 30.7762 54.7152 30.6902 54.8299 30.6232C54.9159 30.5755 54.9828 30.4799 54.9924 30.3843C55.0497 29.9637 55.9577 24.4485 56.0341 23.9801C56.0819 23.7029 51.0644 28.9983 50.9497 29.1704C50.9784 29.2086 51.0166 29.1895 51.0453 29.1704C51.5901 28.8836 52.1348 28.5873 52.6891 28.3005C53.0905 28.0902 53.511 27.8991 53.922 27.6983C53.9507 27.6888 53.9889 27.6983 54.0367 27.6983C54.008 27.7557 53.9984 27.7939 53.9793 27.8322C53.5588 28.5491 53.1383 29.2659 52.7082 29.9733C52.3833 30.5085 52.0488 31.0247 51.6665 31.5122C51.5136 31.7034 51.3607 31.8945 51.1982 32.0857C51.0166 32.3055 50.7968 32.4872 50.5579 32.6305C49.9271 33.0129 49.3059 32.9842 48.7038 32.5923C48.2068 32.2673 47.815 31.8276 47.5283 31.3019C47.318 30.9196 47.232 30.4799 47.2989 30.0497C47.3849 29.4476 47.6525 28.9314 47.9488 28.4152C48.3215 27.7844 48.7707 27.2109 49.2486 26.6565C50.08 25.6911 51.0071 24.8308 51.9628 23.9992C52.8229 23.2536 53.7309 22.5654 54.6483 21.8868C55.5754 21.2081 56.5215 20.5581 57.5059 19.956C57.5537 19.9273 57.4772 21.3419 57.3912 22.011C57.267 22.986 57.1427 23.961 57.028 24.9455C56.9516 25.6146 56.8942 26.2932 56.8369 26.9623C56.8082 27.2778 56.7891 27.6028 56.7605 27.9182C56.6649 28.8932 56.9325 29.7821 57.4294 30.6041C57.6875 31.0343 57.9933 31.4357 58.3183 31.8181C58.7579 32.3438 59.2166 32.8504 59.6658 33.3665C60.0959 33.854 60.5068 34.3511 60.8987 34.8768C61.3192 35.4503 61.711 36.0429 61.95 36.7216C62.1124 37.1708 62.1984 37.6392 62.1984 38.1171C62.1984 38.3943 62.1889 38.6619 62.1889 38.9391C62.1793 39.6082 62.38 40.2104 62.7432 40.7744C63.0204 41.195 63.3549 41.5582 63.6989 41.9118C64.5686 42.8199 65.4765 43.6897 66.4322 44.5117C67.2733 45.2382 68.1238 45.9551 68.9744 46.672C69.1273 46.7962 69.2898 46.9109 69.4523 47.0352C69.5096 47.0734 69.5574 47.1308 69.6052 47.1786C69.5574 47.2646 69.481 47.2837 69.4141 47.2933C69.0413 47.3889 68.6686 47.4844 68.2959 47.5609C67.9614 47.6278 67.6173 47.6756 67.2733 47.733C67.1777 47.7521 67.0821 47.7712 66.9674 47.7999C66.9197 48.144 66.9579 48.4785 67.0248 48.8131C67.0917 49.1381 67.235 49.4344 67.4071 49.7116C67.5791 49.9983 67.818 50.2373 68.057 50.4954C67.8754 50.6579 67.6938 50.7917 67.4931 50.8968C66.9674 51.1931 66.4036 51.4034 65.8015 51.5086C65.4383 51.5755 65.0847 51.6233 64.712 51.6233C64.5591 51.6233 64.4348 51.6711 64.3297 51.7858C63.9187 52.2063 63.3931 52.5122 62.8005 52.56C61.8448 52.646 60.9274 52.5313 60.0577 52.1108C59.6276 51.9005 59.1975 51.6902 58.777 51.4799C57.4199 50.7821 56.0054 50.1895 54.5623 49.702C53.9507 49.5013 53.339 49.3197 52.6987 49.2337C51.7908 49.1094 50.8924 49.1572 50.0609 49.5969C48.9427 50.1895 48.2833 51.1167 48.1686 52.388C48.1399 52.6747 48.1877 52.9615 48.2546 53.2482C48.3502 53.6592 48.5127 54.0416 48.7229 54.4048C49.2103 55.2364 49.8316 55.9533 50.5579 56.5746C52.2495 58.0179 54.1705 59.0598 56.2826 59.7193C56.4833 59.7862 56.684 59.8436 56.8847 59.8818C56.9325 59.8914 56.9707 59.9105 57.0663 59.9583C56.9803 59.987 56.9325 60.0156 56.8847 60.0252C56.1297 60.1208 55.3842 60.2546 54.6292 60.312C53.5015 60.4075 52.3642 60.3884 51.2364 60.2642C49.7647 60.1017 48.3406 59.7671 46.974 59.2223C45.9896 58.8304 45.0434 58.3525 44.1546 57.7789C43.3518 57.2628 38.7166 55.8195 43.7723 59.7098C43.801 59.7289 43.8201 59.7576 43.8679 59.8149C43.7819 59.8149 43.7437 59.8149 43.7054 59.8054C42.3101 59.5855 41.0008 59.1363 39.7584 58.4863C38.3821 57.7598 37.1875 56.8135 36.184 55.6378C35.0849 54.357 34.3395 52.885 33.9476 51.2409C33.7374 50.3616 33.6514 49.4822 33.6514 48.5837C33.6418 47.8286 33.508 43.8713 32.9346 45.2ZM53.5397 45.9551C53.5206 46.0411 53.5493 46.0985 53.5779 46.1654C53.7786 46.6051 53.9698 47.0448 54.18 47.4844C54.2756 47.6852 54.3807 47.8668 54.4954 48.058C54.7152 48.4212 55.0115 48.7175 55.3842 48.9278C55.5467 49.0234 55.7187 49.119 55.8908 49.205C56.7605 49.6256 57.6301 50.0366 58.5094 50.4476C59.0924 50.7152 59.6754 50.9637 60.2775 51.1645C60.9369 51.3939 61.6059 51.4608 62.3036 51.3843C62.3705 51.3748 62.4278 51.3748 62.4947 51.3652C62.5616 51.3556 62.6285 51.3652 62.7336 51.327C62.5998 51.2792 62.5043 51.2409 62.4183 51.2123C62.208 51.1358 61.9882 51.0689 61.7779 50.9733C61.1185 50.6961 60.5164 50.3233 59.9334 49.9123C59.2166 49.4057 58.5667 48.8226 57.9169 48.2396C57.5059 47.8668 57.0854 47.5036 56.6362 47.1786C55.7856 46.5668 54.849 46.1558 53.8169 45.9742C53.7213 45.9551 53.6353 45.9264 53.5397 45.9551ZM59.9047 39.8281C59.6371 39.3502 59.274 38.9678 58.8248 38.6524C58.2609 38.2605 57.6397 37.9737 56.9994 37.7348C56.6744 37.6201 57.7353 40.1817 58.9777 40.4685C59.36 40.5641 60.0672 40.1244 59.9047 39.8281Z" fill="#FDF193"/>
<path d="M70.7805 24.7544C67.5311 21.5045 63.7274 19.0288 59.57 17.4039C59.3693 17.3274 59.1782 17.251 58.9775 17.184C55.4031 15.865 51.5803 15.1768 47.6523 15.1768C38.9171 15.1768 30.7076 18.5796 24.5241 24.7544C18.3502 30.9292 14.9479 39.1399 14.9479 47.8764C14.9479 56.6129 18.3502 64.8236 24.5241 71.008C30.698 77.1828 38.9171 80.5856 47.6523 80.5856C56.3875 80.5856 64.5971 77.1828 70.7805 71.008C76.9544 64.8332 80.3567 56.6129 80.3567 47.8764C80.3567 39.1399 76.9544 30.9292 70.7805 24.7544ZM21.2269 61.2583L27.9169 51.9866L27.6302 56.2879L24.7631 58.8209L21.2269 61.2583ZM25.4321 63.6479L26.1011 58.0562L28.605 67.8059L25.4321 63.6479ZM29.7328 59.1076L27.3435 58.8209L32.2176 57.3871L29.7328 59.1076ZM43.2083 75.835L42.0614 71.1513L39.481 69.5264H42.0614L41.2969 63.8869L44.0684 70.769L43.2083 75.835ZM37.1873 72.5851V68.3794L40.5323 62.5487V65.6074L37.1873 72.5851ZM51.6472 65.6743L59.5796 63.9156L56.7794 66.6111L51.6472 65.6743ZM56.0244 69.8036L59.7325 64.5847L59.2642 68.9051L53.7593 75.1755L56.0244 69.8036ZM54.6768 74.927L57.9262 72.0594L62.2938 73.2829L54.6768 74.927ZM67.9612 60.398L67.3495 56.2114L70.5798 59.4995L72.1663 65.2729L67.9612 60.398ZM77.0404 54.3284L71.4973 48.6889C71.4878 48.7845 70.0829 50.6101 70.0829 50.6101L69.0029 51.5851C68.7544 51.8145 68.4868 52.0057 68.181 52.1777C67.512 52.5601 66.7952 52.8181 66.0402 52.952C65.7535 52.9998 65.419 53.0571 65.0654 53.0762C64.4442 53.6115 63.6892 53.946 62.915 54.0225C62.6761 54.0416 62.4372 54.0607 62.2078 54.0607C61.2139 54.0607 60.2773 53.8505 59.4267 53.449C59.0157 53.2483 58.5857 53.038 58.1078 52.799C56.7889 52.1299 55.4414 51.5564 54.0843 51.1072C53.6064 50.9447 53.0425 50.7726 52.4787 50.6962C52.2493 50.6675 52.039 50.6484 51.8479 50.6484C51.3987 50.6484 51.0355 50.7344 50.701 50.9064C49.9843 51.2792 49.6402 51.7954 49.5733 52.5601C49.5638 52.6365 49.5829 52.7703 49.6307 52.952C49.6976 53.2196 49.8027 53.4872 49.946 53.7262C50.3283 54.3857 50.8444 54.9879 51.4752 55.5328C52.9756 56.8232 60.9558 60.1208 60.9558 60.1208C60.9558 60.1208 58.2129 61.8796 53.1477 61.8318C52.4596 61.8223 51.7619 61.7936 51.0833 61.7171C49.5446 61.5451 48.0633 61.1914 46.6775 60.6752L47.4325 61.4495C47.4325 61.4495 42.071 61.5928 39.0892 59.7767C37.6078 58.8782 36.2125 57.8937 35.0943 56.5938C34.4731 55.8769 33.957 55.1026 33.5365 54.271L31.6442 53.5733C31.2141 53.4394 30.9656 53.1814 30.8318 52.9711C29.9812 51.6807 29.0638 49.0139 29.0542 49.0043C28.7293 48.9947 21.6092 52.5983 21.6092 52.5983L17.0314 51.6807C16.8784 50.4285 16.7924 49.1572 16.7924 47.8668C16.7924 30.8527 30.526 17.0693 47.5376 17.012C50.6724 17.0024 53.6924 17.4612 56.55 18.3215C56.7698 18.3884 56.9896 18.4553 57.2094 18.5318C57.8402 18.7421 58.4614 18.9619 59.0826 19.2104C59.2451 19.2774 59.398 19.3443 59.5605 19.4112C70.6754 24.0853 78.4931 35.0776 78.4931 47.8764C78.4931 49.9601 78.2829 51.9866 77.891 53.9556L77.0404 54.3284Z" fill="#FDF193"/>
</g>
<defs>
<filter id="filter0_d_1_4732" x="14.9479" y="14.1768" width="65.4088" height="66.4089" filterUnits="userSpaceOnUse" color-interpolation-filters="sRGB">
<feFlood flood-opacity="0" result="BackgroundImageFix"/>
<feColorMatrix in="SourceAlpha" type="matrix" values="0 0 0 0 0 0 0 0 0 0 0 0 0 0 0 0 0 0 127 0" result="hardAlpha"/>
<feOffset dy="-1"/>
<feComposite in2="hardAlpha" operator="out"/>
<feColorMatrix type="matrix" values="0 0 0 0 0.52549 0 0 0 0 0.333333 0 0 0 0 0.133333 0 0 0 0.5 0"/>
<feBlend mode="normal" in2="BackgroundImageFix" result="effect1_dropShadow_1_4732"/>
<feBlend mode="normal" in="SourceGraphic" in2="effect1_dropShadow_1_4732" result="shape"/>
</filter>
<linearGradient id="paint0_linear_1_4732" x1="47.9939" y1="92.0459" x2="47.9939" y2="-4.00423" gradientUnits="userSpaceOnUse">
<stop stop-color="#C99B14"/>
<stop offset="0.2137" stop-color="#B78817"/>
<stop offset="0.2223" stop-color="#B98B1B"/>
<stop offset="0.3396" stop-color="#D6B74E"/>
<stop offset="0.4418" stop-color="#EBD774"/>
<stop offset="0.524" stop-color="#F8EA8B"/>
<stop offset="0.5758" stop-color="#FDF193"/>
<stop offset="0.5784" stop-color="#F9EB8A"/>
<stop offset="0.589" stop-color="#ECD66B"/>
<stop offset="0.6011" stop-color="#E1C34F"/>
<stop offset="0.6146" stop-color="#D8B439"/>
<stop offset="0.6305" stop-color="#D1A928"/>
<stop offset="0.6501" stop-color="#CDA11D"/>
<stop offset="0.6776" stop-color="#CA9C16"/>
<stop offset="0.754" stop-color="#C99B14"/>
<stop offset="0.7571" stop-color="#C79814"/>
<stop offset="0.7907" stop-color="#AF7E15"/>
<stop offset="0.8275" stop-color="#9E6A16"/>
<stop offset="0.8692" stop-color="#915B17"/>
<stop offset="0.9192" stop-color="#895317"/>
<stop offset="1" stop-color="#875017"/>
</linearGradient>
<linearGradient id="paint1_linear_1_4732" x1="47.9938" y1="90.435" x2="47.9938" y2="-2.10083" gradientUnits="userSpaceOnUse">
<stop stop-color="#875017"/>
<stop offset="0.0808151" stop-color="#895317"/>
<stop offset="0.1308" stop-color="#915B17"/>
<stop offset="0.1725" stop-color="#9E6A16"/>
<stop offset="0.2093" stop-color="#AF7E15"/>
<stop offset="0.2429" stop-color="#C79814"/>
<stop offset="0.246" stop-color="#C99B14"/>
<stop offset="0.3224" stop-color="#CA9C16"/>
<stop offset="0.3499" stop-color="#CDA11D"/>
<stop offset="0.3695" stop-color="#D1A928"/>
<stop offset="0.3854" stop-color="#D8B439"/>
<stop offset="0.3989" stop-color="#E1C34F"/>
<stop offset="0.411" stop-color="#ECD66B"/>
<stop offset="0.4216" stop-color="#F9EB8A"/>
<stop offset="0.4242" stop-color="#FDF193"/>
<stop offset="0.476" stop-color="#F8EA8B"/>
<stop offset="0.5582" stop-color="#EBD774"/>
<stop offset="0.6604" stop-color="#D6B74E"/>
<stop offset="0.7777" stop-color="#B98B1B"/>
<stop offset="0.7863" stop-color="#B78817"/>
<stop offset="1" stop-color="#C99B14"/>
</linearGradient>
<linearGradient id="paint2_linear_1_4732" x1="47.9939" y1="83.3852" x2="47.9939" y2="12.9119" gradientUnits="userSpaceOnUse">
<stop stop-color="#C99B14"/>
<stop offset="0.037458" stop-color="#CFA523"/>
<stop offset="0.11" stop-color="#E0C14C"/>
<stop offset="0.2095" stop-color="#FAEC8C"/>
<stop offset="0.2195" stop-color="#FDF193"/>
<stop offset="0.2511" stop-color="#FAEC8B"/>
<stop offset="0.2989" stop-color="#F1DE77"/>
<stop offset="0.357" stop-color="#E3C754"/>
<stop offset="0.4227" stop-color="#D0A725"/>
<stop offset="0.4445" stop-color="#C99B14"/>
<stop offset="0.61" stop-color="#EDD66C"/>
<stop offset="0.6933" stop-color="#FDF193"/>
<stop offset="0.9055" stop-color="#B78817"/>
<stop offset="1" stop-color="#C99B14"/>
</linearGradient>
<linearGradient id="paint3_linear_1_4732" x1="47.9939" y1="14.6342" x2="47.9939" y2="87.4792" gradientUnits="userSpaceOnUse">
<stop stop-color="#875017"/>
<stop offset="0.1072" stop-color="#9D6A17"/>
<stop offset="0.2475" stop-color="#B78817"/>
<stop offset="0.6677" stop-color="#FDF193"/>
<stop offset="0.7431" stop-color="#FCEF90"/>
<stop offset="0.8008" stop-color="#F8E886"/>
<stop offset="0.8526" stop-color="#F1DD76"/>
<stop offset="0.9009" stop-color="#E8CE5F"/>
<stop offset="0.9469" stop-color="#DBB941"/>
<stop offset="0.9905" stop-color="#CDA11D"/>
<stop offset="1" stop-color="#C99B14"/>
</linearGradient>
<linearGradient id="paint4_linear_1_4732" x1="47.9939" y1="77.7406" x2="47.9939" y2="12.9012" gradientUnits="userSpaceOnUse">
<stop stop-color="#875017"/>
<stop offset="0.1072" stop-color="#9D6A17"/>
<stop offset="0.2475" stop-color="#B78817"/>
<stop offset="0.6677" stop-color="#FDF193"/>
<stop offset="0.7431" stop-color="#FCEF90"/>
<stop offset="0.8008" stop-color="#F8E886"/>
<stop offset="0.8526" stop-color="#F1DD76"/>
<stop offset="0.9009" stop-color="#E8CE5F"/>
<stop offset="0.9469" stop-color="#DBB941"/>
<stop offset="0.9905" stop-color="#CDA11D"/>
<stop offset="1" stop-color="#C99B14"/>
</linearGradient>
</defs>
</svg>
