<svg width="96" height="97" viewBox="0 0 96 97" fill="none" xmlns="http://www.w3.org/2000/svg">
<path d="M48 96.5C74.5097 96.5 96 75.0097 96 48.5C96 21.9903 74.5097 0.5 48 0.5C21.4903 0.5 0 21.9903 0 48.5C0 75.0097 21.4903 96.5 48 96.5Z" fill="url(#paint0_linear_1_5419)"/>
<path d="M48 94.7893C73.5648 94.7893 94.2893 74.0649 94.2893 48.5C94.2893 22.9351 73.5648 2.21069 48 2.21069C22.4351 2.21069 1.71063 22.9351 1.71063 48.5C1.71063 74.0649 22.4351 94.7893 48 94.7893Z" fill="url(#paint1_linear_1_5419)"/>
<path d="M48 85.6324C68.5075 85.6324 85.1321 69.0077 85.1321 48.5003C85.1321 27.9928 68.5075 11.3682 48 11.3682C27.4925 11.3682 10.8679 27.9928 10.8679 48.5003C10.8679 69.0077 27.4925 85.6324 48 85.6324Z" fill="url(#paint2_linear_1_5419)"/>
<path d="M48 84.9275C68.1185 84.9275 84.4277 68.6183 84.4277 48.4998C84.4277 28.3814 68.1185 12.0721 48 12.0721C27.8815 12.0721 11.5723 28.3814 11.5723 48.4998C11.5723 68.6183 27.8815 84.9275 48 84.9275Z" fill="url(#paint3_linear_1_5419)"/>
<path d="M48 80.9025C65.8955 80.9025 80.4026 66.3954 80.4026 48.4999C80.4026 30.6045 65.8955 16.0974 48 16.0974C30.1046 16.0974 15.5975 30.6045 15.5975 48.4999C15.5975 66.3954 30.1046 80.9025 48 80.9025Z" fill="url(#paint4_linear_1_5419)"/>
<g filter="url(#filter0_d_1_5419)">
<path d="M32.9346 45.7C32.4758 46.7801 32.1413 47.8984 31.9884 49.0646C31.8833 49.8292 31.8355 50.6035 31.9119 51.3873C31.9502 51.7601 31.9884 52.1328 32.0744 52.4961C32.0935 52.563 32.0935 52.6394 32.1031 52.7255C32.0649 52.7063 32.0362 52.7063 32.0266 52.6968C31.3098 51.6262 30.7651 50.4792 30.4593 49.2175C30.163 48.0131 30.0865 46.7896 30.2299 45.547C30.3637 44.3713 30.7077 43.2625 31.2716 42.2302C31.5488 41.7236 31.8546 41.2457 32.2369 40.806C32.2656 40.7773 32.2847 40.7295 32.3229 40.6722C32.1031 40.6818 31.9406 40.7773 31.7686 40.8538C31.6539 40.9016 31.5488 40.9494 31.4436 41.0067C31.2143 41.131 30.9753 41.2553 30.7555 41.3986C30.5931 41.5038 30.4402 41.6185 30.2968 41.7332C30.1439 41.8479 30.0005 41.9721 29.8572 42.106C29.7138 42.2398 29.5896 42.3736 29.4653 42.5265C29.3411 42.6699 29.2264 42.8228 29.1117 42.9853C28.997 43.1383 28.9015 43.3008 28.7963 43.4633C28.7008 43.6258 28.6243 43.7978 28.5096 43.9985C28.4809 43.9221 28.4618 43.8934 28.4618 43.8647C28.4332 43.5971 28.5192 39.4296 29.1786 37.6995C29.6851 36.3613 30.4402 35.1761 31.4436 34.1437C31.998 33.5702 32.6192 33.0827 33.2977 32.6622C33.4602 32.557 28.9588 34.2298 28.8632 34.3253C28.8823 34.2298 30.5357 31.324 31.2716 30.4542C32.0266 29.5557 32.8581 28.7432 33.766 27.9976C35.4863 26.5925 37.3786 25.5124 39.4812 24.7668C40.6949 24.3367 41.9373 24.0117 43.2084 23.8014C44.4509 23.5911 45.7124 23.5242 46.9739 23.5242C47.2511 23.5242 47.5187 23.5242 47.7863 23.5242C47.8054 23.5816 47.7863 23.6103 47.7481 23.6198C46.9739 23.897 46.3814 24.4036 45.8462 25.0058C45.5977 25.283 45.3684 25.5793 45.1581 25.8852C44.9192 26.2389 44.3649 27.1087 44.3171 27.08C43.3996 26.4683 42.3865 26.2389 41.297 26.2866C40.1502 26.3344 39.0415 26.5734 37.9616 26.9749C37.2352 27.2425 36.528 27.5675 35.859 27.9594C35.8208 27.9785 35.7826 28.0072 35.7443 28.0359C35.7348 28.0454 35.7252 28.0645 35.6966 28.1028C36.0406 28.0167 36.356 27.9307 36.6905 27.8734C37.025 27.8064 37.3595 27.7682 37.694 27.7395C38.0285 27.7109 38.3726 27.7013 38.707 27.7013C39.032 27.7013 39.3665 27.7204 39.6914 27.7587C40.0259 27.7969 40.3604 27.8638 40.6854 27.9307C41.0103 27.9976 41.3353 28.0836 41.6984 28.2366C41.5837 28.2748 41.5455 28.2939 41.5073 28.3035C40.8001 28.4469 40.1502 28.7336 39.5098 29.0491C38.6975 29.4505 37.9425 29.9476 37.2353 30.5115C36.5185 31.085 35.8781 31.735 35.2952 32.4328C34.5879 33.2644 33.9954 34.1724 33.4602 35.1187C33.4029 35.2238 33.3455 35.329 33.2977 35.4341C33.0397 35.9885 34.3968 34.8797 35.4959 33.9812C36.5567 33.1114 37.7322 32.4136 39.0033 31.8784C40.198 31.3813 41.4404 31.0468 42.721 30.8938C43.4952 30.7983 44.2693 30.7791 45.0434 30.8269C45.0721 30.8269 45.0912 30.8365 45.1199 30.8461C45.1294 30.913 45.0816 30.9225 45.0434 30.9416C44.1737 31.3049 43.3709 31.7828 42.5968 32.3276C41.6028 33.0254 40.6854 33.8283 39.8826 34.7364C39.3569 35.329 38.86 35.9503 38.4299 36.6194C37.5889 37.9193 36.9772 39.3149 36.5854 40.806C36.4133 41.4751 36.2604 42.1538 36.1935 42.842C36.0788 43.8743 36.0406 44.8971 36.1362 45.9294C36.1935 46.608 36.3082 47.2676 36.4707 47.9271C36.5376 48.2043 36.614 48.4719 36.6905 48.7396C36.767 48.73 36.7383 47.6595 36.7956 47.2102C36.939 46.197 37.1875 45.222 37.608 44.2949C37.8565 43.7405 38.1814 43.2434 38.535 42.7464C38.5541 42.7273 39.3952 41.781 39.3952 41.8097C39.3283 42.2015 39.4907 48.6918 44.6516 54.2357C44.6516 53.0887 44.0112 48.8638 44.0781 47.8315C44.1546 46.5985 44.3553 46.0823 44.8427 44.9448C45.2919 43.8838 45.894 42.9184 46.6968 42.0964C47.2702 41.5133 46.6681 38.3208 47.4231 37.9862C47.8054 37.8142 51.1504 42.192 54.2087 39.0377C54.7343 38.8561 55.7474 38.8752 56.2157 38.5598C56.5119 38.3686 56.2157 36.9731 55.6996 35.6157C55.1739 34.2106 53.9697 33.2166 52.5362 32.796C52.4693 32.7769 52.4311 32.7482 52.4502 32.7004C52.4788 32.5953 52.5266 32.5283 52.6222 32.471C53.253 32.0982 53.8742 31.7159 54.4954 31.3431C54.6101 31.2762 54.7152 31.1902 54.8299 31.1232C54.9159 31.0755 54.9828 30.9799 54.9924 30.8843C55.0497 30.4637 55.9576 24.9485 56.0341 24.4801C56.0819 24.2029 51.0644 29.4983 50.9497 29.6704C50.9784 29.7086 51.0166 29.6895 51.0453 29.6704C51.59 29.3836 52.1348 29.0873 52.6891 28.8005C53.0905 28.5902 53.511 28.3991 53.922 28.1983C53.9506 28.1888 53.9889 28.1983 54.0366 28.1983C54.008 28.2557 53.9984 28.2939 53.9793 28.3322C53.5588 29.0491 53.1383 29.7659 52.7082 30.4733C52.3833 31.0085 52.0488 31.5247 51.6665 32.0122C51.5136 32.2034 51.3607 32.3945 51.1982 32.5857C51.0166 32.8055 50.7968 32.9872 50.5579 33.1305C49.9271 33.5129 49.3059 33.4842 48.7038 33.0923C48.2068 32.7673 47.815 32.3276 47.5283 31.8019C47.318 31.4196 47.232 30.9799 47.2989 30.5497C47.3849 29.9476 47.6525 29.4314 47.9488 28.9152C48.3215 28.2844 48.7707 27.7109 49.2485 27.1565C50.08 26.1911 51.007 25.3308 51.9628 24.4992C52.8229 23.7536 53.7308 23.0654 54.6483 22.3868C55.5753 21.7081 56.5215 21.0581 57.5059 20.456C57.5537 20.4273 57.4772 21.8419 57.3912 22.511C57.267 23.486 57.1427 24.461 57.028 25.4455C56.9516 26.1146 56.8942 26.7932 56.8369 27.4623C56.8082 27.7778 56.7891 28.1028 56.7604 28.4182C56.6648 29.3932 56.9324 30.2821 57.4294 31.1041C57.6875 31.5343 57.9933 31.9357 58.3182 32.3181C58.7579 32.8438 59.2166 33.3504 59.6658 33.8665C60.0959 34.354 60.5068 34.8511 60.8986 35.3768C61.3192 35.9503 61.711 36.5429 61.9499 37.2216C62.1124 37.6708 62.1984 38.1392 62.1984 38.6171C62.1984 38.8943 62.1889 39.1619 62.1889 39.4391C62.1793 40.1082 62.38 40.7104 62.7432 41.2744C63.0203 41.695 63.3548 42.0582 63.6989 42.4118C64.5686 43.3199 65.4765 44.1897 66.4322 45.0117C67.2732 45.7382 68.1238 46.4551 68.9744 47.172C69.1273 47.2962 69.2898 47.4109 69.4523 47.5352C69.5096 47.5734 69.5574 47.6308 69.6052 47.6786C69.5574 47.7646 69.4809 47.7837 69.414 47.7933C69.0413 47.8889 68.6686 47.9844 68.2959 48.0609C67.9614 48.1278 67.6173 48.1756 67.2732 48.233C67.1777 48.2521 67.0821 48.2712 66.9674 48.2999C66.9196 48.644 66.9579 48.9785 67.0248 49.3131C67.0917 49.6381 67.235 49.9344 67.407 50.2116C67.5791 50.4983 67.818 50.7373 68.0569 50.9954C67.8753 51.1579 67.6937 51.2917 67.4931 51.3968C66.9674 51.6931 66.4035 51.9034 65.8014 52.0086C65.4383 52.0755 65.0847 52.1233 64.7119 52.1233C64.559 52.1233 64.4348 52.1711 64.3297 52.2858C63.9187 52.7063 63.3931 53.0122 62.8005 53.06C61.8448 53.146 60.9273 53.0313 60.0576 52.6108C59.6276 52.4005 59.1975 52.1902 58.777 51.9799C57.4199 51.2821 56.0054 50.6895 54.5623 50.202C53.9506 50.0013 53.339 49.8197 52.6987 49.7337C51.7907 49.6094 50.8924 49.6572 50.0609 50.0969C48.9427 50.6895 48.2833 51.6167 48.1686 52.888C48.1399 53.1747 48.1877 53.4615 48.2546 53.7482C48.3502 54.1592 48.5126 54.5416 48.7229 54.9048C49.2103 55.7364 49.8315 56.4533 50.5579 57.0746C52.2495 58.5179 54.1704 59.5598 56.2826 60.2193C56.4833 60.2862 56.684 60.3436 56.8847 60.3818C56.9324 60.3914 56.9707 60.4105 57.0662 60.4583C56.9802 60.487 56.9324 60.5156 56.8847 60.5252C56.1297 60.6208 55.3842 60.7546 54.6292 60.812C53.5014 60.9075 52.3642 60.8884 51.2364 60.7642C49.7646 60.6017 48.3406 60.2671 46.9739 59.7223C45.9896 59.3304 45.0434 58.8525 44.1546 58.2789C43.3518 57.7628 38.7166 56.3195 43.7723 60.2098C43.801 60.2289 43.8201 60.2576 43.8679 60.3149C43.7819 60.3149 43.7436 60.3149 43.7054 60.3054C42.3101 60.0855 41.0008 59.6363 39.7583 58.9863C38.3821 58.2598 37.1875 57.3135 36.184 56.1378C35.0849 54.857 34.3394 53.385 33.9476 51.7409C33.7373 50.8616 33.6513 49.9822 33.6513 49.0837C33.6418 48.3286 33.508 44.3713 32.9346 45.7ZM53.5397 46.4551C53.5206 46.5411 53.5492 46.5985 53.5779 46.6654C53.7786 47.1051 53.9697 47.5448 54.18 47.9844C54.2756 48.1852 54.3807 48.3668 54.4954 48.558C54.7152 48.9212 55.0115 49.2175 55.3842 49.4278C55.5467 49.5234 55.7187 49.619 55.8907 49.705C56.7604 50.1256 57.6301 50.5366 58.5094 50.9476C59.0924 51.2152 59.6753 51.4637 60.2774 51.6645C60.9369 51.8939 61.6059 51.9608 62.3035 51.8843C62.3704 51.8748 62.4278 51.8748 62.4947 51.8652C62.5616 51.8556 62.6285 51.8652 62.7336 51.827C62.5998 51.7792 62.5042 51.7409 62.4182 51.7123C62.208 51.6358 61.9882 51.5689 61.7779 51.4733C61.1185 51.1961 60.5164 50.8233 59.9334 50.4123C59.2166 49.9057 58.5667 49.3226 57.9168 48.7396C57.5059 48.3668 57.0854 48.0036 56.6362 47.6786C55.7856 47.0668 54.849 46.6558 53.8168 46.4742C53.7213 46.4551 53.6352 46.4264 53.5397 46.4551ZM59.9047 40.3281C59.6371 39.8502 59.2739 39.4678 58.8248 39.1524C58.2609 38.7605 57.6397 38.4737 56.9993 38.2348C56.6744 38.1201 57.7352 40.6817 58.9777 40.9685C59.36 41.0641 60.0672 40.6244 59.9047 40.3281Z" fill="#FDF193"/>
<path d="M70.7805 25.2544C67.5311 22.0045 63.7274 19.5288 59.57 17.9039C59.3693 17.8274 59.1782 17.751 58.9775 17.684C55.4031 16.365 51.5803 15.6768 47.6523 15.6768C38.9171 15.6768 30.7075 19.0796 24.5241 25.2544C18.3502 31.4292 14.9479 39.6399 14.9479 48.3764C14.9479 57.1129 18.3502 65.3236 24.5241 71.508C30.698 77.6828 38.9171 81.0856 47.6523 81.0856C56.3875 81.0856 64.597 77.6828 70.7805 71.508C76.9544 65.3332 80.3567 57.1129 80.3567 48.3764C80.3567 39.6399 76.9544 31.4292 70.7805 25.2544ZM21.2269 61.7583L27.9169 52.4866L27.6302 56.7879L24.763 59.3209L21.2269 61.7583ZM25.432 64.1479L26.101 58.5562L28.605 68.3059L25.432 64.1479ZM29.7327 59.6076L27.3434 59.3209L32.2176 57.8871L29.7327 59.6076ZM43.2082 76.335L42.0614 71.6513L39.481 70.0264H42.0614L41.2968 64.3869L44.0684 71.269L43.2082 76.335ZM37.1873 73.0851V68.8794L40.5323 63.0487V66.1074L37.1873 73.0851ZM51.6472 66.1743L59.5796 64.4156L56.7793 67.1111L51.6472 66.1743ZM56.0243 70.3036L59.7325 65.0847L59.2642 69.4051L53.7593 75.6755L56.0243 70.3036ZM54.6768 75.427L57.9262 72.5594L62.2938 73.7829L54.6768 75.427ZM67.9612 60.898L67.3495 56.7114L70.5798 59.9995L72.1663 65.7729L67.9612 60.898ZM77.0404 54.8284L71.4973 49.1889C71.4877 49.2845 70.0828 51.1101 70.0828 51.1101L69.0029 52.0851C68.7544 52.3145 68.4868 52.5057 68.181 52.6777C67.512 53.0601 66.7952 53.3181 66.0402 53.452C65.7535 53.4998 65.419 53.5571 65.0654 53.5762C64.4441 54.1115 63.6891 54.446 62.915 54.5225C62.6761 54.5416 62.4371 54.5607 62.2078 54.5607C61.2138 54.5607 60.2772 54.3505 59.4267 53.949C59.0157 53.7483 58.5856 53.538 58.1078 53.299C56.7889 52.6299 55.4413 52.0564 54.0842 51.6072C53.6064 51.4447 53.0425 51.2726 52.4786 51.1962C52.2493 51.1675 52.039 51.1484 51.8479 51.1484C51.3987 51.1484 51.0355 51.2344 50.701 51.4064C49.9842 51.7792 49.6402 52.2954 49.5733 53.0601C49.5637 53.1365 49.5828 53.2703 49.6306 53.452C49.6975 53.7196 49.8026 53.9872 49.946 54.2262C50.3283 54.8857 50.8444 55.4879 51.4751 56.0328C52.9756 57.3232 60.9558 60.6208 60.9558 60.6208C60.9558 60.6208 58.2129 62.3796 53.1476 62.3318C52.4595 62.3223 51.7619 62.2936 51.0833 62.2171C49.5446 62.0451 48.0633 61.6914 46.6775 61.1752L47.4325 61.9495C47.4325 61.9495 42.071 62.0928 39.0891 60.2767C37.6078 59.3782 36.2124 58.3937 35.0943 57.0938C34.473 56.3769 33.957 55.6026 33.5364 54.771L31.6441 54.0733C31.2141 53.9394 30.9656 53.6814 30.8318 53.4711C29.9812 52.1807 29.0637 49.5139 29.0542 49.5043C28.7292 49.4947 21.6092 53.0983 21.6092 53.0983L17.0313 52.1807C16.8784 50.9285 16.7924 49.6572 16.7924 48.3668C16.7924 31.3527 30.526 17.5693 47.5376 17.512C50.6723 17.5024 53.6924 17.9612 56.55 18.8215C56.7698 18.8884 56.9896 18.9553 57.2094 19.0318C57.8402 19.2421 58.4614 19.4619 59.0826 19.7104C59.2451 19.7774 59.398 19.8443 59.5605 19.9112C70.6754 24.5853 78.4931 35.5776 78.4931 48.3764C78.4931 50.4601 78.2828 52.4866 77.891 54.4556L77.0404 54.8284Z" fill="#FDF193"/>
</g>
<defs>
<filter id="filter0_d_1_5419" x="14.9479" y="14.6768" width="65.4088" height="66.4088" filterUnits="userSpaceOnUse" color-interpolation-filters="sRGB">
<feFlood flood-opacity="0" result="BackgroundImageFix"/>
<feColorMatrix in="SourceAlpha" type="matrix" values="0 0 0 0 0 0 0 0 0 0 0 0 0 0 0 0 0 0 127 0" result="hardAlpha"/>
<feOffset dy="-1"/>
<feComposite in2="hardAlpha" operator="out"/>
<feColorMatrix type="matrix" values="0 0 0 0 0.52549 0 0 0 0 0.333333 0 0 0 0 0.133333 0 0 0 0.5 0"/>
<feBlend mode="normal" in2="BackgroundImageFix" result="effect1_dropShadow_1_5419"/>
<feBlend mode="normal" in="SourceGraphic" in2="effect1_dropShadow_1_5419" result="shape"/>
</filter>
<linearGradient id="paint0_linear_1_5419" x1="47.9939" y1="92.5459" x2="47.9939" y2="-3.50423" gradientUnits="userSpaceOnUse">
<stop stop-color="#C99B14"/>
<stop offset="0.2137" stop-color="#B78817"/>
<stop offset="0.2223" stop-color="#B98B1B"/>
<stop offset="0.3396" stop-color="#D6B74E"/>
<stop offset="0.4418" stop-color="#EBD774"/>
<stop offset="0.524" stop-color="#F8EA8B"/>
<stop offset="0.5758" stop-color="#FDF193"/>
<stop offset="0.5784" stop-color="#F9EB8A"/>
<stop offset="0.589" stop-color="#ECD66B"/>
<stop offset="0.6011" stop-color="#E1C34F"/>
<stop offset="0.6146" stop-color="#D8B439"/>
<stop offset="0.6305" stop-color="#D1A928"/>
<stop offset="0.6501" stop-color="#CDA11D"/>
<stop offset="0.6776" stop-color="#CA9C16"/>
<stop offset="0.754" stop-color="#C99B14"/>
<stop offset="0.7571" stop-color="#C79814"/>
<stop offset="0.7907" stop-color="#AF7E15"/>
<stop offset="0.8275" stop-color="#9E6A16"/>
<stop offset="0.8692" stop-color="#915B17"/>
<stop offset="0.9192" stop-color="#895317"/>
<stop offset="1" stop-color="#875017"/>
</linearGradient>
<linearGradient id="paint1_linear_1_5419" x1="47.9938" y1="90.935" x2="47.9938" y2="-1.60083" gradientUnits="userSpaceOnUse">
<stop stop-color="#875017"/>
<stop offset="0.0808151" stop-color="#895317"/>
<stop offset="0.1308" stop-color="#915B17"/>
<stop offset="0.1725" stop-color="#9E6A16"/>
<stop offset="0.2093" stop-color="#AF7E15"/>
<stop offset="0.2429" stop-color="#C79814"/>
<stop offset="0.246" stop-color="#C99B14"/>
<stop offset="0.3224" stop-color="#CA9C16"/>
<stop offset="0.3499" stop-color="#CDA11D"/>
<stop offset="0.3695" stop-color="#D1A928"/>
<stop offset="0.3854" stop-color="#D8B439"/>
<stop offset="0.3989" stop-color="#E1C34F"/>
<stop offset="0.411" stop-color="#ECD66B"/>
<stop offset="0.4216" stop-color="#F9EB8A"/>
<stop offset="0.4242" stop-color="#FDF193"/>
<stop offset="0.476" stop-color="#F8EA8B"/>
<stop offset="0.5582" stop-color="#EBD774"/>
<stop offset="0.6604" stop-color="#D6B74E"/>
<stop offset="0.7777" stop-color="#B98B1B"/>
<stop offset="0.7863" stop-color="#B78817"/>
<stop offset="1" stop-color="#C99B14"/>
</linearGradient>
<linearGradient id="paint2_linear_1_5419" x1="47.9939" y1="83.8852" x2="47.9939" y2="13.4119" gradientUnits="userSpaceOnUse">
<stop stop-color="#C99B14"/>
<stop offset="0.037458" stop-color="#CFA523"/>
<stop offset="0.11" stop-color="#E0C14C"/>
<stop offset="0.2095" stop-color="#FAEC8C"/>
<stop offset="0.2195" stop-color="#FDF193"/>
<stop offset="0.2511" stop-color="#FAEC8B"/>
<stop offset="0.2989" stop-color="#F1DE77"/>
<stop offset="0.357" stop-color="#E3C754"/>
<stop offset="0.4227" stop-color="#D0A725"/>
<stop offset="0.4445" stop-color="#C99B14"/>
<stop offset="0.61" stop-color="#EDD66C"/>
<stop offset="0.6933" stop-color="#FDF193"/>
<stop offset="0.9055" stop-color="#B78817"/>
<stop offset="1" stop-color="#C99B14"/>
</linearGradient>
<linearGradient id="paint3_linear_1_5419" x1="47.9939" y1="15.1341" x2="47.9939" y2="87.9791" gradientUnits="userSpaceOnUse">
<stop stop-color="#875017"/>
<stop offset="0.1072" stop-color="#9D6A17"/>
<stop offset="0.2475" stop-color="#B78817"/>
<stop offset="0.6677" stop-color="#FDF193"/>
<stop offset="0.7431" stop-color="#FCEF90"/>
<stop offset="0.8008" stop-color="#F8E886"/>
<stop offset="0.8526" stop-color="#F1DD76"/>
<stop offset="0.9009" stop-color="#E8CE5F"/>
<stop offset="0.9469" stop-color="#DBB941"/>
<stop offset="0.9905" stop-color="#CDA11D"/>
<stop offset="1" stop-color="#C99B14"/>
</linearGradient>
<linearGradient id="paint4_linear_1_5419" x1="47.9939" y1="78.2406" x2="47.9939" y2="13.4012" gradientUnits="userSpaceOnUse">
<stop stop-color="#875017"/>
<stop offset="0.1072" stop-color="#9D6A17"/>
<stop offset="0.2475" stop-color="#B78817"/>
<stop offset="0.6677" stop-color="#FDF193"/>
<stop offset="0.7431" stop-color="#FCEF90"/>
<stop offset="0.8008" stop-color="#F8E886"/>
<stop offset="0.8526" stop-color="#F1DD76"/>
<stop offset="0.9009" stop-color="#E8CE5F"/>
<stop offset="0.9469" stop-color="#DBB941"/>
<stop offset="0.9905" stop-color="#CDA11D"/>
<stop offset="1" stop-color="#C99B14"/>
</linearGradient>
</defs>
</svg>
