<svg width="24" height="24" viewBox="0 0 24 24" fill="none" xmlns="http://www.w3.org/2000/svg">
<path d="M18.261 6.1824C20.2939 9.23337 21.2978 12.6748 20.9225 16.6366C20.9209 16.6534 20.9124 16.6688 20.8989 16.6789C19.3594 17.8328 17.8679 18.533 16.3973 18.9974C16.3859 19.001 16.3736 19.0008 16.3623 18.9969C16.3509 18.993 16.3411 18.9855 16.3341 18.9756C15.9943 18.4931 15.6856 17.9844 15.4152 17.4501C15.3997 17.4187 15.4138 17.3808 15.4458 17.3684C15.9361 17.1798 16.4023 16.9538 16.8507 16.6862C16.886 16.6651 16.8883 16.6134 16.8556 16.5886C16.7605 16.5165 16.6662 16.4407 16.576 16.3649C16.5591 16.3509 16.5364 16.3482 16.5172 16.3576C13.606 17.7299 10.4168 17.7299 7.47113 16.3576C7.452 16.3489 7.42928 16.3518 7.41285 16.3656C7.32285 16.4414 7.22835 16.5165 7.13408 16.5886C7.10145 16.6134 7.10415 16.6651 7.1397 16.6862C7.58813 16.9488 8.05432 17.1798 8.54392 17.3693C8.57565 17.3817 8.59072 17.4187 8.57497 17.4501C8.31037 17.985 8.00167 18.4938 7.65563 18.9763C7.64055 18.9958 7.6158 19.0048 7.5924 18.9974C6.12878 18.533 4.63726 17.8328 3.09781 16.6789C3.08498 16.6688 3.07576 16.6527 3.07441 16.636C2.76076 13.209 3.39998 9.73911 5.73345 6.18171C5.73908 6.1723 5.74763 6.16495 5.75753 6.16059C6.9057 5.62269 8.13577 5.22697 9.42142 5.00097C9.44482 4.99729 9.46822 5.00832 9.48037 5.02945C9.63922 5.31654 9.8208 5.6847 9.94365 5.98557C11.2988 5.77428 12.6751 5.77428 14.0587 5.98557C14.1815 5.69113 14.3568 5.31654 14.515 5.02945C14.5206 5.01897 14.5293 5.01057 14.5399 5.00545C14.5505 5.00034 14.5624 4.99877 14.5739 5.00097C15.8602 5.22766 17.0903 5.62338 18.2376 6.16059C18.2477 6.16495 18.256 6.1723 18.261 6.1824ZM10.6326 12.6982C10.6468 11.6851 9.92317 10.8468 9.01485 10.8468C8.11395 10.8468 7.39733 11.6778 7.39733 12.6982C7.39733 13.7184 8.12812 14.5494 9.01485 14.5494C9.91597 14.5494 10.6326 13.7184 10.6326 12.6982ZM16.6135 12.6982C16.6277 11.6851 15.9041 10.8468 14.996 10.8468C14.0949 10.8468 13.3783 11.6778 13.3783 12.6982C13.3783 13.7184 14.1091 14.5494 14.996 14.5494C15.9041 14.5494 16.6135 13.7184 16.6135 12.6982Z" fill="white"/>
</svg>
