<svg width="20" height="20" viewBox="0 0 20 20" fill="none" xmlns="http://www.w3.org/2000/svg">
<path d="M6.47564 18.3241C6.22974 18.1601 6.20242 18.0645 6.29804 17.7776C7.03575 15.6009 7.77345 13.4197 8.51571 11.243C8.53848 11.1793 8.55669 11.1109 8.58402 11.029C8.50205 11.029 8.4474 11.029 8.38821 11.029C7.39094 11.029 6.39367 11.029 5.3964 11.029C5.04121 11.029 4.90915 10.8195 5.06398 10.4962C6.42099 7.64556 7.77801 4.79492 9.13046 1.94428C9.22154 1.74847 9.36271 1.6665 9.57673 1.6665C10.9656 1.67106 12.3545 1.66651 13.7434 1.67106C14.135 1.67106 14.2807 1.92607 14.0804 2.2676C13.074 3.98891 12.0676 5.71022 11.0658 7.43153C11.0339 7.48618 11.002 7.54082 10.9565 7.62279C11.0339 7.62734 11.0931 7.6319 11.1478 7.6319C12.1086 7.6319 13.0694 7.6319 14.0257 7.6319C14.0804 7.6319 14.135 7.62734 14.1897 7.63645C14.5175 7.68199 14.645 7.98253 14.4492 8.24665C14.0576 8.76577 13.666 9.2849 13.2698 9.80403C11.1751 12.5636 9.08493 15.3277 6.99021 18.0827C6.9128 18.1829 6.78985 18.2512 6.68511 18.3332C6.60314 18.3241 6.53939 18.3241 6.47564 18.3241Z" fill="white"/>
</svg>
