<svg width="24" height="24" viewBox="0 0 24 24" fill="none" xmlns="http://www.w3.org/2000/svg">
<path d="M12 5.44133C14.136 5.44133 14.3893 5.44933 15.2327 5.488C16.1047 5.528 17.0027 5.72667 17.638 6.362C18.2793 7.00333 18.472 7.89267 18.512 8.76733C18.5507 9.61067 18.5587 9.864 18.5587 12C18.5587 14.136 18.5507 14.3893 18.512 15.2327C18.4727 16.1 18.2693 17.0067 17.638 17.638C16.9967 18.2793 16.108 18.472 15.2327 18.512C14.3893 18.5507 14.136 18.5587 12 18.5587C9.864 18.5587 9.61067 18.5507 8.76733 18.512C7.90667 18.4727 6.988 18.2647 6.362 17.638C5.724 17 5.528 16.102 5.488 15.2327C5.44933 14.3893 5.44133 14.136 5.44133 12C5.44133 9.864 5.44933 9.61067 5.488 8.76733C5.52733 7.90333 5.73267 6.99133 6.362 6.362C7.002 5.722 7.89467 5.528 8.76733 5.488C9.61067 5.44933 9.864 5.44133 12 5.44133ZM12 4C9.82733 4 9.55467 4.00933 8.70133 4.048C7.46467 4.10467 6.23667 4.44867 5.34267 5.34267C4.44533 6.24 4.10467 7.46533 4.048 8.70133C4.00933 9.55467 4 9.82733 4 12C4 14.1727 4.00933 14.4453 4.048 15.2987C4.10467 16.534 4.45 17.7653 5.34267 18.6573C6.23933 19.554 7.46667 19.8953 8.70133 19.952C9.55467 19.9907 9.82733 20 12 20C14.1727 20 14.4453 19.9907 15.2987 19.952C16.5347 19.8953 17.764 19.5507 18.6573 18.6573C19.5553 17.7593 19.8953 16.5347 19.952 15.2987C19.9907 14.4453 20 14.1727 20 12C20 9.82733 19.9907 9.55467 19.952 8.70133C19.8953 7.46467 19.5507 6.236 18.6573 5.34267C17.762 4.44733 16.5313 4.104 15.2987 4.048C14.4453 4.00933 14.1727 4 12 4Z" fill="white"/>
<path d="M11.9999 7.89209C9.73124 7.89209 7.89191 9.73142 7.89191 12.0001C7.89191 14.2688 9.73124 16.1081 11.9999 16.1081C14.2686 16.1081 16.1079 14.2688 16.1079 12.0001C16.1079 9.73142 14.2686 7.89209 11.9999 7.89209ZM11.9999 14.6668C10.5272 14.6668 9.33324 13.4728 9.33324 12.0001C9.33324 10.5274 10.5272 9.33342 11.9999 9.33342C13.4726 9.33342 14.6666 10.5274 14.6666 12.0001C14.6666 13.4728 13.4726 14.6668 11.9999 14.6668Z" fill="white"/>
<path d="M16.2705 8.68953C16.8007 8.68953 17.2305 8.25972 17.2305 7.72953C17.2305 7.19934 16.8007 6.76953 16.2705 6.76953C15.7404 6.76953 15.3105 7.19934 15.3105 7.72953C15.3105 8.25972 15.7404 8.68953 16.2705 8.68953Z" fill="white"/>
</svg>
