<svg width="24" height="25" viewBox="0 0 24 25" fill="none" xmlns="http://www.w3.org/2000/svg">
<g id="Group 2">
<path id="Vector" d="M12.0018 24.8679C18.6263 24.8679 23.9966 19.4977 23.9966 12.8732C23.9966 6.24865 18.6263 0.878418 12.0018 0.878418C5.37731 0.878418 0.00708008 6.24865 0.00708008 12.8732C0.00708008 19.4977 5.37731 24.8679 12.0018 24.8679Z" fill="url(#paint0_linear_3163_2944)"/>
<g id="Group">
<path id="Vector_2" d="M6.60063 11.8912C6.43228 12.2875 6.30953 12.6978 6.25342 13.1257C6.21484 13.4063 6.1973 13.6904 6.22536 13.978C6.23939 14.1148 6.25342 14.2515 6.28498 14.3848C6.292 14.4094 6.292 14.4374 6.2955 14.469C6.28147 14.462 6.27095 14.462 6.26744 14.4585C6.0044 14.0657 5.80449 13.6448 5.69226 13.1818C5.58353 12.7399 5.55548 12.291 5.60809 11.8351C5.65719 11.4037 5.78345 10.9968 5.99037 10.6181C6.09208 10.4322 6.20432 10.2568 6.3446 10.0955C6.35513 10.085 6.36214 10.0674 6.37617 10.0464C6.2955 10.0499 6.23588 10.085 6.17275 10.113C6.13066 10.1305 6.09208 10.1481 6.0535 10.1691C5.96933 10.2147 5.88165 10.2603 5.80098 10.3129C5.74136 10.3515 5.68525 10.3936 5.63264 10.4357C5.57652 10.4778 5.52391 10.5234 5.4713 10.5725C5.41869 10.6216 5.3731 10.6707 5.32751 10.7268C5.28191 10.7794 5.23983 10.8355 5.19774 10.8951C5.15565 10.9512 5.12058 11.0109 5.082 11.0705C5.04693 11.1301 5.01887 11.1932 4.97678 11.2669C4.96626 11.2388 4.95925 11.2283 4.95925 11.2178C4.94873 11.1196 4.98029 9.59043 5.22229 8.95562C5.40817 8.46461 5.68525 8.02972 6.0535 7.65093C6.25692 7.4405 6.48489 7.26163 6.73391 7.10731C6.79353 7.06873 5.14162 7.6825 5.10655 7.71757C5.11357 7.6825 5.72032 6.6163 5.99037 6.29714C6.26744 5.96746 6.57257 5.66935 6.90576 5.39578C7.53706 4.88022 8.2315 4.4839 9.00309 4.21034C9.44851 4.05251 9.90445 3.93327 10.3709 3.85611C10.8268 3.77895 11.2898 3.7544 11.7528 3.7544C11.8545 3.7544 11.9527 3.7544 12.0509 3.7544C12.0579 3.77544 12.0509 3.78596 12.0368 3.78947C11.7528 3.89118 11.5353 4.07706 11.3389 4.29802C11.2477 4.39973 11.1635 4.50845 11.0864 4.62068C10.9987 4.75045 10.7953 5.06961 10.7777 5.05909C10.4411 4.83463 10.0693 4.75045 9.66946 4.76799C9.24859 4.78552 8.84175 4.87321 8.44544 5.02051C8.17889 5.11871 7.91935 5.23796 7.67384 5.38175C7.65982 5.38877 7.64579 5.39929 7.63176 5.40981C7.62825 5.41332 7.62475 5.42033 7.61422 5.43436C7.74048 5.4028 7.85622 5.37123 7.97897 5.35019C8.10173 5.32564 8.22448 5.31161 8.34723 5.30109C8.46999 5.29057 8.59625 5.28706 8.719 5.28706C8.83825 5.28706 8.961 5.29407 9.08025 5.3081C9.203 5.32213 9.32575 5.34668 9.445 5.37123C9.56424 5.39578 9.68349 5.42735 9.81677 5.48346C9.77468 5.49749 9.76065 5.50451 9.74662 5.50801C9.48709 5.56062 9.24859 5.66584 9.01361 5.78158C8.71549 5.92888 8.43842 6.11126 8.17889 6.31819C7.91584 6.52862 7.68086 6.76711 7.46692 7.02314C7.20738 7.32827 6.98994 7.66146 6.79353 8.00867C6.77249 8.04725 6.75144 8.08583 6.73391 8.12441C6.63921 8.32783 7.13724 7.92099 7.54057 7.59131C7.92987 7.27215 8.36126 7.01612 8.82773 6.81972C9.26613 6.63734 9.72207 6.51459 10.192 6.45847C10.4761 6.4234 10.7602 6.41639 11.0443 6.43392C11.0548 6.43392 11.0618 6.43743 11.0724 6.44094C11.0759 6.46549 11.0583 6.469 11.0443 6.47601C10.7251 6.60929 10.4305 6.78465 10.1464 6.98456C9.78169 7.24059 9.445 7.53519 9.15039 7.86838C8.95749 8.08583 8.77512 8.3138 8.61729 8.55931C8.30865 9.03629 8.08419 9.54835 7.9404 10.0955C7.87727 10.341 7.82115 10.59 7.7966 10.8425C7.75451 11.2213 7.74048 11.5966 7.77556 11.9754C7.7966 12.2244 7.83869 12.4664 7.89831 12.7084C7.92286 12.8101 7.95092 12.9083 7.97897 13.0065C8.00703 13.003 7.99651 12.6102 8.01756 12.4453C8.07016 12.0736 8.16135 11.7158 8.31567 11.3756C8.40686 11.1722 8.5261 10.9898 8.65587 10.8074C8.66288 10.8004 8.97152 10.4532 8.97152 10.4637C8.94697 10.6075 9.00659 12.9889 10.9005 15.0231C10.9005 14.6023 10.6655 13.0521 10.6901 12.6733C10.7181 12.2209 10.7918 12.0315 10.9706 11.6141C11.1355 11.2248 11.3564 10.8706 11.651 10.569C11.8615 10.355 11.6405 9.18359 11.9176 9.06084C12.0579 8.99771 13.2854 10.604 14.4077 9.44664C14.6006 9.38 14.9724 9.38701 15.1443 9.27128C15.253 9.20113 15.1443 8.68907 14.9549 8.19105C14.762 7.67548 14.3201 7.31073 13.794 7.15641C13.7694 7.1494 13.7554 7.13888 13.7624 7.12134C13.7729 7.08276 13.7905 7.05821 13.8255 7.03717C14.057 6.90039 14.285 6.7601 14.5129 6.62331C14.555 6.59876 14.5936 6.5672 14.6357 6.54265C14.6673 6.52511 14.6918 6.49004 14.6953 6.45497C14.7164 6.30065 15.0496 4.27698 15.0776 4.10512C15.0952 4.00341 13.2539 5.94642 13.2118 6.00955C13.2223 6.02358 13.2363 6.01656 13.2468 6.00955C13.4468 5.90433 13.6467 5.79561 13.8501 5.69039C13.9974 5.61323 14.1517 5.54309 14.3025 5.46943C14.313 5.46593 14.3271 5.46943 14.3446 5.46943C14.3341 5.49048 14.3306 5.50451 14.3236 5.51854C14.1692 5.78158 14.0149 6.04462 13.8571 6.30416C13.7379 6.50056 13.6151 6.68995 13.4748 6.86882C13.4187 6.93897 13.3626 7.00911 13.303 7.07925C13.2363 7.15992 13.1557 7.22656 13.068 7.27917C12.8365 7.41946 12.6085 7.40893 12.3876 7.26514C12.2052 7.14589 12.0614 6.98456 11.9562 6.79166C11.879 6.65137 11.8475 6.49004 11.872 6.33221C11.9036 6.11126 12.0018 5.92187 12.1105 5.73248C12.2473 5.501 12.4121 5.29057 12.5875 5.08715C12.8926 4.73292 13.2328 4.41727 13.5835 4.11214C13.8992 3.83857 14.2324 3.58605 14.5691 3.33704C14.9093 3.08802 15.2565 2.84953 15.6177 2.62858C15.6353 2.61805 15.6072 3.13712 15.5756 3.38263C15.53 3.74037 15.4845 4.09811 15.4424 4.45935C15.4143 4.70486 15.3933 4.95387 15.3722 5.19938C15.3617 5.31512 15.3547 5.43436 15.3442 5.5501C15.3091 5.90784 15.4073 6.23401 15.5897 6.53563C15.6844 6.69346 15.7966 6.84076 15.9158 6.98105C16.0772 7.17395 16.2455 7.35983 16.4104 7.54922C16.5682 7.72809 16.719 7.91047 16.8628 8.10337C17.0171 8.3138 17.1609 8.53125 17.2486 8.78026C17.3082 8.9451 17.3398 9.11696 17.3398 9.29232C17.3398 9.39403 17.3363 9.49223 17.3363 9.59394C17.3328 9.83945 17.4064 10.0604 17.5397 10.2673C17.6414 10.4216 17.7642 10.5549 17.8904 10.6847C18.2096 11.0179 18.5428 11.337 18.8935 11.6387C19.2021 11.9052 19.5143 12.1683 19.8264 12.4313C19.8825 12.4769 19.9421 12.519 20.0018 12.5646C20.0228 12.5786 20.0404 12.5996 20.0579 12.6172C20.0404 12.6487 20.0123 12.6558 19.9877 12.6593C19.851 12.6943 19.7142 12.7294 19.5774 12.7575C19.4546 12.782 19.3284 12.7996 19.2021 12.8206C19.167 12.8276 19.132 12.8346 19.0899 12.8451C19.0724 12.9714 19.0864 13.0942 19.1109 13.2169C19.1355 13.3362 19.1881 13.4449 19.2512 13.5466C19.3144 13.6518 19.402 13.7395 19.4897 13.8342C19.4231 13.8938 19.3564 13.9429 19.2828 13.9815C19.0899 14.0902 18.883 14.1674 18.662 14.206C18.5287 14.2305 18.399 14.248 18.2622 14.248C18.2061 14.248 18.1605 14.2656 18.1219 14.3077C17.9711 14.462 17.7782 14.5742 17.5607 14.5917C17.21 14.6233 16.8733 14.5812 16.5542 14.4269C16.3963 14.3497 16.2385 14.2726 16.0842 14.1954C15.5862 13.9394 15.0671 13.722 14.5375 13.5431C14.313 13.4694 14.0886 13.4028 13.8536 13.3712C13.5204 13.3256 13.1907 13.3432 12.8856 13.5045C12.4752 13.722 12.2333 14.0622 12.1912 14.5286C12.1806 14.6338 12.1982 14.7391 12.2227 14.8443C12.2578 14.9951 12.3174 15.1354 12.3946 15.2686C12.5735 15.5738 12.8014 15.8368 13.068 16.0648C13.6888 16.5944 14.3937 16.9767 15.1688 17.2187C15.2425 17.2432 15.3161 17.2643 15.3898 17.2783C15.4073 17.2818 15.4213 17.2888 15.4564 17.3063C15.4248 17.3169 15.4073 17.3274 15.3898 17.3309C15.1127 17.366 14.8391 17.4151 14.5621 17.4361C14.1482 17.4712 13.7308 17.4642 13.317 17.4186C12.7769 17.359 12.2543 17.2362 11.7528 17.0363C11.3915 16.8925 11.0443 16.7171 10.7181 16.5067C10.4235 16.3173 8.72251 15.7877 10.5778 17.2152C10.5884 17.2222 10.5954 17.2327 10.6129 17.2537C10.5813 17.2537 10.5673 17.2537 10.5533 17.2502C10.0412 17.1696 9.56074 17.0047 9.1048 16.7662C8.59976 16.4997 8.16135 16.1525 7.79309 15.7211C7.38976 15.2511 7.11619 14.711 6.9724 14.1078C6.89524 13.7851 6.86367 13.4624 6.86367 13.1327C6.86017 12.8557 6.81107 11.4037 6.60063 11.8912ZM14.1622 12.1683C14.1552 12.1998 14.1657 12.2209 14.1763 12.2454C14.2499 12.4067 14.3201 12.5681 14.3972 12.7294C14.4323 12.8031 14.4709 12.8697 14.5129 12.9398C14.5936 13.0731 14.7023 13.1818 14.8391 13.259C14.8987 13.2941 14.9619 13.3291 15.025 13.3607C15.3442 13.515 15.6633 13.6658 15.986 13.8167C16.1999 13.9149 16.4139 14.006 16.6348 14.0797C16.8768 14.1639 17.1223 14.1884 17.3784 14.1604C17.4029 14.1569 17.424 14.1569 17.4485 14.1533C17.4731 14.1498 17.4976 14.1533 17.5362 14.1393C17.4871 14.1218 17.452 14.1078 17.4204 14.0972C17.3433 14.0692 17.2626 14.0446 17.1855 14.0095C16.9435 13.9078 16.7225 13.7711 16.5086 13.6202C16.2455 13.4344 16.007 13.2204 15.7685 13.0065C15.6177 12.8697 15.4634 12.7364 15.2986 12.6172C14.9864 12.3927 14.6427 12.2419 14.2639 12.1753C14.2289 12.1682 14.1973 12.1577 14.1622 12.1683ZM16.498 9.92011C16.3998 9.74475 16.2666 9.60446 16.1017 9.48872C15.8948 9.34493 15.6668 9.23971 15.4318 9.15203C15.3126 9.10994 15.7019 10.0499 16.1578 10.1551C16.2981 10.1902 16.5577 10.0288 16.498 9.92011Z" fill="white"/>
<path id="Vector_3" d="M20.4893 4.38925C19.2968 3.19679 17.9009 2.28842 16.3753 1.69219C16.3016 1.66413 16.2315 1.63607 16.1578 1.61152C14.8461 1.12752 13.4432 0.875 12.0018 0.875C8.79614 0.875 5.78343 2.12358 3.51425 4.38925C1.24858 6.65492 0 9.66763 0 12.8732C0 16.0789 1.24858 19.0916 3.51425 21.3607C5.77992 23.6264 8.79614 24.875 12.0018 24.875C15.2074 24.875 18.2201 23.6264 20.4893 21.3607C22.7549 19.0951 24.0035 16.0789 24.0035 12.8732C24.0035 9.66763 22.7549 6.65492 20.4893 4.38925ZM2.30425 17.7834L4.75932 14.3814L4.6541 15.9596L3.60193 16.889L2.30425 17.7834ZM3.84744 18.6602L4.09294 16.6084L5.01184 20.1858L3.84744 18.6602ZM5.42569 16.9942L4.54888 16.889L6.33757 16.3629L5.42569 16.9942ZM10.3709 23.1319L9.95002 21.4134L9.00307 20.8171H9.95002L9.66944 18.7479L10.6865 21.2731L10.3709 23.1319ZM8.16133 21.9394V20.3963L9.38887 18.2568V19.3792L8.16133 21.9394ZM13.4678 19.4037L16.3788 18.7584L15.3512 19.7474L13.4678 19.4037ZM15.0741 20.9188L16.4349 19.0039L16.263 20.5892L14.2429 22.8899L15.0741 20.9188ZM14.5796 22.7987L15.772 21.7465L17.3748 22.1955L14.5796 22.7987ZM19.4546 17.4677L19.2302 15.9316L20.4156 17.138L20.9978 19.2564L19.4546 17.4677ZM22.7865 15.2406L20.7523 13.1714C20.7488 13.2064 20.2332 13.8763 20.2332 13.8763L19.8369 14.2341C19.7457 14.3182 19.6475 14.3884 19.5353 14.4515C19.2898 14.5918 19.0267 14.6865 18.7497 14.7356C18.6445 14.7531 18.5217 14.7742 18.3919 14.7812C18.164 14.9776 17.8869 15.1003 17.6028 15.1284C17.5151 15.1354 17.4274 15.1424 17.3433 15.1424C16.9785 15.1424 16.6348 15.0653 16.3227 14.918C16.1719 14.8443 16.014 14.7672 15.8387 14.6795C15.3547 14.434 14.8601 14.2235 14.3621 14.0587C14.1868 13.9991 13.9798 13.9359 13.7729 13.9079C13.6887 13.8974 13.6116 13.8903 13.5414 13.8903C13.3766 13.8903 13.2433 13.9219 13.1206 13.985C12.8575 14.1218 12.7313 14.3112 12.7067 14.5918C12.7032 14.6198 12.7102 14.6689 12.7278 14.7356C12.7523 14.8338 12.7909 14.932 12.8435 15.0197C12.9838 15.2617 13.1732 15.4826 13.4046 15.6825C13.9553 16.156 16.8838 17.366 16.8838 17.366C16.8838 17.366 15.8772 18.0113 14.0184 17.9938C13.7659 17.9903 13.5099 17.9798 13.2609 17.9517C12.6962 17.8886 12.1526 17.7588 11.644 17.5694L11.9211 17.8535C11.9211 17.8535 9.95353 17.9061 8.85927 17.2398C8.31565 16.9101 7.80359 16.5488 7.39325 16.0718C7.16528 15.8088 6.97589 15.5247 6.82157 15.2196L6.12714 14.9636C5.96931 14.9145 5.87812 14.8198 5.82902 14.7426C5.51688 14.2691 5.18019 13.2906 5.17668 13.2871C5.05743 13.2836 2.44454 14.6058 2.44454 14.6058L0.764578 14.2691C0.708462 13.8097 0.676897 13.3432 0.676897 12.8697C0.676897 6.62686 5.71679 1.56943 11.9597 1.54839C13.11 1.54488 14.2183 1.71323 15.267 2.02888C15.3477 2.05343 15.4283 2.07798 15.509 2.10604C15.7405 2.1832 15.9684 2.26386 16.1964 2.35505C16.256 2.3796 16.3121 2.40415 16.3718 2.42871C20.4507 4.14374 23.3196 8.17706 23.3196 12.8732C23.3196 13.6378 23.2424 14.3814 23.0986 15.1038L22.7865 15.2406Z" fill="white"/>
</g>
</g>
<defs>
<linearGradient id="paint0_linear_3163_2944" x1="3.52026" y1="4.3916" x2="20.4834" y2="21.3547" gradientUnits="userSpaceOnUse">
<stop offset="0.00558659" stop-color="#D9CB00"/>
<stop offset="1" stop-color="#FF8717"/>
</linearGradient>
</defs>
</svg>
