<svg width="1790" height="115" viewBox="0 0 1790 115" fill="none" xmlns="http://www.w3.org/2000/svg">
<g filter="url(#filter0_d_1267_2806)">
<path d="M-385 58.0002H43.8399H496.373H964.306H1463.63H1790" stroke="#767F84"/>
</g>
<g filter="url(#filter1_d_1267_2806)">
<path d="M-207 58.0002H-123.204H-34.7778H56.6574H154.227H218" stroke="#33BDEB" stroke-width="3"/>
</g>
<g filter="url(#filter2_d_1267_2806)">
<path d="M243 58.0002H326.796H415.222H506.657H604.227H668" stroke="#33BDEB" stroke-width="3"/>
</g>
<g filter="url(#filter3_d_1267_2806)">
<path d="M687 58.0002H770.796H859.222H950.657H1048.23H1112" stroke="#33BDEB" stroke-width="3"/>
</g>
<g filter="url(#filter4_d_1267_2806)">
<path d="M1107 58.0002H1190.8H1279.22H1370.66H1468.23H1532" stroke="#33BDEB" stroke-width="3"/>
</g>
<rect x="212" y="41.1472" width="32" height="32" rx="16" fill="#334047"/>
<path d="M236.055 55.787C236.083 55.7378 236.103 55.6843 236.114 55.6287L236.739 52.2953C236.778 52.0743 236.729 51.8466 236.601 51.6622C236.472 51.4777 236.276 51.3518 236.055 51.312C235.834 51.2722 235.606 51.3219 235.422 51.45C235.238 51.5782 235.112 51.7743 235.072 51.9953L234.764 53.662C234.07 52.3953 233.033 51.3497 231.773 50.6452C230.512 49.9406 229.078 49.6057 227.636 49.6788C226.193 49.7519 224.801 50.23 223.618 51.0583C222.435 51.8867 221.509 53.0317 220.947 54.362C220.864 54.5665 220.866 54.7953 220.952 54.9983C221.038 55.2014 221.201 55.3621 221.405 55.4453C221.507 55.4875 221.616 55.509 221.726 55.5087C221.836 55.5085 221.945 55.4864 222.047 55.4438C222.148 55.4011 222.24 55.3388 222.317 55.2604C222.395 55.182 222.456 55.0891 222.497 54.987C222.946 53.8843 223.717 52.9432 224.711 52.2873C225.705 51.6314 226.873 51.2914 228.064 51.312C229.116 51.3071 230.152 51.5804 231.065 52.1043C231.978 52.6282 232.736 53.3841 233.264 54.2953L231.889 54.0703C231.779 54.0528 231.667 54.0571 231.559 54.0828C231.452 54.1085 231.35 54.1551 231.26 54.2201C231.17 54.2851 231.094 54.3672 231.036 54.4616C230.978 54.556 230.939 54.6609 230.922 54.7703C230.904 54.8798 230.909 54.9916 230.934 55.0994C230.96 55.2072 231.007 55.3089 231.072 55.3987C231.137 55.4884 231.219 55.5645 231.313 55.6226C231.408 55.6806 231.512 55.7195 231.622 55.737L235.164 56.3287H235.297C235.394 56.3298 235.49 56.3129 235.58 56.2787C235.611 56.2671 235.639 56.2502 235.664 56.2287C235.723 56.2065 235.779 56.1756 235.83 56.137L235.897 56.0537C235.94 56.0132 235.979 55.9686 236.014 55.9203C236.034 55.8782 236.048 55.8332 236.055 55.787Z" fill="#EBECED"/>
<path d="M234.572 58.8703C234.47 58.8285 234.36 58.8073 234.25 58.8082C234.139 58.809 234.03 58.8318 233.928 58.8752C233.827 58.9186 233.735 58.9818 233.658 59.0611C233.581 59.1404 233.521 59.2342 233.48 59.337C233.028 60.4281 232.259 61.3584 231.273 62.0077C230.286 62.6569 229.128 62.9952 227.947 62.9787C226.894 62.9836 225.859 62.7103 224.946 62.1864C224.032 61.6625 223.274 60.9066 222.747 59.9953L224.122 60.2203H224.255C224.476 60.238 224.695 60.1672 224.864 60.0234C225.033 59.8796 225.138 59.6747 225.155 59.4537C225.173 59.2327 225.102 59.0137 224.958 58.8449C224.814 58.6761 224.61 58.5714 224.389 58.5537L220.847 57.9787C220.756 57.9619 220.663 57.9619 220.572 57.9787H220.505C220.411 58.0038 220.321 58.0431 220.239 58.0953C220.182 58.1388 220.132 58.1892 220.089 58.2453L220.014 58.3287C219.988 58.3789 219.968 58.4321 219.955 58.487C219.926 58.5296 219.906 58.5779 219.897 58.6287L219.272 61.962C219.245 62.0728 219.241 62.1878 219.261 62.3001C219.28 62.4124 219.323 62.5194 219.385 62.6147C219.447 62.71 219.529 62.7915 219.624 62.8541C219.719 62.9167 219.826 62.9591 219.939 62.9787H220.089C220.286 62.9819 220.478 62.915 220.631 62.7898C220.783 62.6647 220.886 62.4895 220.922 62.2953L221.23 60.6287C221.923 61.8957 222.959 62.9418 224.219 63.647C225.48 64.3522 226.913 64.688 228.355 64.6158C229.798 64.5436 231.191 64.0663 232.374 63.2388C233.558 62.4113 234.484 61.2669 235.047 59.937C235.123 59.7324 235.116 59.5061 235.027 59.3066C234.939 59.1071 234.775 58.9505 234.572 58.8703Z" fill="#EBECED"/>
<rect x="652" y="41.1472" width="32" height="32" rx="16" fill="#334047"/>
<path d="M676.055 55.787C676.083 55.7378 676.103 55.6843 676.114 55.6287L676.739 52.2953C676.778 52.0743 676.729 51.8466 676.601 51.6622C676.472 51.4777 676.276 51.3518 676.055 51.312C675.834 51.2722 675.606 51.3219 675.422 51.45C675.238 51.5782 675.112 51.7743 675.072 51.9953L674.764 53.662C674.07 52.3953 673.033 51.3497 671.773 50.6452C670.512 49.9406 669.078 49.6057 667.636 49.6788C666.193 49.7519 664.801 50.23 663.618 51.0583C662.435 51.8867 661.509 53.0317 660.947 54.362C660.864 54.5665 660.866 54.7953 660.952 54.9983C661.038 55.2014 661.201 55.3621 661.405 55.4453C661.507 55.4875 661.616 55.509 661.726 55.5087C661.836 55.5085 661.945 55.4864 662.047 55.4438C662.148 55.4011 662.24 55.3388 662.317 55.2604C662.395 55.182 662.456 55.0891 662.497 54.987C662.946 53.8843 663.717 52.9432 664.711 52.2873C665.705 51.6314 666.873 51.2914 668.064 51.312C669.116 51.3071 670.152 51.5804 671.065 52.1043C671.978 52.6282 672.736 53.3841 673.264 54.2953L671.889 54.0703C671.779 54.0528 671.667 54.0571 671.559 54.0828C671.452 54.1085 671.35 54.1551 671.26 54.2201C671.17 54.2851 671.094 54.3672 671.036 54.4616C670.978 54.556 670.939 54.6609 670.922 54.7703C670.904 54.8798 670.909 54.9916 670.934 55.0994C670.96 55.2072 671.007 55.3089 671.072 55.3987C671.137 55.4884 671.219 55.5645 671.313 55.6226C671.408 55.6806 671.512 55.7195 671.622 55.737L675.164 56.3287H675.297C675.394 56.3298 675.49 56.3129 675.58 56.2787C675.611 56.2671 675.639 56.2502 675.664 56.2287C675.723 56.2065 675.779 56.1756 675.83 56.137L675.897 56.0537C675.94 56.0132 675.979 55.9686 676.014 55.9203C676.034 55.8782 676.048 55.8332 676.055 55.787Z" fill="#EBECED"/>
<path d="M674.572 58.8703C674.47 58.8285 674.36 58.8073 674.25 58.8082C674.139 58.809 674.03 58.8318 673.928 58.8752C673.827 58.9186 673.735 58.9818 673.658 59.0611C673.581 59.1404 673.521 59.2342 673.48 59.337C673.028 60.4281 672.259 61.3584 671.273 62.0077C670.286 62.6569 669.128 62.9952 667.947 62.9787C666.894 62.9836 665.859 62.7103 664.946 62.1864C664.032 61.6625 663.274 60.9066 662.747 59.9953L664.122 60.2203H664.255C664.476 60.238 664.695 60.1672 664.864 60.0234C665.033 59.8796 665.138 59.6747 665.155 59.4537C665.173 59.2327 665.102 59.0137 664.958 58.8449C664.814 58.6761 664.61 58.5714 664.389 58.5537L660.847 57.9787C660.756 57.9619 660.663 57.9619 660.572 57.9787H660.505C660.411 58.0038 660.321 58.0431 660.239 58.0953C660.182 58.1388 660.132 58.1892 660.089 58.2453L660.014 58.3287C659.988 58.3789 659.968 58.4321 659.955 58.487C659.926 58.5296 659.906 58.5779 659.897 58.6287L659.272 61.962C659.245 62.0728 659.241 62.1878 659.261 62.3001C659.28 62.4124 659.323 62.5194 659.385 62.6147C659.447 62.71 659.529 62.7915 659.624 62.8541C659.719 62.9167 659.826 62.9591 659.939 62.9787H660.089C660.286 62.9819 660.478 62.915 660.631 62.7898C660.783 62.6647 660.886 62.4895 660.922 62.2953L661.23 60.6287C661.923 61.8957 662.959 62.9418 664.219 63.647C665.48 64.3522 666.913 64.688 668.355 64.6158C669.798 64.5436 671.191 64.0663 672.374 63.2388C673.558 62.4113 674.484 61.2669 675.047 59.937C675.123 59.7324 675.116 59.5061 675.027 59.3066C674.939 59.1071 674.775 58.9505 674.572 58.8703Z" fill="#EBECED"/>
<rect x="1092" y="41.1472" width="32" height="32" rx="16" fill="#334047"/>
<path d="M1116.06 55.787C1116.08 55.7378 1116.1 55.6843 1116.11 55.6287L1116.74 52.2953C1116.78 52.0743 1116.73 51.8466 1116.6 51.6622C1116.47 51.4777 1116.28 51.3518 1116.06 51.312C1115.83 51.2722 1115.61 51.3219 1115.42 51.45C1115.24 51.5782 1115.11 51.7743 1115.07 51.9953L1114.76 53.662C1114.07 52.3953 1113.03 51.3497 1111.77 50.6452C1110.51 49.9406 1109.08 49.6057 1107.64 49.6788C1106.19 49.7519 1104.8 50.23 1103.62 51.0583C1102.43 51.8867 1101.51 53.0317 1100.95 54.362C1100.86 54.5665 1100.87 54.7953 1100.95 54.9983C1101.04 55.2014 1101.2 55.3621 1101.41 55.4453C1101.51 55.4875 1101.62 55.509 1101.73 55.5087C1101.84 55.5085 1101.95 55.4864 1102.05 55.4438C1102.15 55.4011 1102.24 55.3388 1102.32 55.2604C1102.39 55.182 1102.46 55.0891 1102.5 54.987C1102.95 53.8843 1103.72 52.9432 1104.71 52.2873C1105.7 51.6314 1106.87 51.2914 1108.06 51.312C1109.12 51.3071 1110.15 51.5804 1111.06 52.1043C1111.98 52.6282 1112.74 53.3841 1113.26 54.2953L1111.89 54.0703C1111.78 54.0528 1111.67 54.0571 1111.56 54.0828C1111.45 54.1085 1111.35 54.1551 1111.26 54.2201C1111.17 54.2851 1111.09 54.3672 1111.04 54.4616C1110.98 54.556 1110.94 54.6609 1110.92 54.7703C1110.9 54.8798 1110.91 54.9916 1110.93 55.0994C1110.96 55.2072 1111.01 55.3089 1111.07 55.3987C1111.14 55.4884 1111.22 55.5645 1111.31 55.6226C1111.41 55.6806 1111.51 55.7195 1111.62 55.737L1115.16 56.3287H1115.3C1115.39 56.3298 1115.49 56.3129 1115.58 56.2787C1115.61 56.2671 1115.64 56.2502 1115.66 56.2287C1115.72 56.2065 1115.78 56.1756 1115.83 56.137L1115.9 56.0537C1115.94 56.0132 1115.98 55.9686 1116.01 55.9203C1116.03 55.8782 1116.05 55.8332 1116.06 55.787Z" fill="#EBECED"/>
<path d="M1114.57 58.8703C1114.47 58.8285 1114.36 58.8073 1114.25 58.8082C1114.14 58.809 1114.03 58.8318 1113.93 58.8752C1113.83 58.9186 1113.73 58.9818 1113.66 59.0611C1113.58 59.1404 1113.52 59.2342 1113.48 59.337C1113.03 60.4281 1112.26 61.3584 1111.27 62.0077C1110.29 62.6569 1109.13 62.9952 1107.95 62.9787C1106.89 62.9836 1105.86 62.7103 1104.95 62.1864C1104.03 61.6625 1103.27 60.9066 1102.75 59.9953L1104.12 60.2203H1104.26C1104.48 60.238 1104.7 60.1672 1104.86 60.0234C1105.03 59.8796 1105.14 59.6747 1105.16 59.4537C1105.17 59.2327 1105.1 59.0137 1104.96 58.8449C1104.81 58.6761 1104.61 58.5714 1104.39 58.5537L1100.85 57.9787C1100.76 57.9619 1100.66 57.9619 1100.57 57.9787H1100.51C1100.41 58.0038 1100.32 58.0431 1100.24 58.0953C1100.18 58.1388 1100.13 58.1892 1100.09 58.2453L1100.01 58.3287C1099.99 58.3789 1099.97 58.4321 1099.96 58.487C1099.93 58.5296 1099.91 58.5779 1099.9 58.6287L1099.27 61.962C1099.25 62.0728 1099.24 62.1878 1099.26 62.3001C1099.28 62.4124 1099.32 62.5194 1099.38 62.6147C1099.45 62.71 1099.53 62.7915 1099.62 62.8541C1099.72 62.9167 1099.83 62.9591 1099.94 62.9787H1100.09C1100.29 62.9819 1100.48 62.915 1100.63 62.7898C1100.78 62.6647 1100.89 62.4895 1100.92 62.2953L1101.23 60.6287C1101.92 61.8957 1102.96 62.9418 1104.22 63.647C1105.48 64.3522 1106.91 64.688 1108.36 64.6158C1109.8 64.5436 1111.19 64.0663 1112.37 63.2388C1113.56 62.4113 1114.48 61.2669 1115.05 59.937C1115.12 59.7324 1115.12 59.5061 1115.03 59.3066C1114.94 59.1071 1114.77 58.9505 1114.57 58.8703Z" fill="#EBECED"/>
<rect x="1532" y="41.1472" width="32" height="32" rx="16" fill="#334047"/>
<path d="M1556.06 55.787C1556.08 55.7378 1556.1 55.6843 1556.11 55.6287L1556.74 52.2953C1556.78 52.0743 1556.73 51.8466 1556.6 51.6622C1556.47 51.4777 1556.28 51.3518 1556.06 51.312C1555.83 51.2722 1555.61 51.3219 1555.42 51.45C1555.24 51.5782 1555.11 51.7743 1555.07 51.9953L1554.76 53.662C1554.07 52.3953 1553.03 51.3497 1551.77 50.6452C1550.51 49.9406 1549.08 49.6057 1547.64 49.6788C1546.19 49.7519 1544.8 50.23 1543.62 51.0583C1542.43 51.8867 1541.51 53.0317 1540.95 54.362C1540.86 54.5665 1540.87 54.7953 1540.95 54.9983C1541.04 55.2014 1541.2 55.3621 1541.41 55.4453C1541.51 55.4875 1541.62 55.509 1541.73 55.5087C1541.84 55.5085 1541.95 55.4864 1542.05 55.4438C1542.15 55.4011 1542.24 55.3388 1542.32 55.2604C1542.39 55.182 1542.46 55.0891 1542.5 54.987C1542.95 53.8843 1543.72 52.9432 1544.71 52.2873C1545.7 51.6314 1546.87 51.2914 1548.06 51.312C1549.12 51.3071 1550.15 51.5804 1551.06 52.1043C1551.98 52.6282 1552.74 53.3841 1553.26 54.2953L1551.89 54.0703C1551.78 54.0528 1551.67 54.0571 1551.56 54.0828C1551.45 54.1085 1551.35 54.1551 1551.26 54.2201C1551.17 54.2851 1551.09 54.3672 1551.04 54.4616C1550.98 54.556 1550.94 54.6609 1550.92 54.7703C1550.9 54.8798 1550.91 54.9916 1550.93 55.0994C1550.96 55.2072 1551.01 55.3089 1551.07 55.3987C1551.14 55.4884 1551.22 55.5645 1551.31 55.6226C1551.41 55.6806 1551.51 55.7195 1551.62 55.737L1555.16 56.3287H1555.3C1555.39 56.3298 1555.49 56.3129 1555.58 56.2787C1555.61 56.2671 1555.64 56.2502 1555.66 56.2287C1555.72 56.2065 1555.78 56.1756 1555.83 56.137L1555.9 56.0537C1555.94 56.0132 1555.98 55.9686 1556.01 55.9203C1556.03 55.8782 1556.05 55.8332 1556.06 55.787Z" fill="#EBECED"/>
<path d="M1554.57 58.8703C1554.47 58.8285 1554.36 58.8073 1554.25 58.8082C1554.14 58.809 1554.03 58.8318 1553.93 58.8752C1553.83 58.9186 1553.73 58.9818 1553.66 59.0611C1553.58 59.1404 1553.52 59.2342 1553.48 59.337C1553.03 60.4281 1552.26 61.3584 1551.27 62.0077C1550.29 62.6569 1549.13 62.9952 1547.95 62.9787C1546.89 62.9836 1545.86 62.7103 1544.95 62.1864C1544.03 61.6625 1543.27 60.9066 1542.75 59.9953L1544.12 60.2203H1544.26C1544.48 60.238 1544.7 60.1672 1544.86 60.0234C1545.03 59.8796 1545.14 59.6747 1545.16 59.4537C1545.17 59.2327 1545.1 59.0137 1544.96 58.8449C1544.81 58.6761 1544.61 58.5714 1544.39 58.5537L1540.85 57.9787C1540.76 57.9619 1540.66 57.9619 1540.57 57.9787H1540.51C1540.41 58.0038 1540.32 58.0431 1540.24 58.0953C1540.18 58.1388 1540.13 58.1892 1540.09 58.2453L1540.01 58.3287C1539.99 58.3789 1539.97 58.4321 1539.96 58.487C1539.93 58.5296 1539.91 58.5779 1539.9 58.6287L1539.27 61.962C1539.25 62.0728 1539.24 62.1878 1539.26 62.3001C1539.28 62.4124 1539.32 62.5194 1539.38 62.6147C1539.45 62.71 1539.53 62.7915 1539.62 62.8541C1539.72 62.9167 1539.83 62.9591 1539.94 62.9787H1540.09C1540.29 62.9819 1540.48 62.915 1540.63 62.7898C1540.78 62.6647 1540.89 62.4895 1540.92 62.2953L1541.23 60.6287C1541.92 61.8957 1542.96 62.9418 1544.22 63.647C1545.48 64.3522 1546.91 64.688 1548.36 64.6158C1549.8 64.5436 1551.19 64.0663 1552.37 63.2388C1553.56 62.4113 1554.48 61.2669 1555.05 59.937C1555.12 59.7324 1555.12 59.5061 1555.03 59.3066C1554.94 59.1071 1554.77 58.9505 1554.57 58.8703Z" fill="#EBECED"/>
<defs>
<filter id="filter0_d_1267_2806" x="-395" y="47.5002" width="2195" height="21" filterUnits="userSpaceOnUse" color-interpolation-filters="sRGB">
<feFlood flood-opacity="0" result="BackgroundImageFix"/>
<feColorMatrix in="SourceAlpha" type="matrix" values="0 0 0 0 0 0 0 0 0 0 0 0 0 0 0 0 0 0 127 0" result="hardAlpha"/>
<feOffset/>
<feGaussianBlur stdDeviation="5"/>
<feComposite in2="hardAlpha" operator="out"/>
<feColorMatrix type="matrix" values="0 0 0 0 0 0 0 0 0 0.64 0 0 0 0 1 0 0 0 1 0"/>
<feBlend mode="normal" in2="BackgroundImageFix" result="effect1_dropShadow_1267_2806"/>
<feBlend mode="normal" in="SourceGraphic" in2="effect1_dropShadow_1267_2806" result="shape"/>
</filter>
<filter id="filter1_d_1267_2806" x="-217" y="46.5002" width="445" height="23" filterUnits="userSpaceOnUse" color-interpolation-filters="sRGB">
<feFlood flood-opacity="0" result="BackgroundImageFix"/>
<feColorMatrix in="SourceAlpha" type="matrix" values="0 0 0 0 0 0 0 0 0 0 0 0 0 0 0 0 0 0 127 0" result="hardAlpha"/>
<feOffset/>
<feGaussianBlur stdDeviation="5"/>
<feComposite in2="hardAlpha" operator="out"/>
<feColorMatrix type="matrix" values="0 0 0 0 0 0 0 0 0 0.64 0 0 0 0 1 0 0 0 1 0"/>
<feBlend mode="normal" in2="BackgroundImageFix" result="effect1_dropShadow_1267_2806"/>
<feBlend mode="normal" in="SourceGraphic" in2="effect1_dropShadow_1267_2806" result="shape"/>
</filter>
<filter id="filter2_d_1267_2806" x="233" y="46.5002" width="445" height="23" filterUnits="userSpaceOnUse" color-interpolation-filters="sRGB">
<feFlood flood-opacity="0" result="BackgroundImageFix"/>
<feColorMatrix in="SourceAlpha" type="matrix" values="0 0 0 0 0 0 0 0 0 0 0 0 0 0 0 0 0 0 127 0" result="hardAlpha"/>
<feOffset/>
<feGaussianBlur stdDeviation="5"/>
<feComposite in2="hardAlpha" operator="out"/>
<feColorMatrix type="matrix" values="0 0 0 0 0 0 0 0 0 0.64 0 0 0 0 1 0 0 0 1 0"/>
<feBlend mode="normal" in2="BackgroundImageFix" result="effect1_dropShadow_1267_2806"/>
<feBlend mode="normal" in="SourceGraphic" in2="effect1_dropShadow_1267_2806" result="shape"/>
</filter>
<filter id="filter3_d_1267_2806" x="677" y="46.5002" width="445" height="23" filterUnits="userSpaceOnUse" color-interpolation-filters="sRGB">
<feFlood flood-opacity="0" result="BackgroundImageFix"/>
<feColorMatrix in="SourceAlpha" type="matrix" values="0 0 0 0 0 0 0 0 0 0 0 0 0 0 0 0 0 0 127 0" result="hardAlpha"/>
<feOffset/>
<feGaussianBlur stdDeviation="5"/>
<feComposite in2="hardAlpha" operator="out"/>
<feColorMatrix type="matrix" values="0 0 0 0 0 0 0 0 0 0.64 0 0 0 0 1 0 0 0 1 0"/>
<feBlend mode="normal" in2="BackgroundImageFix" result="effect1_dropShadow_1267_2806"/>
<feBlend mode="normal" in="SourceGraphic" in2="effect1_dropShadow_1267_2806" result="shape"/>
</filter>
<filter id="filter4_d_1267_2806" x="1097" y="46.5002" width="445" height="23" filterUnits="userSpaceOnUse" color-interpolation-filters="sRGB">
<feFlood flood-opacity="0" result="BackgroundImageFix"/>
<feColorMatrix in="SourceAlpha" type="matrix" values="0 0 0 0 0 0 0 0 0 0 0 0 0 0 0 0 0 0 127 0" result="hardAlpha"/>
<feOffset/>
<feGaussianBlur stdDeviation="5"/>
<feComposite in2="hardAlpha" operator="out"/>
<feColorMatrix type="matrix" values="0 0 0 0 0 0 0 0 0 0.64 0 0 0 0 1 0 0 0 1 0"/>
<feBlend mode="normal" in2="BackgroundImageFix" result="effect1_dropShadow_1267_2806"/>
<feBlend mode="normal" in="SourceGraphic" in2="effect1_dropShadow_1267_2806" result="shape"/>
</filter>
</defs>
</svg>
