<svg width="868" height="609" viewBox="0 0 868 609" fill="none" xmlns="http://www.w3.org/2000/svg">
<path d="M809.913 591.524C816.886 598.111 823.206 603.908 830.833 606.279C830.179 606.279 830.397 606.279 830.833 606.279C831.05 606.279 831.268 606.542 831.486 606.542C835.191 606.806 838.895 606.806 842.818 607.069C842.818 607.069 842.6 606.806 842.382 606.806C839.767 605.225 836.934 603.644 834.537 602.063C830.833 599.428 827.346 596.003 823.641 593.105C818.194 588.626 811.438 582.565 805.773 577.032C802.94 574.134 800.107 571.236 797.274 568.337C795.966 567.02 794.877 565.439 793.569 564.121C793.134 563.858 792.698 564.648 793.134 564.912C800.107 572.289 807.298 579.404 814.489 586.781C818.629 590.997 822.552 595.213 826.692 599.428C820.809 595.213 814.053 589.679 810.349 585.991C803.376 579.667 797.056 573.87 790.083 566.756C785.507 561.75 781.148 556.48 776.572 551.474C776.354 550.947 775.701 551.738 776.136 552.001C787.468 564.385 798.146 578.613 809.913 591.524Z" fill="#1C2327"/>
<path d="M834.537 594.422C838.677 598.374 843.689 602.854 848.919 607.069C843.035 604.171 835.626 598.638 829.307 593.895C826.91 592.051 824.73 590.206 822.551 588.098C822.115 587.835 821.898 588.625 822.115 588.889C829.742 594.949 835.626 601.536 843.035 607.333C847.611 607.596 851.97 607.86 856.546 608.123C849.79 603.381 843.035 598.638 836.716 593.105C829.525 587.045 821.898 581.248 815.142 574.661C811.002 570.709 806.862 566.756 802.503 563.067C802.285 562.804 801.85 563.331 802.285 563.594C813.399 573.343 824.077 584.41 834.537 594.422Z" fill="#1C2327"/>
<path d="M774.829 603.381C777.008 603.644 778.969 603.908 781.148 604.171C778.098 601.537 775.483 598.902 772.65 596.003C766.112 589.68 759.139 582.829 752.384 575.452C748.026 570.709 743.667 565.703 739.527 560.696C739.309 560.433 739.309 560.169 739.091 560.169C738.873 560.169 738.873 560.433 738.873 560.696C751.948 576.242 763.062 590.997 774.829 603.381Z" fill="#1C2327"/>
<path d="M760.882 603.118C760.228 602.854 760.228 602.854 760.882 603.118C761.318 603.381 762.407 603.908 761.318 603.381C761.536 603.381 761.536 603.645 761.754 603.645C762.843 603.381 763.933 603.118 765.022 603.118C765.24 602.854 765.24 602.591 765.24 602.327C765.458 602.591 765.676 602.854 765.894 603.118C768.509 602.854 771.342 603.118 773.957 603.381C769.163 599.429 764.587 594.95 760.01 590.207C746.064 575.452 732.553 560.17 719.478 544.361C714.466 538.564 709.89 532.24 705.096 526.18C704.878 525.917 704.878 525.653 704.442 525.653C704.225 525.653 704.007 526.18 704.225 526.444C712.287 536.719 719.261 547.786 727.541 558.062C736.912 569.919 746.064 582.302 756.306 593.369C751.076 588.889 745.846 583.093 739.744 576.242C727.759 563.068 716.21 549.103 705.314 534.612C698.995 526.444 693.329 518.012 687.663 509.317C687.227 508.79 686.792 507.736 686.138 507.473C685.702 507.473 685.484 508.263 685.702 508.527C693.765 519.593 701.174 531.45 709.237 542.516C717.081 553.319 725.58 563.858 733.643 574.398C741.052 583.62 748.243 593.369 757.177 600.483C758.485 601.537 759.574 602.591 760.882 603.118Z" fill="#1C2327"/>
<path d="M701.392 520.383C699.431 517.485 697.687 514.323 695.508 511.688C695.072 511.425 694.419 512.215 694.854 512.742C697.034 515.64 698.995 518.275 701.174 521.174C701.174 521.174 701.392 521.437 701.61 521.437C702.046 520.91 701.61 520.647 701.392 520.383Z" fill="#1C2327"/>
<path d="M798.145 605.753C802.286 605.753 806.644 606.016 810.784 606.016C810.567 606.016 810.567 605.753 810.349 605.753C794.223 592.578 783.109 581.249 768.291 567.02C759.139 557.798 750.423 548.049 741.924 538.037C739.963 535.666 738.001 533.294 736.04 531.186C735.604 530.923 735.169 531.713 735.604 531.977C751.512 551.211 768.073 569.919 785.289 587.836C786.378 588.89 787.468 590.207 788.775 591.261C783.327 586.255 778.097 580.985 771.56 574.398C757.178 559.643 742.796 544.624 729.285 528.815C722.748 520.91 714.685 512.215 709.237 504.574C709.019 504.311 709.019 504.311 708.801 504.047C708.583 503.784 708.583 503.521 708.147 503.521C707.712 503.521 707.276 504.311 707.712 504.574C725.145 525.39 743.885 549.103 762.408 570.182C772.868 582.566 785.289 596.004 798.145 605.753Z" fill="#1C2327"/>
<path d="M722.965 516.695C722.529 516.168 722.093 515.377 721.44 515.114C721.222 515.114 721.004 515.641 721.222 515.904C724.708 520.12 728.195 524.336 731.9 528.288C732.118 528.552 732.335 528.025 732.335 527.761C729.503 523.809 726.234 520.383 722.965 516.695Z" fill="#1C2327"/>
<path d="M816.014 604.698C816.45 605.225 817.104 605.489 817.54 606.016C818.629 606.016 819.719 606.016 821.026 606.016C819.937 605.225 819.065 604.435 817.975 603.644C812.31 599.165 805.99 594.422 800.978 589.68C798.145 587.045 795.312 584.41 792.48 582.039C792.262 582.039 792.044 582.302 792.262 582.566C800.107 590.47 808.169 597.321 816.014 604.698Z" fill="#1C2327"/>
<path d="M802.286 596.53C805.772 599.691 809.041 602.853 812.31 606.015C813.835 606.015 815.36 606.015 816.886 606.015C814.271 604.434 811.656 602.326 809.041 600.218C799.671 592.841 790.736 584.146 782.02 575.451C779.841 573.343 777.444 571.235 775.482 568.864C775.482 568.864 775.264 568.6 775.046 568.864C774.829 568.864 774.829 569.391 775.046 569.391C783.763 579.14 793.133 587.835 802.286 596.53Z" fill="#1C2327"/>
<path d="M625.558 504.837C626.43 504.574 627.301 504.047 628.173 504.047C628.391 504.047 628.609 504.047 628.609 504.047C620.11 491.663 612.265 479.806 603.985 467.159C600.498 461.889 597.447 456.356 594.179 451.086C593.743 450.559 593.307 449.505 592.653 449.242C592.217 449.242 591.999 450.032 592.217 450.296C603.331 467.949 614.009 486.92 625.558 504.837Z" fill="#1C2327"/>
<path d="M625.34 504.837C610.74 484.021 596.575 462.942 583.282 441.073C573.476 425.001 564.324 408.665 555.39 392.065C552.557 386.795 549.724 381.262 546.891 375.992C546.455 375.202 546.019 374.148 545.366 373.621C544.93 373.621 544.712 373.885 544.93 374.412C556.697 395.754 567.811 417.623 580.014 438.438C593.96 461.889 607.907 484.548 622.507 506.681C623.378 505.891 624.468 505.364 625.34 504.837Z" fill="#1C2327"/>
<path d="M617.931 510.37C619.02 509.316 620.328 508.262 621.417 507.208C617.931 502.202 614.662 497.459 611.393 492.19C600.716 475.327 584.372 448.715 570.644 426.582C567.375 421.049 564.106 415.515 561.056 409.719C560.838 409.192 560.184 409.719 560.402 410.246C568.682 425.528 577.399 440.283 585.68 455.302C594.396 471.374 603.331 487.447 612.919 502.729C614.662 505.364 616.188 507.999 617.931 510.37Z" fill="#1C2327"/>
<path d="M578.271 447.397C577.182 445.289 575.874 443.181 574.567 441.073C574.131 440.546 573.477 441.337 573.695 441.864C575.003 443.972 576.092 446.079 577.4 448.187C577.836 448.451 578.489 447.924 578.271 447.397Z" fill="#1C2327"/>
<path d="M616.624 511.687C614.227 507.999 611.83 504.31 609.651 500.885C602.895 490.609 594.179 476.117 587.423 463.997C585.68 461.098 584.155 457.673 582.194 454.775C581.758 454.248 580.886 455.038 581.322 455.829C591.782 475.59 602.895 495.088 614.663 514.059C615.316 513.268 615.97 512.478 616.624 511.687Z" fill="#1C2327"/>
<path d="M678.511 526.97C686.138 537.246 694.419 546.731 702.481 556.48C703.353 557.007 704.007 557.27 704.879 557.797C710.544 561.75 715.992 566.756 721.658 571.499C709.673 558.588 697.687 545.677 686.574 531.712C676.986 519.592 667.18 507.999 658.027 495.615C653.233 489.291 648.657 482.704 643.863 476.117C643.645 475.854 643.427 475.854 643.209 476.117C642.991 476.381 642.991 476.644 643.209 476.908C655.194 493.507 667.615 511.424 678.511 526.97Z" fill="#1C2327"/>
<path d="M690.932 551.474C694.419 553.055 698.123 554.372 701.61 556.216C683.523 536.455 663.257 511.687 648.003 489.291C636.672 472.692 625.994 455.829 615.316 438.438C612.483 433.696 609.432 428.69 606.6 423.683C605.946 422.366 605.292 421.048 604.42 419.995C604.42 419.995 604.203 419.731 603.985 419.995C603.767 419.995 603.549 420.522 603.549 420.785C621.854 453.984 641.248 484.812 662.385 514.849C671.538 526.969 681.126 539.88 690.932 551.474Z" fill="#1C2327"/>
<path d="M670.013 533.293C661.95 522.753 654.105 512.214 646.478 501.148C644.081 497.986 641.902 494.561 639.723 491.399C639.505 491.135 639.287 491.135 639.069 491.399C638.851 491.662 638.851 491.926 639.069 492.189C647.132 503.519 653.887 515.639 661.95 526.969C663.693 529.604 665.654 531.975 667.398 534.61C671.102 537.772 674.807 540.934 678.511 543.832C675.678 540.407 672.846 536.982 670.013 533.293Z" fill="#1C2327"/>
<path d="M679.818 543.569C680.472 544.36 681.125 545.15 681.779 546.204C682.433 546.731 683.086 547.258 683.74 547.522C685.701 548.839 687.881 549.893 690.06 550.947C681.779 541.461 673.716 531.449 666.089 521.173C658.68 511.161 651.053 501.148 643.862 490.609C640.811 486.393 637.979 482.177 635.146 477.961C634.928 477.698 634.492 478.225 634.71 478.488C649.31 500.885 663.474 522.754 679.818 543.569Z" fill="#1C2327"/>
<path d="M600.933 412.881C588.948 393.383 578.924 373.095 568.246 353.07C573.258 361.501 578.488 370.196 583.718 378.628C585.897 382.58 588.077 386.532 590.256 390.748C590.691 391.539 591.127 392.856 591.781 393.383C592.217 393.646 592.435 392.856 592.217 392.592C581.321 373.622 570.426 350.435 559.966 333.308C559.312 331.991 557.569 332.254 557.351 333.835C555.607 330.937 553.864 328.039 552.121 325.14C550.595 323.032 549.942 321.188 548.198 319.871C547.109 319.607 546.237 321.188 546.891 321.978C548.634 325.667 551.031 329.093 552.993 332.518C556.915 339.105 560.837 345.692 564.76 352.279C573.694 367.298 582.411 381.79 591.345 397.335C593.524 401.024 595.921 404.976 597.883 408.665C598.754 410.246 599.408 412.09 600.498 413.144C600.933 413.671 601.151 413.144 600.933 412.881Z" fill="#1C2327"/>
<path d="M585.026 372.567C580.667 365.19 576.527 357.549 573.04 349.908C570.861 345.165 568.682 340.686 566.067 336.47C565.413 335.943 564.978 335.416 564.542 334.625C564.106 334.625 563.67 335.152 563.67 335.679C563.888 336.733 564.542 337.524 564.978 338.578C567.157 342.53 569.772 347.009 571.951 350.698C576.309 357.812 579.796 365.19 583.718 372.304C583.936 372.567 584.154 373.094 584.372 373.358C585.026 373.358 585.244 372.831 585.026 372.567Z" fill="#1C2327"/>
<path d="M577.835 351.753C575.22 347.274 573.259 342.268 570.862 337.788C569.99 338.052 568.901 338.052 568.029 337.788C567.811 337.788 567.811 337.788 567.593 337.525C569.99 341.477 572.605 344.902 575.438 349.382C576.092 350.436 576.528 351.753 577.399 352.544C577.835 352.28 578.053 352.017 577.835 351.753Z" fill="#1C2327"/>
<path d="M634.056 435.804C620.763 414.989 610.304 392.065 597.447 370.987C596.357 369.406 595.703 367.561 594.614 367.034C593.96 366.771 593.306 367.298 593.088 368.088C593.088 368.615 593.088 368.879 593.306 369.406C594.396 371.777 595.703 373.885 597.011 375.993C605.509 390.485 613.79 404.186 622.289 418.15C625.993 423.947 629.48 430.007 633.184 435.804C633.402 436.067 633.402 436.331 633.838 436.594C634.274 436.331 634.274 436.067 634.056 435.804Z" fill="#1C2327"/>
<path d="M587.205 441.601C586.987 441.337 586.987 440.81 586.551 440.81C586.333 440.81 585.898 441.074 586.116 441.601C586.769 442.654 587.423 443.972 588.077 445.026C588.295 445.289 588.73 445.026 588.73 444.762C588.513 443.181 587.859 442.391 587.205 441.601Z" fill="#1C2327"/>
<path d="M634.71 505.1C629.481 497.986 624.033 490.872 619.239 483.231C616.188 478.752 613.355 474.272 610.74 469.53C609.868 468.476 608.997 466.368 608.125 465.841C607.689 465.841 607.471 466.631 607.689 466.895C615.752 479.279 623.379 491.662 631.224 503.783C632.313 504.046 633.621 504.573 634.71 505.1Z" fill="#1C2327"/>
<path d="M655.412 523.281C657.155 524.862 658.899 526.706 660.642 528.287C654.323 519.592 648.221 510.37 641.902 501.675C641.466 501.148 641.248 500.358 640.594 500.358C640.158 500.358 639.94 501.148 640.158 501.412C645.606 508.789 650.4 515.904 655.412 523.281Z" fill="#1C2327"/>
<path d="M644.08 512.216C644.08 512.479 644.08 512.479 644.08 512.216C647.567 515.377 650.836 518.803 654.104 521.965C651.489 518.803 648.874 515.377 646.477 512.216C637.979 501.149 629.48 490.346 621.635 478.49C621.417 477.963 621.199 477.699 620.764 477.172C620.546 476.909 620.328 476.382 619.892 476.118C619.674 476.118 619.456 476.645 619.674 476.909C627.301 488.765 636.671 501.413 644.08 512.216Z" fill="#1C2327"/>
<path d="M548.853 348.327C537.085 328.566 527.497 307.487 517.909 286.145C515.512 280.612 513.551 275.869 511.372 271.126C510.936 270.863 510.5 270.599 510.282 270.336C508.103 268.755 505.488 266.12 502.873 265.066C502.001 264.803 501.13 264.803 500.258 264.803C499.822 265.593 499.168 266.647 498.515 267.174L498.297 267.438C498.297 267.701 498.515 267.701 498.515 267.965H498.297C498.079 267.965 498.079 267.965 497.861 267.965C497.425 269.018 496.771 269.545 496.118 270.072C495.9 271.39 495.9 272.707 496.553 274.025C501.565 286.935 507.885 299.056 514.204 311.176C521.396 324.087 527.933 338.579 535.124 352.543C537.303 356.759 539.482 360.975 541.879 365.191C542.097 365.718 543.187 365.191 542.751 364.664C533.599 349.118 525.972 331.991 518.563 315.128C513.769 303.008 507.667 288.253 502.001 275.079C504.18 279.294 506.142 283.51 508.103 287.726C515.076 301.954 521.396 316.709 528.587 330.674C530.33 333.836 531.855 337.261 533.599 340.423C534.035 340.95 534.688 340.159 534.47 339.632C528.369 328.83 523.793 317.236 518.563 305.906C513.769 295.104 509.41 283.774 504.834 272.707C505.924 274.552 506.795 276.66 508.103 278.767C512.897 288.516 517.909 298.002 522.703 307.751C524.011 310.386 525.318 313.284 526.843 315.655C527.061 315.919 527.715 315.392 527.497 315.128C521.178 303.272 515.73 290.624 510.5 277.977C510.282 277.45 510.064 276.923 509.846 276.396C517.255 290.361 524.882 305.379 532.509 320.135C537.303 329.093 542.315 338.052 547.327 346.747C547.763 347.274 547.981 348.064 548.417 348.591C548.635 348.854 549.071 348.591 548.853 348.327Z" fill="#1C2327"/>
<path d="M547.763 328.039C541.88 314.865 534.471 302.481 528.369 289.307C526.626 285.618 524.882 281.929 523.357 278.241C520.306 276.66 517.037 274.815 514.205 272.708C515.948 275.869 517.691 279.031 519.435 282.193C525.536 293.523 531.42 304.853 537.086 316.183C538.393 318.817 539.7 321.716 541.226 324.087C541.662 324.351 542.097 323.824 541.88 323.56C534.688 310.386 528.151 296.421 522.049 282.456C521.614 281.403 521.178 280.349 520.742 279.295C522.921 282.983 525.1 286.936 527.279 290.888C532.945 301.164 538.829 311.44 544.059 322.243C545.148 324.351 546.02 326.458 547.109 328.303C547.545 328.83 547.981 328.566 547.763 328.039Z" fill="#1C2327"/>
<path d="M834.319 584.673C843.907 593.368 853.931 601.536 864.391 608.65C865.263 608.65 866.352 608.65 867.224 608.914C860.033 604.434 852.624 599.428 846.304 594.422C842.164 591.26 838.459 587.835 834.537 584.146C834.319 583.883 833.883 584.41 834.319 584.673Z" fill="#1C2327"/>
<path d="M857.199 608.124C859.378 608.387 861.34 608.387 863.519 608.651C863.737 608.651 863.955 608.651 864.172 608.651C858.943 605.226 853.713 601.8 848.701 597.848C840.638 591.788 832.793 585.728 825.384 578.877C823.423 577.296 821.679 575.188 819.718 573.607C819.282 573.607 819.064 574.398 819.5 574.661C831.485 584.674 844.124 597.848 857.199 608.124Z" fill="#1C2327"/>
<path d="M673.063 600.483C676.332 600.483 679.6 600.483 682.869 600.746C673.499 585.728 662.385 569.392 652.797 554.373C647.785 546.469 642.337 538.827 637.325 530.923C636.236 529.342 635.146 527.498 633.839 525.917C633.403 525.653 633.185 526.444 633.403 526.707C640.812 537.247 647.131 549.103 654.105 560.433C661.732 572.817 668.705 585.201 675.896 597.848C672.627 592.842 669.358 588.099 666.09 582.829C655.194 565.703 645.17 549.367 633.839 532.24C631.006 527.761 628.173 523.282 625.34 518.803C625.122 518.539 624.686 518.539 624.468 518.803C624.25 519.066 624.25 519.593 624.468 519.593C641.466 545.942 656.937 573.607 673.063 600.483Z" fill="#1C2327"/>
<path d="M647.785 536.718C647.131 535.928 646.041 536.982 646.477 538.036C647.131 539.09 648.221 540.671 648.438 541.198C648.874 541.725 649.746 541.198 649.746 540.407C649.31 539.09 648.439 538.036 647.785 536.718Z" fill="#1C2327"/>
<path d="M686.573 601.01C688.535 601.01 690.496 601.273 692.457 601.273C682.651 588.099 673.063 574.397 663.692 560.96C661.078 557.271 657.591 551.474 654.322 547.522C654.104 547.259 653.886 546.995 653.669 547.259C653.451 547.522 653.233 548.049 653.451 548.313C664.782 565.703 674.806 583.62 686.573 601.01Z" fill="#1C2327"/>
<path d="M696.38 601.273C698.123 601.273 700.084 601.537 701.828 601.537C698.123 597.321 694.419 593.105 690.714 588.626C685.048 581.512 679.165 574.661 673.717 567.284C671.974 564.912 670.448 562.541 668.705 560.169C668.487 559.906 668.051 560.433 668.487 560.696C678.511 574.661 686.574 588.362 696.38 601.273Z" fill="#1C2327"/>
<path d="M684.829 572.29C683.74 570.445 682.432 568.865 681.125 567.284C680.471 566.493 679.6 567.811 680.253 568.338C681.561 569.918 682.65 571.499 684.176 573.08C684.394 573.344 684.829 573.344 685.047 573.08C685.047 572.817 684.829 572.29 684.829 572.29Z" fill="#1C2327"/>
<path d="M705.968 602.064C707.493 602.064 709.236 602.327 710.762 602.327C709.454 601.01 708.147 599.692 707.057 598.375C702.045 593.105 697.251 587.309 692.457 581.512C691.15 579.931 689.842 578.087 688.971 576.769C688.317 576.242 687.445 577.033 687.881 577.823C693.329 585.991 699.43 594.423 705.968 602.064Z" fill="#1C2327"/>
<path d="M720.786 602.854C721.875 602.854 722.747 602.854 723.836 603.118C722.311 601.8 720.786 600.219 719.478 598.902C711.197 590.997 703.353 582.302 695.726 573.344C693.329 570.445 690.932 567.284 688.535 564.385C688.317 564.122 687.881 564.649 688.099 564.912C698.123 578.35 709.018 591.261 720.786 602.854Z" fill="#1C2327"/>
<path d="M721.439 597.846C723.182 599.427 725.143 601.272 727.105 603.116C728.848 603.116 730.809 603.38 732.552 603.38C726.669 598.9 720.785 593.894 716.863 590.205C710.761 584.672 705.313 578.875 699.866 572.552C699.43 572.288 699.212 571.498 698.776 571.234C698.558 571.234 698.34 571.761 698.558 572.025C706.185 580.72 713.158 590.205 721.439 597.846Z" fill="#1C2327"/>
<path d="M736.257 603.381C738.654 603.381 741.269 603.644 743.666 603.644C735.603 598.638 727.758 593.368 720.785 587.308C718.388 585.2 715.555 582.565 712.94 579.931C712.069 579.14 711.197 577.559 710.107 577.032C709.672 577.032 709.236 577.823 709.671 578.086C719.042 587.308 727.322 596.53 736.257 603.381Z" fill="#1C2327"/>
<path d="M739.744 598.901C741.705 600.482 743.885 602.063 746.064 603.644C747.371 603.644 748.897 603.644 750.204 603.907C745.41 601.009 740.834 597.847 736.04 594.158C733.207 592.05 730.592 589.942 727.977 587.571C727.759 587.308 727.759 587.308 727.541 587.308C727.323 587.308 727.105 587.571 727.323 587.835C731.028 592.05 735.386 595.476 739.744 598.901Z" fill="#1C2327"/>
<path d="M637.107 601.8C638.632 601.536 639.94 601.537 641.465 601.537C631.877 587.045 623.161 573.607 612.701 557.271C594.832 529.869 577.399 501.676 559.312 474.537C558.004 472.429 556.697 470.584 555.39 468.213C554.736 467.159 554.082 465.842 553.428 465.051C553.21 465.051 552.775 465.315 552.992 465.578C578.053 505.628 603.548 545.678 627.737 586.518C631.005 592.051 634.056 596.794 637.107 601.8Z" fill="#1C2327"/>
<path d="M642.337 601.535C644.299 601.272 646.042 601.272 648.003 601.272C642.119 592.05 636.018 582.301 631.224 574.66C620.982 559.114 608.561 543.042 597.665 526.179C590.038 514.322 581.54 502.202 573.695 490.081C572.605 488.237 571.298 486.656 570.208 484.548C569.99 484.285 569.554 484.548 569.772 484.812C575.656 495.614 582.629 505.627 588.949 515.903C603.113 539.353 616.406 558.587 630.788 583.092C634.71 589.152 638.415 595.212 642.337 601.535Z" fill="#1C2327"/>
<path d="M650.617 601.009C652.36 601.009 654.104 600.746 655.847 600.746C648.656 589.943 641.247 579.404 633.402 569.128C623.16 554.899 613.354 540.671 603.33 526.18C601.151 523.018 599.19 519.856 597.011 516.694C596.793 516.431 596.575 516.431 596.357 516.431C596.139 516.694 596.139 516.958 596.357 517.221C608.778 535.402 621.853 555.163 633.402 573.08C639.068 582.565 644.733 591.787 650.617 601.009Z" fill="#1C2327"/>
<path d="M660.859 600.483C661.513 600.483 662.385 600.483 663.038 600.483C658.68 594.423 654.104 588.362 649.964 582.566C646.041 577.033 642.554 571.499 638.85 565.703C638.632 565.176 637.978 565.703 638.196 566.23C645.605 578.086 653.232 589.416 660.859 600.483Z" fill="#1C2327"/>
<path d="M636.018 602.063C626.648 587.571 616.841 572.816 607.253 557.797C602.023 549.629 597.011 541.461 591.781 533.557C591.563 533.03 590.692 533.557 591.128 534.084C599.844 547.258 608.561 560.696 617.059 574.397C622.725 583.619 628.173 592.841 633.621 602.326C634.274 602.063 635.146 602.063 636.018 602.063Z" fill="#1C2327"/>
<path d="M630.788 602.59C628.391 598.637 625.994 594.685 623.597 590.469C619.021 582.828 614.444 575.187 609.65 567.81C609.214 567.283 608.561 565.965 608.125 565.965C607.907 565.965 607.907 566.229 608.125 566.492C615.752 578.086 622.943 590.469 630.134 602.853C630.134 602.59 630.352 602.59 630.788 602.59Z" fill="#1C2327"/>
<path d="M498.078 412.091C486.093 428.69 473.672 445.026 461.251 461.099C450.137 475.591 439.024 490.346 427.474 504.574C425.077 507.472 422.68 510.371 420.283 513.269C428.128 503.257 435.973 492.981 443.6 482.705C454.278 468.213 464.52 453.194 474.98 438.703C481.517 429.481 488.272 420.522 495.245 411.3C495.463 410.773 496.117 410.51 496.117 409.983C496.117 409.456 495.463 409.192 495.245 409.456C488.054 419.732 480.427 429.217 473.018 439.23C463.43 452.404 454.06 465.578 443.818 477.962C426.385 498.514 409.606 519.593 392.39 540.408C373.432 562.541 355.127 585.2 337.041 608.387C338.784 608.387 340.527 608.651 342.27 608.651C342.706 608.651 342.924 608.651 343.36 608.651C349.68 600.746 355.781 592.841 362.101 585.2C369.51 575.978 377.137 566.756 384.764 557.798C371.471 574.661 358.178 591.788 345.539 608.651L352.077 608.387C364.933 591.524 377.79 574.661 390.865 558.061C404.158 541.198 417.668 524.862 430.525 507.472C444.036 489.555 456.893 471.111 469.968 452.931C479.12 440.547 488.054 427.9 496.989 415.516C497.643 414.462 498.514 413.672 498.95 412.618C499.168 412.091 498.296 411.827 498.078 412.091Z" fill="#1C2327"/>
<path d="M496.553 400.76C483.478 419.204 469.314 436.331 455.367 453.721C447.087 464.26 439.024 474.8 430.743 485.075C419.848 497.986 408.08 512.741 396.313 526.97C378.444 548.312 360.357 569.127 342.706 590.469C355.999 573.079 369.074 555.426 382.802 538.563C393.48 525.125 403.722 511.424 414.618 498.25C417.886 494.034 421.373 490.082 424.642 486.129C424.86 485.866 424.86 485.075 424.642 484.812C424.424 484.548 423.77 484.548 423.552 484.812C410.477 500.358 398.056 516.43 384.764 531.976C379.316 538.299 373.868 544.887 368.202 551.21C374.74 542.515 381.495 534.084 388.032 525.389C395.441 515.903 403.068 506.681 410.477 497.196C412.439 494.824 414.618 492.453 416.361 489.818C416.579 489.291 415.925 488.764 415.489 489.291C392.173 517.221 368.42 544.36 345.103 572.025C349.026 567.019 352.948 562.013 357.089 557.007C369.51 541.461 381.713 525.652 394.352 510.633C399.8 504.046 405.683 497.723 410.913 490.872C411.131 490.609 411.567 490.082 411.349 489.818C411.349 489.291 410.695 489.291 410.477 489.555C401.325 501.675 391.083 512.478 381.495 524.071C365.805 542.252 350.115 560.696 334.426 578.876C329.414 584.673 324.837 590.733 320.043 596.53C333.336 579.403 346.847 562.54 360.357 545.677C372.56 531.185 384.764 516.957 396.967 502.729C400.235 499.04 403.722 495.351 406.991 491.663C407.209 491.399 407.644 490.872 407.426 490.345C407.209 489.818 406.555 489.555 406.337 490.082C381.277 519.855 354.256 547.258 329.631 577.559C321.787 587.044 313.506 597.057 305.443 607.069C307.186 607.069 308.712 607.069 310.455 607.069C314.595 607.069 318.736 607.069 322.876 607.332C323.966 606.015 325.055 604.434 326.145 603.117C327.017 601.799 328.106 600.745 328.978 599.428C327.017 602.063 325.055 604.698 322.876 607.332C326.799 607.332 330.721 607.596 334.644 607.596C356.871 578.876 381.059 552.264 404.158 524.335C427.257 496.142 446.651 469.003 467.135 441.073C476.069 429.217 485.004 417.096 493.938 404.976C494.81 403.659 495.899 402.605 496.771 401.287C496.989 401.024 496.989 401.024 496.989 400.76C497.643 400.497 496.771 399.97 496.553 400.76Z" fill="#1C2327"/>
<path d="M305.007 607.596C316.339 593.368 327.67 579.93 339.002 565.966C349.026 553.582 359.05 540.935 369.292 529.078C378.88 517.748 388.904 507.472 398.71 496.669C400.017 495.088 401.325 493.771 402.632 492.19C402.85 491.926 402.85 491.926 402.85 491.663C402.85 490.873 401.979 490.609 401.543 491.136C391.955 502.993 381.277 513.532 371.035 524.862C360.793 536.455 349.897 547.785 339.438 559.115C345.975 550.947 352.948 542.779 359.921 534.611C368.856 524.072 377.79 513.796 387.161 503.783C390.211 500.621 393.262 497.46 396.095 493.771C396.313 493.507 396.313 493.244 396.095 492.98C395.877 492.717 395.659 492.717 395.441 492.98C376.701 513.269 357.524 533.294 338.784 553.845C341.617 550.157 344.667 546.731 347.718 543.043C357.742 531.449 367.766 519.856 377.572 508.262C379.751 505.628 382.149 503.256 384.11 500.358C384.328 499.567 383.456 498.777 383.02 499.568C374.522 510.37 364.715 519.856 355.563 529.868C343.36 543.043 331.375 556.217 319.825 569.918C309.366 582.302 298.688 594.949 288.01 607.86C293.676 607.86 299.342 607.596 305.007 607.596Z" fill="#1C2327"/>
<path d="M390.865 491.4C390.211 492.19 389.34 492.981 388.686 494.035C388.468 494.298 388.468 495.089 388.686 495.352C389.34 496.143 389.993 495.352 390.429 494.825C391.083 494.035 391.955 493.508 392.39 492.717C392.826 491.663 391.519 490.61 390.865 491.4Z" fill="#1C2327"/>
<path d="M285.613 607.86C298.034 593.105 309.802 579.404 322.223 564.912C337.694 546.731 353.602 529.078 369.292 511.424C374.74 505.101 380.405 499.304 385.635 492.981C385.853 492.454 386.507 492.19 386.507 491.663C386.507 491.136 386.071 490.873 385.635 491.136C371.689 505.891 357.742 520.646 343.796 535.665C347.283 531.449 350.987 527.234 354.474 523.018C359.486 516.958 364.716 511.161 369.728 505.101C369.946 504.837 370.164 504.574 370.164 504.31C370.164 503.783 369.728 503.783 369.51 504.047C354.91 519.592 340.092 535.138 325.491 551.211C330.721 545.151 335.733 539.09 340.745 533.03C344.014 529.078 347.501 525.126 350.769 521.437C350.987 521.173 350.987 520.383 350.769 520.119C350.551 519.856 349.898 519.856 349.68 520.119C323.312 546.995 298.47 577.559 274.282 608.387C278.422 607.86 281.909 607.86 285.613 607.86Z" fill="#1C2327"/>
<path d="M380.841 492.19C379.098 494.298 377.137 496.142 375.393 498.513C375.175 498.777 375.175 499.304 375.611 499.567C376.047 499.831 376.265 499.567 376.701 499.04C378.444 497.196 380.405 495.351 381.931 493.244C382.367 492.453 381.495 491.399 380.841 492.19Z" fill="#1C2327"/>
<path d="M364.498 502.729C360.793 506.945 356.871 510.897 353.384 515.376C353.166 516.43 354.038 516.167 354.474 515.64C358.396 511.951 362.319 507.999 365.805 503.519C366.023 502.992 364.934 502.202 364.498 502.729Z" fill="#1C2327"/>
<path d="M271.449 607.86C276.679 602.063 281.908 596.003 287.138 589.943C296.509 578.613 305.661 567.019 315.031 555.426C320.697 548.576 326.581 541.988 332.682 535.401C333.772 534.084 335.079 533.293 335.733 531.712C335.733 531.449 335.297 531.185 335.079 531.449C324.184 542.779 313.07 553.845 302.392 565.439C301.956 565.966 301.521 566.492 301.085 567.019C303.264 564.385 305.443 561.486 307.622 558.851C309.366 556.744 310.891 554.899 312.634 552.791C312.852 552.528 312.852 552.264 312.852 552.264C312.852 551.474 311.98 550.947 311.545 551.737C295.201 570.708 278.64 589.416 262.078 607.86C265.129 607.86 268.398 607.86 271.449 607.86Z" fill="#1C2327"/>
<path d="M259.245 607.86C260.117 607.86 261.207 607.86 262.078 607.86C263.386 606.279 264.911 604.698 266.219 602.853C275.589 591.787 284.523 580.194 293.894 569.127C296.726 565.702 299.777 562.54 302.61 559.378C302.828 559.115 303.264 558.851 303.264 558.588C303.264 558.061 302.828 557.797 302.392 558.061C291.279 570.181 280.165 582.302 268.834 594.422C271.666 590.997 274.499 587.308 277.332 583.882C283.434 576.505 289.099 568.864 295.419 562.013C296.073 561.223 296.726 560.696 297.162 559.905V559.642C297.162 559.378 296.726 559.378 296.726 559.642C281.908 575.451 267.526 591.523 253.144 607.596C255.105 607.86 257.066 607.86 259.245 607.86Z" fill="#1C2327"/>
<path d="M252.054 607.597C258.156 600.219 264.476 592.842 270.795 585.727C276.243 579.404 281.473 573.344 286.921 567.02C287.138 566.493 287.792 566.23 287.792 565.703C287.792 565.176 287.138 564.912 286.921 565.176C274.5 579.667 261.425 593.369 248.568 607.333C249.657 607.597 250.747 607.597 252.054 607.597Z" fill="#1C2327"/>
<path d="M248.132 607.596C256.195 598.111 264.258 588.625 272.539 579.403C274.718 577.032 276.897 574.397 278.858 571.762C279.076 571.235 278.422 570.708 278.204 571.235C267.309 583.092 256.631 595.476 245.953 607.333C246.825 607.596 247.479 607.596 248.132 607.596Z" fill="#1C2327"/>
<path d="M245.081 607.596C250.747 601.009 256.413 594.422 262.078 587.835C265.565 583.619 269.27 579.667 272.538 575.451C272.974 574.924 273.41 574.397 273.628 573.87C273.628 573.343 273.192 573.08 272.756 573.343C262.514 585.2 252.054 596.266 241.377 607.596C242.684 607.596 243.774 607.596 245.081 607.596Z" fill="#1C2327"/>
<path d="M241.159 607.597C246.389 601.8 251.836 596.003 257.066 590.207C260.335 586.518 263.386 582.829 266.437 579.14C266.872 578.613 266.219 577.56 265.565 578.086C259.028 584.937 252.49 591.788 245.735 598.638C247.914 596.267 249.875 593.632 252.054 591.261C254.451 588.626 256.631 585.991 258.81 583.093C259.246 582.566 258.592 581.775 258.156 582.302C250.311 591.261 242.466 599.429 234.621 607.597C237.018 607.597 238.98 607.597 241.159 607.597Z" fill="#1C2327"/>
<path d="M323.748 539.881C321.569 541.726 318.518 544.888 316.121 547.523C315.903 547.786 315.467 548.049 315.467 548.576C315.467 549.367 316.339 549.367 316.557 548.84C319.172 546.205 321.787 543.307 324.62 540.935C325.273 540.408 324.402 539.354 323.748 539.881Z" fill="#1C2327"/>
<path d="M233.532 607.596C238.326 602.327 242.902 597.32 247.478 591.787C248.786 590.206 250.093 588.889 251.401 587.308C251.619 587.044 251.837 586.781 251.837 586.254C251.837 585.463 250.965 584.937 250.529 585.727C243.992 593.368 237.019 600.482 230.045 607.596C231.135 607.596 232.442 607.596 233.532 607.596Z" fill="#1C2327"/>
<path d="M229.828 607.596C231.135 606.279 232.443 604.698 233.75 603.381C236.801 599.955 239.852 596.53 242.902 592.841C243.338 592.314 242.685 591.26 242.031 591.787C236.583 597.32 231.571 602.59 226.341 607.596C227.431 607.596 228.738 607.596 229.828 607.596Z" fill="#1C2327"/>
<path d="M225.033 607.596C227.212 605.752 229.174 603.907 230.917 602.063C232.66 600.482 234.404 599.165 235.929 597.32C236.365 596.53 235.493 595.739 234.839 596.003C230.045 599.692 225.469 603.644 221.111 607.596C222.636 607.86 223.944 607.596 225.033 607.596Z" fill="#1C2327"/>
<path d="M360.793 607.86C367.984 598.901 375.175 590.206 382.148 581.248C378.662 585.991 374.957 590.733 371.471 595.476C368.42 599.692 365.151 603.908 362.1 607.86C364.28 607.86 366.459 607.596 368.638 607.596C386.289 583.883 404.158 560.433 421.591 536.455C441.421 509.316 461.251 482.441 480.427 454.775C487.183 445.026 494.374 435.277 500.911 425.001C501.565 423.947 502.219 422.893 502.872 421.839C502.872 421.576 502.872 421.576 502.872 421.312C502.872 420.785 502.219 420.785 502.001 421.049C482.824 450.823 460.815 477.698 439.242 505.101C444.907 497.196 450.573 489.028 456.239 481.124C467.352 465.841 477.376 450.296 488.49 435.277C491.977 430.534 495.245 426.055 498.732 421.312C499.604 420.258 500.257 419.205 501.129 418.151C501.129 418.151 501.347 417.887 501.347 417.624C501.347 417.097 500.693 416.57 500.257 417.097C479.991 444.499 459.943 472.165 438.806 498.777C417.232 526.706 395.877 555.163 374.086 583.092C367.766 591.26 361.011 599.692 354.038 607.86H360.793Z" fill="#1C2327"/>
<path d="M383.456 607.07C384.328 606.016 385.2 604.962 386.071 603.645C385.418 604.699 384.546 606.016 383.456 607.07C385.418 607.07 387.379 606.807 389.34 606.807C391.083 604.435 393.044 602.064 394.788 599.693C422.027 564.386 447.959 527.761 473.672 490.873C483.478 476.909 493.502 463.207 503.527 449.243C506.141 445.554 508.756 441.865 510.936 437.913C511.153 437.122 510.064 436.859 509.846 437.386C497.425 455.039 484.132 471.902 471.711 489.292C457.111 509.317 442.947 529.869 427.911 549.631C418.54 562.278 408.734 574.398 399.146 586.782C426.167 551.475 452.099 515.378 477.377 478.226C486.093 465.579 494.81 452.668 503.962 440.284C505.924 437.649 508.103 435.015 509.846 432.116C510.064 431.326 509.192 430.799 508.756 431.326C491.977 454.249 475.634 477.436 458.636 500.359C445.562 518.012 432.051 535.402 418.758 552.792C423.988 545.415 429.436 538.301 434.666 530.923C452.753 506.419 469.968 481.388 486.965 455.83C493.502 446.081 500.258 436.859 506.577 427.11C506.795 426.847 507.013 426.583 507.013 426.056C506.795 425.529 506.141 425.266 505.924 425.793C493.285 444.764 480.21 463.734 467.135 482.442C452.753 502.467 437.499 521.701 422.245 540.936C406.119 562.014 388.904 584.674 372.343 607.334C376.047 607.334 379.752 607.07 383.456 607.07Z" fill="#1C2327"/>
<path d="M416.143 605.752C427.475 592.051 439.024 578.35 449.702 563.858C462.341 546.995 472.365 531.186 483.696 514.059C487.183 508.79 490.669 503.783 494.156 498.777C495.246 497.46 496.117 495.879 496.989 494.561C496.989 494.298 497.207 494.298 496.989 494.035C496.771 493.508 496.117 493.244 495.899 493.771C476.505 521.964 456.021 549.103 434.666 575.451C435.755 573.87 437.063 572.29 438.152 570.972C458.2 543.833 477.595 516.167 497.207 488.765C505.052 477.962 512.679 466.632 520.524 455.566C520.959 454.775 521.831 453.985 522.049 452.931C522.049 452.404 521.395 451.877 521.177 452.404C508.974 468.74 496.771 485.076 484.786 501.676C466.045 526.443 447.305 551.211 428.346 575.715C427.475 576.769 426.821 577.823 425.949 578.613C429.654 573.344 433.576 568.074 437.499 562.804C459.508 533.557 481.299 504.31 502.655 474.273C507.013 468.213 511.371 462.153 515.947 456.356C518.127 453.458 520.524 450.559 522.485 447.661C522.921 446.871 521.831 445.817 521.177 446.607C503.09 469.794 485.004 492.981 467.135 516.431C464.52 519.593 461.905 523.018 459.508 526.18C462.994 521.437 466.481 516.958 469.75 512.215C477.595 500.885 486.311 489.292 495.246 477.172C503.526 466.105 511.589 455.039 519.434 443.709C519.87 442.918 520.741 442.391 520.959 441.338C520.959 440.811 520.306 440.284 519.87 440.811C504.834 462.68 488.272 482.441 471.493 502.203C457.765 519.329 444.472 537.246 431.833 555.427C427.257 562.014 422.681 568.337 418.104 574.661C430.308 557.271 442.511 539.881 454.932 522.754C469.532 502.73 484.35 482.968 499.168 463.207C503.526 457.41 507.885 451.613 512.025 445.553C512.461 444.763 513.332 443.972 513.55 442.918C513.768 442.128 512.679 441.338 512.243 442.128C493.72 467.686 473.89 492.19 455.368 517.748C434.448 546.732 413.092 576.505 392.391 606.279C400.235 606.543 408.08 606.279 416.143 605.752Z" fill="#1C2327"/>
<path d="M521.177 457.674C514.422 466.896 505.27 477.962 499.822 486.13C499.386 487.184 500.693 487.974 501.347 487.184C501.129 487.447 501.129 487.447 501.347 487.184C506.359 480.86 511.153 474.273 516.165 468.213C518.344 465.051 521.177 462.153 522.921 458.464C522.921 457.41 521.613 456.883 521.177 457.674Z" fill="#1C2327"/>
<path d="M524.228 463.207C520.306 467.423 515.294 474.01 511.153 479.807C508.538 483.495 506.577 486.13 506.359 487.711C506.577 489.819 508.321 489.029 508.756 488.238C513.55 482.705 517.473 476.381 521.831 470.321C523.792 467.686 524.446 466.896 525.972 464.525C526.407 463.471 524.882 462.417 524.228 463.207Z" fill="#1C2327"/>
<path d="M524.882 471.111C521.177 475.854 517.037 480.069 514.204 485.603C513.986 486.13 514.422 486.92 514.858 486.656C515.511 486.656 515.511 486.393 515.947 485.866C519.652 481.914 522.703 477.171 526.189 472.692C527.279 471.638 525.753 469.793 524.882 471.111Z" fill="#1C2327"/>
<path d="M514.204 485.604C514.204 485.34 514.423 485.34 514.423 485.34L514.204 485.604Z" fill="#1C2327"/>
<path d="M528.805 475.326C526.408 477.697 524.229 480.332 522.267 483.23C521.832 484.021 521.832 483.494 521.832 484.548C521.832 485.338 522.485 485.865 523.139 485.602C524.011 485.075 524.446 484.021 525.318 483.494C527.061 481.386 528.587 479.278 530.33 476.907C530.548 476.643 530.548 476.38 530.548 476.116C530.548 475.062 529.241 474.535 528.805 475.326Z" fill="#1C2327"/>
<path d="M530.984 483.231C530.548 483.758 529.459 484.285 529.676 485.339C530.33 486.656 531.42 484.812 532.074 484.021C532.291 483.231 531.42 482.704 530.984 483.231Z" fill="#1C2327"/>
<path d="M425.731 605.489C443.382 581.512 460.815 557.271 477.595 532.503C484.568 522.491 491.323 512.479 497.861 502.203C499.386 499.831 500.912 497.723 502.219 495.352C502.219 494.825 501.565 494.562 501.347 495.089C488.273 515.113 473.454 533.821 459.072 552.528C445.779 570.182 432.487 588.099 419.194 606.016C421.373 605.752 423.552 605.489 425.731 605.489Z" fill="#1C2327"/>
<path d="M430.308 605.488C431.615 605.488 432.705 605.488 434.012 605.225C437.499 600.482 440.985 595.476 444.472 590.733C460.598 567.81 474.544 546.995 490.452 522.491C495.682 514.586 501.347 505.891 506.577 497.196C506.795 496.406 507.667 495.879 507.667 495.088C507.667 494.561 507.013 494.561 506.795 495.088C490.452 520.119 472.365 543.833 454.714 567.81C445.779 580.194 436.845 592.841 427.911 605.225C428.564 605.488 429.436 605.488 430.308 605.488Z" fill="#1C2327"/>
<path d="M447.087 604.698C454.06 594.949 461.251 585.2 468.007 575.451C472.583 568.864 483.043 552.528 491.105 540.408C496.989 531.713 502.437 522.754 508.321 514.059C508.974 513.005 509.846 511.951 510.5 510.897V510.634C510.5 510.37 510.064 510.37 509.846 510.37C499.822 524.598 490.016 539.09 479.774 553.055C476.287 558.061 472.583 562.804 468.878 567.81C468.442 568.864 465.392 572.026 465.392 572.553C464.738 573.08 464.52 573.87 463.866 574.397C460.815 578.349 457.765 582.302 454.714 586.517C468.007 566.493 483.914 543.042 497.861 522.227C503.962 513.005 510.5 503.783 516.383 494.298C516.601 493.771 517.255 493.244 517.037 492.717C516.819 492.19 516.165 491.926 515.947 492.453C502.873 512.215 488.708 531.976 475.198 551.474C462.123 569.391 449.048 587.308 436.409 605.488C440.114 604.961 443.6 604.961 447.087 604.698Z" fill="#1C2327"/>
<path d="M456.022 604.434C456.675 603.38 457.329 602.326 457.983 601.272C466.482 588.098 475.634 574.66 482.607 562.276C488.709 552 494.592 542.252 501.13 532.239C502.873 529.341 504.834 526.442 506.578 523.544C506.795 523.017 506.36 522.49 505.924 523.017C495.682 538.563 483.261 556.216 473.237 569.654C465.392 580.984 457.547 592.577 449.92 604.434C451.881 604.434 454.061 604.434 456.022 604.434Z" fill="#1C2327"/>
<path d="M468.66 603.908C468.877 603.645 468.877 603.645 469.095 603.381C479.337 588.099 488.272 571.763 497.86 555.69C502.654 548.049 507.23 539.881 511.806 532.24C512.024 531.977 512.242 531.713 512.242 531.45C512.242 531.186 511.806 530.923 511.588 531.186C502 546.732 491.54 561.487 482.17 574.925C478.901 579.931 474.979 585.728 470.839 592.051C480.645 576.242 489.797 559.643 499.385 543.833C502.654 538.3 506.141 532.767 509.409 527.497C509.627 527.234 509.627 526.97 509.409 526.707C509.191 526.443 508.973 526.443 508.756 526.707C498.296 543.57 487.182 558.589 477.158 572.817C472.146 580.458 464.519 592.578 459.289 600.483C458.418 601.8 457.546 603.118 456.674 604.435C460.597 604.171 464.519 603.908 468.66 603.908Z" fill="#1C2327"/>
<path d="M491.324 602.854C495.682 596.267 500.04 589.68 504.18 583.093C510.064 573.344 517.255 562.014 523.357 552.002C524.228 550.421 525.1 549.103 525.972 547.523C526.19 547.259 525.754 546.732 525.536 546.996C515.73 559.906 506.36 573.081 496.989 586.255C502.873 576.506 508.757 566.493 514.64 556.481C517.473 551.738 520.088 547.259 522.921 542.516C523.139 542.253 522.703 541.726 522.485 541.989C511.59 557.535 499.822 573.871 489.144 589.944C494.592 580.722 499.822 571.763 505.488 562.541C510.5 554.637 515.076 546.205 520.088 538.301C520.306 538.037 520.524 537.774 520.742 537.247C520.742 536.983 520.306 536.72 520.306 536.983C512.243 549.103 505.27 560.697 497.207 572.29C490.888 581.249 484.786 589.944 478.685 598.902C485.222 587.836 491.977 576.506 497.861 565.967C502.873 557.272 507.885 548.84 512.679 539.881C513.115 538.828 513.987 537.774 513.987 537.247C513.987 536.983 513.769 537.247 513.769 537.247C503.963 553.846 493.503 568.338 483.479 583.357C479.556 589.417 474.98 596.267 470.622 603.381C477.159 603.381 484.35 603.118 491.324 602.854Z" fill="#1C2327"/>
<path d="M503.091 602.327C510.282 591.524 516.819 581.511 524.228 569.391C526.625 565.175 529.676 560.696 532.291 555.953C532.727 555.163 531.637 554.372 531.202 555.163C524.664 565.702 515.948 576.242 508.321 586.781C507.885 587.308 507.449 587.835 507.013 588.625C510.5 583.092 513.986 577.559 517.691 571.762C520.742 567.02 524.882 560.696 528.369 555.163C528.151 555.426 528.587 554.899 528.805 554.636C529.24 554.109 529.458 553.582 529.894 553.055C530.112 552.528 530.548 552.264 530.548 551.737C530.548 551.21 529.894 550.683 529.458 551.21C517.255 568.6 504.616 585.727 492.413 603.117C496.118 602.59 499.604 602.59 503.091 602.327Z" fill="#1C2327"/>
<path d="M515.294 601.799C520.306 594.422 527.061 583.882 531.855 576.241C533.817 573.08 535.124 571.499 537.085 568.073C537.521 567.019 536.214 565.965 535.56 567.019C530.548 573.606 525.318 580.194 520.306 586.781C523.575 581.775 526.626 576.768 529.676 571.499C531.638 568.073 533.817 564.911 535.56 561.223C535.778 560.169 534.47 559.378 533.817 560.169C523.357 573.607 513.769 587.835 504.398 602.326C507.885 602.063 511.59 602.063 515.294 601.799Z" fill="#1C2327"/>
<path d="M523.138 601.535C527.278 594.948 531.201 587.834 535.559 580.193C536.649 578.349 537.956 575.977 539.046 574.66C539.482 573.869 540.353 573.079 540.353 572.025C540.353 571.498 539.699 571.498 539.482 571.761C532.944 580.983 525.971 589.415 519.651 598.637C518.998 599.691 518.344 600.745 517.69 601.535C519.216 601.799 521.177 601.799 523.138 601.535Z" fill="#1C2327"/>
<path d="M529.24 601.537C532.29 596.267 535.341 590.734 538.61 585.464C540.135 582.829 541.443 580.985 542.532 579.14C542.75 578.35 541.879 577.559 541.443 578.35C535.777 584.937 529.457 594.422 525.971 599.165C525.317 599.956 524.881 600.746 524.228 601.8C525.753 601.537 527.496 601.537 529.24 601.537Z" fill="#1C2327"/>
<path d="M536.213 601.273C537.739 599.692 539.482 597.584 541.008 594.949C542.751 592.051 544.712 589.152 546.019 586.254C546.237 585.2 544.93 584.41 544.276 585.2C541.443 588.625 538.61 592.051 536.213 596.003C535.124 597.847 534.47 599.428 533.816 601.009C534.906 601.273 535.56 601.273 536.213 601.273Z" fill="#1C2327"/>
<path d="M545.366 601.009L545.584 600.745C547.545 598.11 548.417 596.793 549.724 594.421C550.378 593.368 551.25 592.314 551.685 590.996C551.903 589.415 549.942 588.098 549.07 589.415C546.673 592.577 544.712 596.002 542.751 599.691C542.533 600.218 542.315 600.482 542.097 601.009C542.969 601.009 544.276 601.009 545.366 601.009Z" fill="#1C2327"/>
<path d="M391.083 482.442C392.609 482.178 394.352 482.178 395.878 482.178C402.633 470.848 409.17 459.255 415.708 447.661C417.451 444.236 419.412 441.074 421.156 437.649C421.373 437.122 420.72 436.595 420.502 437.122C410.696 453.195 402.415 465.578 392.391 480.334C391.955 481.124 391.519 481.651 391.083 482.442Z" fill="#1C2327"/>
<path d="M275.153 566.492C276.679 565.701 278.204 564.647 279.512 563.857C279.729 563.594 280.165 563.33 280.383 562.803C280.819 562.54 281.473 562.013 281.909 561.749C282.127 561.222 282.344 560.695 282.78 560.432C290.625 550.156 302.392 544.623 313.07 538.299C318.954 527.496 325.273 517.22 331.157 506.417C332.029 504.836 332.9 503.519 333.554 501.938C333.554 501.675 333.118 501.411 333.118 501.675C328.106 510.633 322.005 519.855 316.339 528.814C317.428 526.706 318.736 524.861 319.826 522.753C323.53 516.43 327.017 510.106 330.285 503.519C330.503 502.992 329.85 502.729 329.632 502.992C324.402 512.741 318.736 521.699 313.07 530.131C315.031 526.706 316.993 523.017 318.954 519.592C321.569 514.849 324.184 509.843 326.799 504.836C327.017 504.309 326.363 503.519 325.927 504.309C321.351 512.214 316.775 520.119 311.981 528.287C313.506 525.388 314.814 522.226 316.339 519.328C318.3 515.639 320.043 511.687 322.005 507.998C322.223 507.735 322.44 507.471 322.44 506.944C322.44 506.417 321.787 506.417 321.569 506.944C318.082 513.531 313.942 520.909 309.584 527.76C309.802 527.233 310.237 526.442 310.455 525.915C312.852 520.909 315.031 515.903 317.646 511.16C317.864 510.897 317.428 510.37 317.211 510.633C311.545 519.592 306.751 528.287 301.521 536.718C303.264 533.293 305.007 530.131 306.751 526.706C308.058 524.071 309.584 521.436 310.891 518.801C310.891 518.274 310.237 517.747 310.019 518.538C305.879 526.179 299.778 536.455 296.073 541.988C295.201 543.305 294.33 544.623 293.458 545.94C296.073 541.724 298.47 536.982 300.649 532.239C301.521 530.658 302.392 528.814 303.046 527.233C303.046 526.706 302.61 526.442 302.392 526.969C299.124 532.766 295.637 538.036 291.933 543.305C292.586 541.988 293.24 540.934 293.894 539.616C294.112 538.826 293.022 538.299 292.586 539.089C289.1 544.886 283.216 552.264 277.986 558.06C274.935 561.486 267.091 569.654 264.476 572.816C266.001 571.762 267.744 570.971 269.27 570.181C269.705 569.917 269.923 569.39 270.577 569.127C271.885 568.336 272.974 567.546 274.282 566.755C275.153 565.965 275.807 564.911 276.679 564.121C276.461 564.648 275.807 565.438 275.153 566.492C275.153 566.228 275.153 566.228 275.153 566.492Z" fill="#1C2327"/>
<path d="M415.489 416.57C415.707 416.043 415.054 415.78 414.836 416.043C405.03 432.379 394.57 447.661 383.892 463.207C390.865 451.614 397.403 439.757 404.376 428.427C407.427 423.421 410.477 418.678 413.528 413.672C413.746 413.408 413.528 412.881 413.31 412.618C413.092 412.355 412.656 412.618 412.439 412.881C400.889 432.643 387.379 451.35 375.611 469.004C371.253 475.591 366.895 482.178 362.536 488.765C368.638 479.016 374.958 468.74 379.752 461.099C386.071 450.823 391.955 440.02 398.492 430.008C400.889 426.056 403.286 422.367 406.119 418.415C407.427 416.57 408.734 414.726 409.824 412.881C410.042 412.618 410.042 412.091 409.606 411.828C409.388 411.828 409.17 411.828 408.952 412.091C394.134 435.014 378.88 454.776 364.062 477.435C362.754 479.543 361.447 481.388 360.139 483.495C368.202 470.058 376.265 456.883 384.546 444.236C391.083 434.224 398.056 424.475 404.812 414.726C405.683 413.408 406.555 412.354 407.209 411.037C407.209 410.51 406.773 410.247 406.337 410.774C394.352 427.9 381.713 444.5 370.163 462.153C357.524 480.597 345.757 499.832 334.208 519.066C335.733 516.168 337.041 513.006 338.566 510.107C341.181 504.838 343.578 500.358 346.193 495.352C346.411 495.089 345.975 494.562 345.757 495.089C339.002 504.574 333.336 513.533 327.452 523.282C329.849 518.802 332.247 514.323 334.861 509.58C336.823 505.892 338.566 502.466 340.527 498.778C340.745 498.514 340.963 498.251 340.963 497.724C340.963 497.46 340.527 497.197 340.309 497.724C336.169 504.838 332.029 511.425 327.888 517.485C328.76 515.904 329.414 514.323 330.285 513.006C332.682 508.527 334.861 504.047 337.259 499.305C337.476 499.041 337.041 498.778 336.823 499.041C328.542 513.006 321.133 525.39 313.288 538.037C315.031 536.983 316.775 535.929 318.518 534.875C325.273 530.396 332.029 525.653 338.566 520.647C338.784 520.383 339.22 520.12 339.438 519.856C350.769 510.371 361.883 500.622 372.778 490.346C373.432 489.819 373.868 489.556 374.522 489.292C375.175 488.765 376.047 488.238 376.701 487.711C378.008 485.603 379.098 483.759 380.405 481.915C388.468 469.267 398.056 454.512 406.773 439.23C408.952 435.541 411.131 431.589 413.31 427.9C413.528 427.637 413.31 427.11 413.092 427.11C412.874 426.846 412.439 427.11 412.439 427.373C405.683 437.649 399.364 447.661 392.173 457.937C389.122 462.417 386.071 466.632 383.02 470.848C391.083 458.201 398.71 445.817 406.555 432.116C409.388 427.11 412.656 421.84 415.489 416.57Z" fill="#1C2327"/>
<path d="M378.226 486.921C380.405 485.867 382.802 485.603 385.2 485.603C385.417 485.076 385.853 484.813 386.289 484.549C387.814 483.495 389.34 482.705 391.083 482.441C395.877 474.8 400.889 466.369 403.94 459.782C404.158 458.991 404.812 458.464 404.594 457.41C404.376 456.356 403.068 456.093 402.633 457.147C398.056 463.997 391.955 473.219 385.635 482.441C386.943 480.333 388.25 478.226 389.558 475.854C397.838 462.153 404.812 449.769 413.092 436.331C415.489 432.116 418.104 428.163 420.284 423.684C420.501 423.157 419.63 422.367 419.412 423.157C407.645 442.919 395.006 460.572 384.328 477.962C382.367 481.124 380.188 484.022 378.226 486.921Z" fill="#1C2327"/>
<path d="M418.758 417.888C418.758 417.361 418.104 417.361 417.887 417.888C417.015 419.469 415.925 421.05 415.054 422.894C414.618 423.421 414.4 424.212 415.054 424.475C415.49 424.475 415.707 424.212 415.925 423.948C416.797 422.367 417.887 420.786 418.54 419.205C418.54 418.678 418.758 418.151 418.758 417.888Z" fill="#1C2327"/>
<path d="M418.976 431.061C415.271 437.385 410.913 443.445 407.209 450.295C406.991 451.086 405.901 451.876 406.337 452.93C407.209 453.984 407.645 452.14 408.298 451.349C412.003 445.816 415.271 440.02 418.54 434.223C418.976 433.169 419.848 432.379 419.848 431.061C419.848 430.798 419.194 430.534 418.976 431.061Z" fill="#1C2327"/>
<path d="M399.8 482.442C401.107 480.07 402.415 477.962 403.722 475.855C409.824 465.052 415.707 454.249 422.027 443.709C422.245 442.919 423.116 442.392 422.898 441.602C422.68 441.075 422.027 440.811 421.809 441.338C413.528 455.566 405.029 469.004 396.749 482.178C397.62 482.178 398.71 482.442 399.8 482.442Z" fill="#1C2327"/>
<path d="M434.012 429.744C424.206 443.972 412.875 462.943 405.248 475.063C403.722 477.435 402.197 480.069 400.671 482.704C402.415 482.968 403.94 482.968 405.683 483.231C406.555 481.65 407.427 480.07 408.298 478.489C415.925 465.051 423.116 451.086 430.525 437.648C431.833 435.277 433.14 432.906 434.448 430.798C435.32 430.007 434.448 429.217 434.012 429.744Z" fill="#1C2327"/>
<path d="M437.062 433.433C436.191 434.75 435.319 436.067 434.665 437.648C434.447 438.175 434.665 438.702 435.101 438.702C435.319 438.702 435.755 438.702 435.973 438.175C436.844 436.858 437.498 435.277 438.152 433.96C438.37 433.433 437.28 432.642 437.062 433.433Z" fill="#1C2327"/>
<path d="M459.508 434.223C459.29 433.169 458.2 433.169 457.764 433.96C454.278 439.756 450.573 445.553 446.651 451.35C447.74 449.769 448.612 447.924 449.702 446.344C450.138 445.29 451.227 444.499 451.009 443.182C450.791 442.391 449.92 442.128 449.484 442.918C444.69 450.823 439.678 458.727 434.448 466.895C436.627 463.207 438.806 459.518 440.985 456.092C444.036 450.823 447.305 445.817 450.138 440.547C451.009 439.756 449.92 438.175 449.266 439.229C442.946 449.505 435.755 460.308 428.782 470.848C430.307 468.213 431.833 465.578 433.358 462.943C437.499 455.565 441.857 447.924 445.997 440.283C446.869 438.439 447.958 436.858 448.83 435.014C448.83 434.75 449.048 434.487 448.83 434.223C448.612 433.433 447.741 433.433 447.523 433.96C439.678 446.87 432.051 458.991 424.424 471.375C429.218 462.68 434.23 453.721 439.024 445.026C440.767 441.864 442.511 438.966 444.036 435.541C444.254 434.75 443.164 434.487 442.946 435.014C437.934 444.236 432.269 453.458 426.603 462.416C430.525 455.039 434.23 447.924 438.152 440.547C439.896 437.122 441.857 433.696 443.6 430.007C443.818 429.48 443.164 428.954 442.728 429.48C433.576 446.344 423.77 462.68 413.964 478.752C416.797 473.746 419.412 468.74 422.027 463.997C425.078 458.464 427.91 452.931 430.743 447.397C431.179 446.08 432.487 444.499 432.704 443.182C432.487 442.655 431.833 442.391 431.615 442.918C422.898 456.883 415.054 469.267 406.991 482.441C409.824 482.704 412.656 483.231 415.271 483.495C416.579 483.495 417.886 483.495 418.976 483.495C420.283 482.704 421.591 482.177 422.898 481.651C423.988 480.86 425.295 480.07 426.385 479.016C428.128 477.698 430.09 476.117 431.833 474.8C434.666 471.902 437.499 469.267 440.549 466.632C445.561 458.464 450.791 450.296 455.585 441.864C456.893 439.756 458.2 437.385 459.29 435.014C459.29 435.277 459.726 434.75 459.508 434.223Z" fill="#1C2327"/>
<path d="M455.803 434.223C455.585 433.17 454.278 432.906 453.842 433.96C453.624 434.75 452.97 435.277 452.752 436.068C452.534 437.122 453.406 437.912 454.278 437.649C454.931 437.385 455.149 436.331 455.585 435.804C455.585 435.277 455.803 434.75 455.803 434.223Z" fill="#1C2327"/>
<path d="M300.431 480.069C288.664 505.1 275.371 529.077 261.861 553.054C263.168 550.683 264.258 548.048 265.565 545.677C272.974 530.658 279.729 515.113 287.356 500.357C289.971 495.351 292.804 490.082 295.637 485.075C296.073 484.285 296.509 483.231 296.945 482.44C296.945 482.177 296.945 482.177 296.945 481.913C296.945 481.387 296.291 481.387 296.073 481.65C279.947 513.268 262.514 543.569 245.299 574.397C250.965 563.33 256.849 552.264 262.514 541.198C267.526 531.185 272.102 520.646 277.332 510.897C281.255 503.256 285.831 495.615 289.753 487.974C289.971 487.447 290.407 487.183 290.189 486.656C290.189 486.393 289.536 486.129 289.536 486.656C277.55 508.789 265.347 530.395 253.144 552.264C253.58 551.474 254.016 550.42 254.452 549.629C259.681 538.299 265.347 526.969 271.449 516.167C271.885 515.113 272.756 514.322 272.974 513.268C272.756 512.741 272.102 512.478 271.885 513.005C262.95 529.341 253.798 543.569 245.299 559.115C246.171 557.534 246.825 555.689 247.478 554.108C249.44 549.893 251.401 545.94 253.144 541.725C253.58 540.934 252.49 539.88 251.837 540.934C247.042 552.001 240.941 561.223 235.275 570.708C236.147 568.864 237.236 567.019 238.108 564.911C241.595 557.797 245.299 550.947 248.568 543.832C249.222 542.515 247.478 541.198 246.825 542.515C235.493 564.384 223.944 585.727 212.394 607.332C213.266 607.332 214.138 607.332 214.791 607.332C221.329 601.536 228.52 596.529 234.404 591.787C240.069 587.308 245.953 582.828 252.054 578.876C259.028 565.438 266.001 551.737 272.538 537.772C279.947 522.49 287.792 507.472 295.637 492.453C297.598 488.501 299.777 484.548 301.521 480.333C301.957 479.806 300.867 479.279 300.431 480.069Z" fill="#1C2327"/>
<path d="M269.924 568.863C272.539 565.437 275.153 562.275 277.333 558.85C284.742 548.047 291.715 536.454 299.342 525.915C306.533 515.902 314.378 505.099 324.62 499.829C325.709 497.722 327.017 495.877 328.106 493.769C337.041 477.697 345.757 461.361 354.256 445.025C356.217 441.072 358.396 437.12 360.575 433.431C360.793 432.904 360.14 432.377 359.922 432.904C350.551 448.45 339.656 466.63 330.939 480.595C327.888 485.338 325.056 490.081 322.005 495.087C323.53 492.188 325.056 489.554 326.581 486.655C333.772 473.481 340.527 460.043 347.936 447.132C350.116 443.444 352.731 439.755 354.692 436.066C354.692 435.276 353.82 435.012 353.602 435.539C344.886 449.24 336.823 463.469 328.76 476.643C325.274 482.176 321.569 487.709 318.082 493.506C319.172 491.398 320.261 489.554 321.351 487.446C325.056 480.595 328.76 474.008 332.029 467.157C332.247 466.894 332.247 466.367 332.029 466.103C331.811 465.576 330.939 465.576 330.721 466.103C320.479 485.338 309.148 503.782 298.034 522.489C293.022 530.921 288.228 539.616 283.216 548.311C292.804 530.394 302.393 512.477 312.199 494.823C315.467 489.027 318.736 482.966 322.005 477.17C322.223 476.643 322.441 476.379 322.441 475.852C322.223 475.062 321.351 474.798 320.915 475.589C311.109 491.925 301.303 508.525 291.715 525.124C298.906 511.159 306.315 497.195 313.506 483.23C314.596 481.122 316.121 478.487 316.775 476.379C316.775 475.852 316.121 475.325 315.903 476.116C306.315 494.56 296.291 512.477 286.049 530.657C286.485 529.867 286.703 529.34 287.139 528.549C294.33 514.058 301.303 499.566 308.712 485.338C310.02 482.439 311.545 479.541 312.635 476.379C312.852 475.589 311.763 475.062 311.327 475.852C299.56 500.883 286.485 524.861 273.628 549.101C275.589 545.149 277.551 541.197 279.512 537.244C287.139 521.435 294.984 506.153 302.828 490.344C304.136 487.446 305.661 484.547 306.751 481.649C306.969 481.122 307.187 480.595 306.969 480.068C306.751 479.541 305.879 479.541 305.661 480.332C303.7 486.128 299.996 492.188 297.163 497.722C292.587 506.153 288.01 514.585 283.434 523.016C273.628 541.46 263.604 559.904 253.58 578.348C254.452 577.821 255.323 577.294 256.195 576.767C260.771 573.605 265.347 571.497 269.924 568.863Z" fill="#1C2327"/>
<path d="M334.862 494.825C335.951 492.98 337.041 491.136 338.13 489.292C348.59 471.638 359.704 454.248 370.382 436.595C383.456 415.516 395.442 396.281 408.952 375.203C414.4 366.508 419.848 357.813 425.514 349.118C425.949 348.327 426.603 347.8 426.603 347.01C426.603 346.746 426.167 346.746 425.949 347.01C407.427 376.256 386.071 404.976 367.985 432.379C362.101 441.074 356.435 450.032 350.769 458.991C353.384 453.985 355.999 449.242 358.614 444.236C360.575 440.547 362.537 436.595 364.716 432.906C364.934 432.642 365.152 432.379 364.934 432.115C364.934 431.588 364.28 431.588 364.062 432.115C351.859 454.512 338.348 477.698 325.491 499.304C328.76 497.723 331.811 496.406 334.862 494.825Z" fill="#1C2327"/>
<path d="M382.367 434.749C385.199 430.796 388.468 426.581 391.737 422.628C397.838 412.352 403.722 401.813 409.824 391.274C417.015 378.363 424.86 366.243 432.487 353.859C434.884 349.907 437.281 346.218 439.46 342.002C439.678 341.739 439.242 341.475 439.024 341.739C430.307 356.23 420.501 369.931 411.349 384.16C396.967 406.292 383.238 429.479 369.074 451.085C364.934 457.408 360.139 464.523 354.91 472.164C370.163 447.133 385.417 422.101 400.671 397.07C409.17 383.106 418.104 369.141 426.821 355.176C429.436 350.961 432.051 347.008 434.448 342.792C434.666 342.529 434.448 342.266 434.23 342.002C434.012 341.739 433.794 342.002 433.576 342.265C423.552 358.602 412.003 374.147 401.325 390.22C388.468 409.454 374.304 431.85 362.537 450.821C353.384 465.313 344.232 479.805 335.297 494.296C341.181 491.398 346.629 487.973 351.641 482.44C352.948 481.122 354.256 480.332 355.563 479.805C359.704 473.745 363.626 467.421 367.548 461.361C370.381 451.612 376.701 442.653 382.367 434.749Z" fill="#1C2327"/>
<path d="M491.541 282.982C477.813 301.953 463.866 320.397 450.138 339.104C438.153 356.494 426.603 374.411 415.054 392.064C420.937 381.525 426.821 370.722 432.705 360.183C435.538 355.44 438.806 349.907 441.421 345.955C443.165 343.32 444.908 340.685 446.433 338.314C446.651 337.787 445.997 336.996 445.562 337.523C430.961 359.656 417.669 381.262 403.722 404.448C400.236 410.245 396.967 415.251 393.698 420.257C397.185 416.305 401.107 412.88 405.03 410.245C406.991 408.928 408.952 408.137 410.695 408.137C416.361 398.915 423.117 388.639 427.257 382.316C444.69 355.967 459.29 333.834 474.326 309.33C478.684 302.743 483.914 294.839 488.926 287.988C490.016 286.407 491.105 284.826 491.977 283.245C492.195 282.982 491.759 282.718 491.541 282.982Z" fill="#1C2327"/>
<path d="M493.72 286.671C493.502 286.407 493.285 286.671 493.067 286.934C478.466 309.33 463.866 330.409 449.92 351.488C439.242 367.824 425.949 388.639 413.528 408.401C414.836 408.664 416.361 409.455 417.887 410.245C418.104 410.245 418.104 410.245 418.322 410.509C434.884 384.424 451.227 358.075 467.135 331.463C473.89 320.133 480.428 308.54 487.619 297.474C489.798 294.048 492.195 290.886 494.374 287.461C493.938 287.198 493.938 286.671 493.72 286.671Z" fill="#1C2327"/>
<path d="M494.809 291.15C493.502 293.521 491.759 295.893 490.451 298.264C490.451 299.318 491.541 299.055 491.541 298.791C492.412 297.21 493.066 296.42 494.156 294.575C494.809 293.521 495.899 292.731 496.117 291.677C496.335 290.623 495.027 290.36 494.809 291.15Z" fill="#1C2327"/>
<path d="M486.747 304.061C479.773 316.709 469.749 329.883 463.212 340.949C449.701 363.082 434.447 387.323 419.629 411.036C421.155 411.827 422.462 412.617 423.988 413.408C438.588 390.484 453.188 367.561 466.917 343.584C473.018 332.781 479.12 321.978 484.785 310.912C485.875 308.804 486.965 306.696 487.836 304.588C487.618 303.798 486.965 303.534 486.747 304.061Z" fill="#1C2327"/>
<path d="M496.771 298.001C480.21 325.403 464.956 354.123 447.959 380.999C441.203 391.802 434.012 403.132 426.821 414.725C428.346 415.515 429.872 416.042 431.397 416.833C448.394 388.903 464.302 360.183 479.774 330.937C485.222 320.661 490.887 310.385 496.771 300.109C496.989 299.318 497.861 298.791 497.643 298.001C497.643 297.738 496.989 297.474 496.771 298.001Z" fill="#1C2327"/>
<path d="M492.63 316.707C483.26 334.888 472.364 351.751 462.558 368.35C452.752 384.686 443.382 401.286 434.012 417.622C434.23 417.622 434.665 417.886 434.883 417.886C436.191 418.413 437.498 418.676 438.588 419.203C452.099 395.226 465.173 370.722 477.812 346.218C482.606 336.996 487.836 328.037 492.412 318.552C492.63 317.761 493.284 317.234 493.284 316.444C493.284 316.444 492.848 316.444 492.63 316.707Z" fill="#1C2327"/>
<path d="M491.324 330.674C474.326 360.711 455.804 389.694 439.024 419.995C440.55 420.522 442.075 421.049 443.601 421.576C451.01 407.611 458.637 393.91 465.828 379.945C472.583 366.771 479.774 354.124 486.965 341.213C488.709 338.051 490.67 334.626 492.195 331.464C492.413 330.41 491.759 329.883 491.324 330.674Z" fill="#1C2327"/>
<path d="M503.745 324.613C483.914 356.232 464.738 388.904 445.562 421.839C447.087 422.366 448.613 422.893 450.138 423.42H450.356C462.341 402.341 474.108 380.999 485.876 359.657C491.759 348.854 497.861 338.315 503.527 327.248C503.963 326.458 504.616 325.667 504.616 324.613C504.398 324.35 503.745 324.086 503.745 324.613Z" fill="#1C2327"/>
<path d="M501.129 349.644C490.887 367.297 479.556 384.951 468.878 402.341C471.275 398.125 473.672 393.646 476.069 389.166C483.696 374.938 491.323 360.973 498.732 346.745C500.04 344.11 501.783 341.212 502.872 338.577C502.872 337.787 502.001 337.26 501.783 338.05C485.657 367.034 468.224 395.226 451.663 423.946C454.06 424.737 456.239 426.054 458.418 427.108C462.341 420.258 466.045 413.143 469.968 406.293C477.377 392.855 484.786 379.154 492.413 365.716C495.463 360.446 498.514 355.177 501.347 349.907C501.783 349.644 501.347 349.38 501.129 349.644Z" fill="#1C2327"/>
<path d="M512.024 363.608C501.782 381.261 490.233 398.651 479.773 414.987C488.054 401.023 495.899 387.058 503.962 373.093C506.141 369.141 508.538 365.189 510.717 361.237C510.935 360.973 511.153 360.71 511.153 360.446C511.153 360.183 510.499 359.919 510.499 360.446C498.078 380.471 484.349 400.759 472.582 419.203C477.594 410.508 482.606 401.55 487.4 393.382C493.938 381.788 500.911 370.459 507.23 358.602C507.884 357.284 508.756 355.967 508.974 354.386C508.756 353.859 508.102 353.595 507.884 354.122C498.95 370.458 486.746 388.112 478.03 402.604C475.851 406.292 473.454 410.245 471.275 413.934C479.991 398.651 488.708 383.369 497.642 368.087C501.782 360.71 506.141 353.595 510.063 345.954C510.281 345.691 510.499 345.427 510.499 344.9C510.499 344.637 509.845 344.373 509.845 344.9C493.066 372.303 475.851 399.969 459.943 427.371C461.686 428.162 463.43 429.216 465.391 429.743C474.979 422.892 483.696 413.934 490.233 403.658C491.323 402.077 492.63 400.496 493.938 399.705C497.424 393.645 501.129 387.585 504.397 381.788C507.666 375.992 510.935 370.458 513.768 364.662C514.203 363.608 512.678 362.29 512.024 363.608Z" fill="#1C2327"/>
<path d="M501.129 398.652C505.488 390.748 509.628 382.843 513.768 374.675C513.55 375.202 514.64 373.094 514.858 372.567C515.512 371.25 516.383 369.669 516.819 368.352C517.037 367.298 515.73 366.771 515.294 367.561C509.41 377.31 502.655 387.586 496.335 398.652C497.861 398.126 499.386 398.126 501.129 398.652Z" fill="#1C2327"/>
<path d="M503.744 399.706C504.398 400.233 505.052 400.496 505.706 401.023C509.41 394.173 512.461 388.376 515.948 381.526C517.255 379.154 518.563 376.783 520.088 374.411C520.524 373.357 519.434 372.304 518.78 373.357C512.243 382.579 507.231 390.22 502.001 398.915C502.437 398.915 503.091 399.442 503.744 399.706Z" fill="#1C2327"/>
<path d="M509.41 403.394C509.846 402.604 510.282 402.077 510.5 401.286C513.986 395.226 517.473 388.903 520.742 382.842C521.395 381.525 519.652 380.471 518.998 381.789C515.294 387.585 510.718 394.699 506.359 401.55C507.449 402.077 508.538 402.867 509.41 403.394Z" fill="#1C2327"/>
<path d="M515.293 407.348C516.383 405.24 517.254 403.395 518.344 401.551C519.651 398.652 521.613 395.754 522.92 392.856C523.138 391.538 521.613 390.748 520.959 391.802C518.562 395.491 515.293 400.233 512.242 405.24C513.114 406.03 514.204 406.557 515.293 407.348Z" fill="#1C2327"/>
<path d="M521.613 411.827C523.792 407.874 525.972 403.922 527.279 401.024C527.715 399.706 529.022 398.652 528.804 397.071C528.586 396.018 527.279 395.491 526.407 396.281C523.574 400.497 520.96 404.712 518.562 409.455C519.652 410.509 520.524 411.3 521.613 411.827Z" fill="#1C2327"/>
<path d="M531.202 402.341C530.548 403.395 530.33 404.449 529.894 405.503C529.894 405.503 529.894 405.503 529.894 405.239C529.676 405.503 529.676 406.03 529.894 406.557C530.766 407.611 531.42 406.557 531.855 406.03C532.291 405.239 532.945 404.449 533.163 403.395C533.599 401.814 531.637 401.287 531.202 402.341Z" fill="#1C2327"/>
<path d="M538.175 405.239C537.521 406.557 536.431 408.401 536.867 409.982C538.175 412.353 540.572 407.874 540.79 406.293C541.225 404.449 539.046 403.658 538.175 405.239Z" fill="#1C2327"/>
<path d="M547.109 416.042C546.891 415.515 546.237 415.252 546.019 415.779C545.802 416.306 545.584 416.833 546.019 417.096C546.673 417.623 547.109 416.569 547.109 416.042Z" fill="#1C2327"/>
<path d="M204.985 607.331C208.254 601.271 211.522 595.211 215.009 589.151C222.2 576.24 229.609 563.856 236.365 550.682C236.8 549.365 237.89 548.047 238.108 546.73C237.89 545.939 237.018 545.939 236.8 546.466C229.609 560.695 221.546 573.869 213.266 587.307C214.355 585.462 215.227 583.618 216.317 581.773C221.111 573.078 225.905 564.383 230.481 555.425C231.57 553.054 232.878 550.946 233.75 548.311C233.968 547.257 232.66 546.73 232.224 547.784C221.329 568.072 209.561 587.57 198.23 607.595C200.627 607.331 202.806 607.331 204.985 607.331Z" fill="#1C2327"/>
<path d="M210.433 607.333C212.612 603.117 214.792 598.901 216.971 594.685C223.508 581.774 229.61 570.445 235.929 557.797C237.672 554.372 239.416 551.21 240.723 547.521C240.723 546.994 240.069 546.731 239.852 547.258C228.956 567.546 217.189 587.308 205.639 607.333C207.382 607.333 208.908 607.333 210.433 607.333Z" fill="#1C2327"/>
<path d="M197.358 607.332C204.114 594.948 211.087 582.037 217.624 569.917C221.329 563.066 224.815 556.479 228.52 549.629C228.956 548.575 229.827 547.257 230.045 545.94C229.827 545.413 229.174 545.149 228.738 545.676C217.406 566.492 205.203 586.517 193.436 607.068C194.961 607.332 196.051 607.332 197.358 607.332Z" fill="#1C2327"/>
<path d="M191.475 607.596C198.448 595.475 205.639 582.828 212.176 570.708C216.099 563.594 219.803 556.48 223.508 549.102C223.944 548.048 224.815 547.258 224.597 546.204C224.379 545.413 223.29 545.15 223.072 545.94C211.523 566.755 199.102 586.78 187.334 607.596C188.642 607.596 190.167 607.596 191.475 607.596Z" fill="#1C2327"/>
<path d="M186.027 607.595C190.385 600.218 194.525 592.576 198.883 585.199C204.113 576.24 208.907 567.018 213.702 557.796C215.009 554.898 216.752 552.263 217.842 549.365C218.06 548.311 216.534 547.784 216.099 548.574C204.985 568.336 193.218 587.834 181.886 607.332C183.412 607.595 184.719 607.595 186.027 607.595Z" fill="#1C2327"/>
<path d="M181.451 607.596C185.155 601.008 189.078 594.158 192.782 587.307C198.448 577.031 204.114 566.755 209.78 556.216C211.087 553.581 212.612 550.946 213.702 548.311C213.92 547.784 214.138 547.521 213.92 546.994C213.702 545.94 212.395 545.677 211.959 546.731C201.063 567.546 189.078 587.571 177.311 607.596C178.836 607.596 180.143 607.596 181.451 607.596Z" fill="#1C2327"/>
<path d="M176.657 607.596C183.848 594.158 191.039 580.984 198.23 567.546C201.281 561.486 204.549 555.426 207.382 549.366C207.6 548.839 208.036 548.048 208.036 547.521C207.818 546.994 207.164 546.731 206.946 547.258C198.884 562.804 189.731 577.295 181.015 592.05C177.964 597.32 175.131 602.326 172.08 607.596C173.824 607.86 175.349 607.86 176.657 607.596Z" fill="#1C2327"/>
<path d="M171.645 607.859C176.221 599.428 180.797 590.996 185.373 582.828C187.117 579.403 189.296 576.241 190.821 572.816C191.039 571.762 189.732 571.235 189.296 572.289C182.541 583.882 175.349 595.476 168.376 607.069C173.388 598.11 178.182 589.152 183.194 580.193C183.63 579.403 184.72 578.086 184.72 577.295C184.502 576.768 183.848 576.505 183.63 577.032C177.093 587.307 170.337 597.583 163.8 608.386C166.633 607.859 169.248 607.859 171.645 607.859Z" fill="#1C2327"/>
<path d="M162.71 608.123C167.722 599.691 172.516 590.996 177.311 582.565C178.182 580.984 179.054 579.666 179.925 578.085C179.925 577.822 180.143 577.558 179.925 577.558C179.708 576.768 178.836 576.768 178.618 577.295C171.645 588.361 165.543 597.847 159.442 608.386C160.531 608.123 161.621 608.123 162.71 608.123Z" fill="#1C2327"/>
<path d="M155.519 608.122C156.391 608.122 157.48 608.122 158.352 608.122C163.146 599.954 168.158 590.732 172.298 582.828C173.824 579.666 175.567 576.768 176.875 573.606C177.092 572.552 175.785 572.025 175.349 573.079C169.901 582.828 164.671 591.259 159.441 599.691C162.492 594.421 165.543 589.151 168.376 584.145C169.901 581.247 171.862 578.612 173.17 575.714C173.388 574.66 172.08 573.869 171.427 574.66C166.415 582.564 161.403 590.205 156.391 597.583C158.57 593.894 160.749 590.205 162.492 586.78C164.453 583.091 166.633 579.139 168.594 575.45C168.812 574.396 167.504 573.869 167.068 574.923C162.056 582.828 156.609 590.996 151.379 599.164C153.994 594.685 156.609 590.205 159.441 585.463C160.095 584.409 160.749 583.091 161.621 582.037C161.839 581.774 161.839 581.51 161.621 581.247C161.403 580.456 160.531 580.193 160.095 580.72C154.647 589.151 147.238 599.427 140.701 608.913C145.713 608.122 150.507 608.386 155.519 608.122Z" fill="#1C2327"/>
</svg>
