<svg width="24" height="24" viewBox="0 0 24 24" fill="none" xmlns="http://www.w3.org/2000/svg">
<g filter="url(#filter0_b_1941_19397)">
<path d="M12 23.9895C18.6274 23.9895 24 18.6193 24 11.9947C24 5.37023 18.6274 0 12 0C5.37258 0 0 5.37023 0 11.9947C0 18.6193 5.37258 23.9895 12 23.9895Z" fill="url(#paint0_linear_1941_19397)" fill-opacity="0.78"/>
</g>
<path d="M6.59397 11.0348C6.42579 11.4306 6.30316 11.8403 6.2471 12.2676C6.20856 12.5477 6.19105 12.8314 6.21907 13.1186C6.23309 13.2552 5.79864 12.7859 5.68652 12.3271C5.57791 11.8858 5.54988 11.4376 5.60243 10.9823C5.65148 10.5515 5.77761 10.1453 5.98433 9.76705C6.08594 9.58144 6.19805 9.40633 6.3382 9.24524C6.34871 9.23473 6.35572 9.21722 6.36973 9.19621C6.28915 9.20321 6.22608 9.23823 6.16652 9.26275C6.10345 9.29076 6.04039 9.32228 5.97732 9.3538C5.91426 9.38532 5.8547 9.42034 5.79513 9.45886C5.73557 9.49739 5.67951 9.53941 5.62696 9.58144C5.5709 9.62346 5.51835 9.66899 5.46579 9.71802C5.41324 9.76705 5.36769 9.81608 5.32214 9.87211C5.27659 9.92465 5.23455 9.98068 5.19251 10.0402C5.15046 10.0962 5.11543 10.1558 5.07689 10.2153C5.04185 10.2749 5.01382 10.3379 4.97178 10.4114C4.96127 10.3834 4.95426 10.3729 4.95426 10.3624C4.94375 10.2644 4.92973 10.1698 4.92623 10.0717C4.88419 9.39583 4.97878 8.73743 5.22053 8.10355C5.40623 7.61325 5.68302 7.17899 6.0509 6.80076C6.25411 6.59063 6.48185 6.41202 6.73061 6.25793C6.79017 6.21941 6.57645 6.09333 6.40127 6.12485C6.00886 6.19139 5.13995 6.83228 5.10491 6.8673C5.11192 6.83228 5.22054 6.58713 5.2801 6.47856C5.47981 6.11084 5.71805 5.76763 5.98784 5.44544C6.26462 5.11624 6.56944 4.81856 6.90229 4.5454C7.53294 4.03059 8.22667 3.63485 8.99747 3.36168C9.44243 3.20409 9.89791 3.08501 10.3639 3.00797C10.8194 2.93092 11.2818 2.90641 11.7443 2.90641C11.8459 2.90641 11.944 2.90641 12.0421 2.90641C12.0491 2.92742 10.7878 4.2197 10.7703 4.20919C10.434 3.98506 10.0626 3.90101 9.66316 3.91852C9.24272 3.93603 8.8363 4.02358 8.44039 4.17067C8.17411 4.26873 7.91484 4.3878 7.66959 4.53139C7.65557 4.53839 7.64156 4.5489 7.62754 4.5594C7.62404 4.56291 7.62054 4.56991 7.61002 4.58392C7.73616 4.5524 7.85178 4.52088 7.97441 4.49987C8.09703 4.47535 8.21966 4.46135 8.34229 4.45084C8.46492 4.44033 8.59105 4.43683 8.71367 4.43683C8.8328 4.43683 8.95543 4.44384 9.07455 4.45784C9.19718 4.47185 9.31981 4.49637 9.43893 4.52088C9.55805 4.5454 9.67718 4.57692 9.81032 4.63295C9.76827 4.64696 9.24273 4.81506 9.00798 4.93063C8.71017 5.07772 8.43338 5.25983 8.17411 5.46645C7.91134 5.67658 7.67659 5.91472 7.46287 6.17038C7.2036 6.47506 6.98637 6.80776 6.79017 7.15447C6.86375 7.09143 7.13353 7.06692 7.53645 6.73772C7.92535 6.41903 8.3563 6.16337 8.82229 5.96725C9.26024 5.78514 9.71572 5.66257 10.1852 5.60654C10.469 5.57152 10.7528 5.56451 11.0366 5.58202C11.0471 5.58202 11.0541 5.58552 11.0646 5.58903C11.0681 5.61354 11.0506 5.61704 11.0366 5.62405C10.7178 5.75713 10.4235 5.93223 10.1397 6.13185C9.77528 6.38751 9.43893 6.68169 9.14462 7.01439C8.95192 7.23152 8.76973 7.45916 8.61207 7.70431C8.30375 8.18059 8.07951 8.6919 7.93586 9.23823C7.8728 9.48338 7.81674 9.73203 7.79221 9.98418C7.75017 10.3624 7.73616 10.7371 7.77119 11.1154C7.79221 11.364 7.83426 11.6057 7.89382 11.8473C7.91834 11.9489 7.94638 12.0469 7.97441 12.145C8.00243 12.1415 7.98842 12.124 7.99192 12.117C7.99543 12.103 7.99192 12.089 7.99192 12.0784C7.98842 11.9138 7.99192 11.7492 8.01645 11.5882C8.069 11.2169 8.1601 10.8597 8.31426 10.52C8.6436 9.75654 9.34784 9.01059 9.34433 9.0211C9.31981 9.16469 8.99397 12.138 10.8859 14.1692C10.956 13.9591 10.8334 13.5493 10.7493 13.1816C10.6652 12.8139 10.6232 12.4462 10.6477 12.0679C10.6757 11.6162 10.7773 11.1819 10.9525 10.7652C11.1172 10.3764 11.3379 10.0227 11.6322 9.72152C11.8424 9.50789 12.0772 9.32578 12.354 9.20321C12.4941 9.14017 12.6413 9.09464 12.7954 9.07713C12.827 9.07363 12.911 9.05962 12.911 9.05962C12.911 9.05962 12.8655 9.03511 12.8515 9.03161C12.7709 9.0176 12.6938 9.00009 12.6132 8.99308C12.0807 8.94055 10.3008 8.47477 10.9 8.04751C11.1557 7.8654 11.4325 7.71831 11.7233 7.59224C12.0421 7.45565 12.375 7.35409 12.7043 7.24203C12.897 7.17549 13.0862 7.09844 13.2579 6.98287C13.4366 6.8638 13.5802 6.7097 13.6678 6.51359C13.6994 6.44004 13.7204 6.36299 13.7414 6.28595C13.7519 6.24742 14.5753 5.73261 14.6173 5.7081C14.6524 5.68709 14.6699 5.65907 14.6734 5.62055C14.6944 5.46995 15.1359 2.77683 15.1359 2.75231C15.1148 2.77333 13.2334 5.11624 13.1948 5.17928C13.2054 5.19329 14.1338 4.717 14.2845 4.64346C14.295 4.63995 14.309 4.64346 14.3265 4.64346C14.316 4.66447 13.5978 5.86219 13.4541 6.0408C13.3981 6.11084 13.342 6.18088 13.2824 6.25093C13.2159 6.33147 13.1353 6.39802 13.0477 6.45055C12.8164 6.59063 12.5887 6.58013 12.368 6.43654C12.1788 6.31396 12.0351 6.14586 11.93 5.94974C11.8459 5.78514 11.8284 5.61354 11.867 5.43143C11.909 5.24232 11.9966 5.07422 12.0912 4.90962C12.2278 4.67848 12.3925 4.46835 12.5677 4.26523C12.8725 3.91151 13.2124 3.59632 13.5627 3.29164C13.8781 3.01847 15.6299 1.79624 15.6544 1.78223C15.6544 1.80324 15.3321 4.61194 15.3216 4.72751C15.2865 5.08472 15.3846 5.41042 15.5668 5.7116C15.6614 5.8692 15.7735 6.01628 15.8927 6.15637C16.0433 6.33148 16.194 6.50658 16.3481 6.67818C16.5338 6.88481 16.7125 7.09844 16.8737 7.32257C17.0138 7.51869 17.1435 7.72182 17.224 7.94945C17.2836 8.11405 17.3151 8.28566 17.3151 8.46076C17.3151 8.56232 17.3116 8.66038 17.3116 8.76194C17.3081 9.00709 17.3817 9.22772 17.5148 9.43435C17.6164 9.58844 17.7426 9.72152 17.8687 9.8546C18.2436 10.2433 18.643 10.6111 19.0564 10.9648C19.3017 11.1749 19.5505 11.385 19.7992 11.5917C19.8553 11.6372 19.9148 11.6792 19.9744 11.7247C19.9954 11.7387 20.0129 11.7598 20.0305 11.7773C20.0129 11.8088 19.9849 11.8158 19.9604 11.8193C19.8237 11.8543 19.6871 11.8893 19.5505 11.9174C19.4278 11.9419 19.3017 11.9594 19.1756 11.9804C19.1405 11.9874 19.1055 11.9944 19.0635 12.0049C19.0459 12.131 19.06 12.2536 19.0845 12.3761C19.109 12.4952 19.1616 12.6038 19.2246 12.7053C19.2877 12.8104 19.3753 12.8979 19.4629 12.9925C19.3963 13.052 19.3297 13.1011 19.2562 13.1396C19.0635 13.2482 18.8567 13.3252 18.636 13.3637C18.5029 13.3882 18.3732 13.4057 18.2366 13.4057C18.177 13.4057 18.1315 13.4233 18.0894 13.4723C17.9388 13.6369 17.7496 13.7314 17.5289 13.749C17.182 13.7805 16.8491 13.7349 16.5303 13.5844C16.3762 13.5108 16.222 13.4338 16.0713 13.3567C15.5353 13.0836 14.9852 12.8489 14.4141 12.6668C14.2214 12.6073 14.0287 12.5547 13.829 12.5267C13.4962 12.4812 13.1668 12.4987 12.862 12.6598C12.4521 12.8769 12.2103 13.2166 12.1683 13.6824C12.1578 13.798 12.1788 13.9101 12.2068 14.0186C12.2454 14.1727 12.3084 14.3163 12.3925 14.4494C12.5677 14.7401 12.7919 14.9957 13.0477 15.2163C13.6748 15.7522 15.4056 16.4421 15.4337 16.4561C15.4021 16.4666 15.3846 16.4771 15.3671 16.4806C15.0903 16.5156 14.817 16.5647 14.5402 16.5857C14.1268 16.6207 13.7099 16.6137 13.2964 16.5682C12.7569 16.5086 12.2348 16.386 11.7338 16.1864C11.3729 16.0428 11.0261 15.8677 10.7002 15.6576C10.4059 15.4685 8.70667 14.9397 10.5601 16.365C10.5706 16.372 9.54404 16.1549 9.08856 15.9133C8.58404 15.6471 8.14608 15.3004 7.7782 14.8696C7.37528 14.4003 7.102 13.861 6.95835 13.2587C6.88127 12.9365 6.84973 12.6143 6.84973 12.2851C6.85324 11.9979 6.80418 10.548 6.59397 11.0348ZM14.1478 11.3115C14.1408 11.343 14.1513 11.364 14.1618 11.3885C14.2354 11.5496 14.3055 11.7107 14.3826 11.8718C14.4176 11.9454 14.4562 12.0119 14.4982 12.082C14.5788 12.215 14.6874 12.3236 14.824 12.4006C14.8836 12.4357 14.9467 12.4707 15.0097 12.5022C15.3286 12.6563 15.6474 12.8069 15.9697 12.9575C16.1835 13.0555 16.3972 13.1466 16.6179 13.2201C16.8597 13.3042 17.1049 13.3287 17.3607 13.3007C17.3852 13.2972 17.4062 13.2972 17.4308 13.2937C17.4553 13.2902 17.4798 13.2937 17.5183 13.2797C17.4693 13.2622 17.4343 13.2482 17.4027 13.2376C17.3256 13.2096 17.2451 13.1851 17.168 13.1501C16.9262 13.0485 16.7055 12.912 16.4918 12.7614C16.229 12.5757 15.9908 12.3621 15.7525 12.1485C15.6019 12.0119 15.4477 11.8788 15.283 11.7598C14.9712 11.5356 14.6278 11.385 14.2494 11.3185C14.2144 11.3115 14.1829 11.301 14.1478 11.3115ZM16.4813 9.06663C16.3832 8.89152 16.25 8.75144 16.0854 8.63587C15.8786 8.49228 15.6509 8.38722 15.4162 8.29966C15.297 8.25764 15.1744 8.21912 15.0483 8.1981C15.0343 8.1946 15.0202 8.1981 14.9957 8.1981C15.0097 8.22262 15.0132 8.23663 15.0237 8.25063C15.1814 8.49228 15.3356 8.73393 15.4932 8.97557C15.5213 9.0211 15.5598 9.04561 15.6089 9.06663C15.7 9.10515 15.7875 9.14367 15.8751 9.1857C16.1344 9.31528 16.5408 9.17519 16.4813 9.06663Z" fill="white"/>
<path d="M20.4683 3.54428C18.205 1.28191 15.1918 0.0351562 11.9895 0.0351562C8.78715 0.0351562 5.77752 1.28191 3.51066 3.54428C1.2473 5.80664 0 8.81846 0 12.0159C0 15.2133 1.2473 18.2251 3.51066 20.491C5.77401 22.7534 8.78715 24.0001 11.9895 24.0001C15.1918 24.0001 18.2015 22.7534 20.4683 20.491C22.7317 18.2286 23.979 15.2168 23.979 12.0159C23.979 8.81496 22.7317 5.80664 20.4683 3.54428ZM2.19679 16.5862L3.0727 15.0102L4.53723 13.6794L3.73839 16.0258L3.63679 15.2974L2.19679 16.5862ZM3.56321 18.0921L3.77343 16.2009L4.16234 16.4986L5.92818 15.2589L3.56321 18.0921ZM7.80263 18.5824L6.57635 20.5786L6.78657 19.0026L7.80263 16.9013V18.5824ZM10.1991 21.2019L9.34073 21.9864L10.5425 18.0921L10.7947 19.2793L10.1991 21.2019ZM12.7428 20.1233L11.5515 20.9288L10.8858 19.3528L11.6216 20.2284L13.3034 18.5824L14.3545 22.4347L12.7428 20.1233ZM16.4917 21.4891L16.3165 18.0921V17.5667L16.9822 19.1427L17.1574 20.6136L16.4917 21.4891ZM17.8581 20.7537L18.4187 19.633L17.4377 19.2127L17.5778 17.917L16.7369 17.3216L18.4187 17.6018L18.0333 19.0727H20.0304L17.8581 20.7537ZM20.3457 15.7456L20.3001 13.9491L21.2812 15.6056L21.3653 17.7769L20.3457 15.7456ZM22.7632 14.3798L20.7311 12.3136C20.7101 12.4642 20.0304 13.6794 18.7305 13.8755C18.6254 13.893 18.5063 13.914 18.3766 13.921C18.1559 14.1207 17.8826 14.2397 17.5743 14.2678C17.4902 14.2748 17.4026 14.2783 17.322 14.2783C16.9577 14.2783 16.6143 14.2012 16.3025 14.0541C16.1553 13.9841 16.0012 13.907 15.833 13.823C15.2899 13.5463 14.7749 13.3327 14.2564 13.1646C14.0601 13.1016 13.9025 13.063 13.7623 13.0455C13.6782 13.035 13.6012 13.028 13.5311 13.028C13.3664 13.028 13.2333 13.0595 13.1107 13.1226C12.8479 13.2591 12.7218 13.4483 12.6972 13.7284C12.6937 13.7775 12.7147 13.8615 12.7218 13.8895C12.7463 13.9876 12.7883 14.0821 12.8479 14.1802C12.988 14.4113 13.1597 14.639 13.3945 14.8176C14.7434 15.8507 16.8736 16.4986 16.8736 16.4986C16.8736 16.4986 14.3545 18.1971 11.082 16.4706L11.3063 17.0064L10.5635 16.8908C10.4058 16.8908 9.32321 16.6317 8.84671 16.3795C8.28263 16.0819 7.79212 15.6896 7.38219 15.2133C6.96876 14.7335 6.67445 14.1837 6.50278 13.5778C6.41518 13.6339 6.31358 13.6654 6.20496 13.6654C6.08584 13.6654 5.97372 13.6304 5.86511 13.5533C5.75299 13.4763 5.64438 13.3572 5.52526 13.1891C5.42715 13.0525 5.25197 12.7724 5.17489 12.4502C5.16788 12.4151 5.15737 12.3801 5.15036 12.3451L2.44204 13.7494L0.763796 13.4132C0.707738 12.9545 0.676205 12.4887 0.676205 12.0159C0.676205 5.78213 5.74949 0.711065 11.986 0.711065C13.2088 0.711065 14.3895 0.907184 15.4931 1.2679C15.7244 1.34495 15.9521 1.4255 16.1799 1.51655C20.3457 3.18356 23.2958 7.26352 23.2958 12.0159C23.2958 12.7794 23.2187 13.5218 23.075 14.2432L22.7632 14.3798Z" fill="white"/>
<defs>
<filter id="filter0_b_1941_19397" x="-4" y="-4" width="32" height="31.9893" filterUnits="userSpaceOnUse" color-interpolation-filters="sRGB">
<feFlood flood-opacity="0" result="BackgroundImageFix"/>
<feGaussianBlur in="BackgroundImageFix" stdDeviation="2"/>
<feComposite in2="SourceAlpha" operator="in" result="effect1_backgroundBlur_1941_19397"/>
<feBlend mode="normal" in="SourceGraphic" in2="effect1_backgroundBlur_1941_19397" result="shape"/>
</filter>
<linearGradient id="paint0_linear_1941_19397" x1="3.51472" y1="3.51318" x2="20.4779" y2="20.4837" gradientUnits="userSpaceOnUse">
<stop offset="0.00558659" stop-color="#1788FF"/>
<stop offset="1" stop-color="#B217FF"/>
</linearGradient>
</defs>
</svg>
