<svg width="20" height="20" viewBox="0 0 20 20" fill="none" xmlns="http://www.w3.org/2000/svg">
<path d="M11 4.1665C11 3.61422 10.5522 3.1665 9.99996 3.1665C9.44767 3.1665 8.99996 3.61422 8.99996 4.1665H11ZM8.99996 15.8332C8.99996 16.3855 9.44767 16.8332 9.99996 16.8332C10.5522 16.8332 11 16.3855 11 15.8332H8.99996ZM15.8333 10.9998C16.3856 10.9998 16.8333 10.5521 16.8333 9.99984C16.8333 9.44755 16.3856 8.99984 15.8333 8.99984V10.9998ZM4.16663 8.99984C3.61434 8.99984 3.16663 9.44755 3.16663 9.99984C3.16663 10.5521 3.61434 10.9998 4.16663 10.9998V8.99984ZM8.99996 4.1665V15.8332H11V4.1665H8.99996ZM15.8333 8.99984H4.16663V10.9998H15.8333V8.99984Z" fill="white"/>
</svg>
