<svg width="21" height="21" viewBox="0 0 21 21" fill="none" xmlns="http://www.w3.org/2000/svg">
<path d="M18.5549 9.14004C18.5829 9.09081 18.6026 9.03732 18.6133 8.98171L19.2383 5.64837C19.2781 5.42736 19.2284 5.19959 19.1003 5.01518C18.9721 4.83077 18.776 4.70482 18.5549 4.66504C18.3339 4.62526 18.1062 4.6749 17.9218 4.80305C17.7373 4.9312 17.6114 5.12736 17.5716 5.34837L17.2633 7.01504C16.5696 5.7483 15.533 4.70271 14.2723 3.99819C13.0115 3.29367 11.5778 2.95874 10.1354 3.03182C8.69303 3.10489 7.30046 3.58301 6.1174 4.41135C4.93433 5.23968 4.00868 6.38468 3.44661 7.71504C3.36416 7.91951 3.3661 8.14833 3.45201 8.35138C3.53791 8.55443 3.70078 8.71516 3.90494 8.79837C4.00666 8.84048 4.11571 8.86203 4.22579 8.86175C4.33588 8.86148 4.44482 8.8394 4.54632 8.79678C4.64783 8.75417 4.73988 8.69186 4.81717 8.61347C4.89446 8.53507 4.95544 8.44214 4.99661 8.34004C5.44539 7.23737 6.21724 6.29627 7.21076 5.64037C8.20427 4.98447 9.37296 4.64447 10.5633 4.66504C11.616 4.66013 12.6514 4.93345 13.5645 5.45734C14.4777 5.98123 15.2362 6.73708 15.7633 7.64837L14.3883 7.42337C14.2788 7.40586 14.167 7.41008 14.0592 7.43578C13.9514 7.46148 13.8497 7.50817 13.76 7.57317C13.6702 7.63817 13.5941 7.72021 13.5361 7.81462C13.478 7.90902 13.4391 8.01394 13.4216 8.12337C13.4041 8.23281 13.4083 8.34462 13.434 8.45242C13.4597 8.56023 13.5064 8.66192 13.5714 8.75168C13.6364 8.84144 13.7185 8.91752 13.8129 8.97558C13.9073 9.03364 14.0122 9.07253 14.1216 9.09004L17.6633 9.6817H17.7966C17.8933 9.68287 17.9894 9.66591 18.0799 9.6317C18.1105 9.62012 18.1387 9.60319 18.1633 9.5817C18.223 9.55949 18.2792 9.5286 18.3299 9.49004L18.3966 9.4067C18.4398 9.36624 18.4789 9.32158 18.5133 9.27337C18.5335 9.23118 18.5476 9.18627 18.5549 9.14004Z" fill="white"/>
<path d="M17.0716 12.2234C16.9694 12.1815 16.8598 12.1603 16.7494 12.1612C16.6389 12.162 16.5297 12.1848 16.4281 12.2282C16.3265 12.2717 16.2346 12.3349 16.1577 12.4141C16.0807 12.4934 16.0203 12.5872 15.9799 12.69C15.528 13.7811 14.7591 14.7115 13.7726 15.3607C12.7861 16.0099 11.6275 16.3482 10.4466 16.3317C9.39387 16.3366 8.35852 16.0633 7.44537 15.5394C6.53223 15.0155 5.77371 14.2597 5.24661 13.3484L6.62161 13.5734H6.75494C6.97596 13.5911 7.19494 13.5202 7.36372 13.3764C7.53251 13.2327 7.63726 13.0277 7.65494 12.8067C7.67262 12.5857 7.60178 12.3667 7.45801 12.1979C7.31423 12.0291 7.10929 11.9244 6.88828 11.9067L3.34661 11.3317C3.25571 11.3149 3.16251 11.3149 3.07161 11.3317H3.00494C2.91063 11.3568 2.82071 11.3961 2.73828 11.4484C2.68209 11.4918 2.63168 11.5422 2.58828 11.5984L2.51328 11.6817C2.48752 11.7319 2.46793 11.7851 2.45494 11.84C2.42574 11.8826 2.40586 11.9309 2.39661 11.9817L1.77161 15.315C1.74484 15.4258 1.74107 15.5409 1.76054 15.6531C1.78 15.7654 1.82227 15.8725 1.88475 15.9678C1.94723 16.063 2.02859 16.1445 2.1238 16.2071C2.219 16.2697 2.32603 16.3121 2.43828 16.3317H2.58828C2.7856 16.3349 2.97766 16.268 3.13027 16.1429C3.28287 16.0177 3.38611 15.8425 3.42161 15.6484L3.72994 13.9817C4.42287 15.2487 5.45886 16.2948 6.71912 17C7.97937 17.7052 9.41285 18.041 10.8552 17.9688C12.2975 17.8966 13.6903 17.4194 14.8738 16.5918C16.0573 15.7643 16.9837 14.6199 17.5466 13.29C17.623 13.0855 17.616 12.8591 17.5272 12.6596C17.4383 12.4601 17.2747 12.3035 17.0716 12.2234Z" fill="white"/>
</svg>
