<svg width="35" height="35" viewBox="0 0 35 35" fill="none" xmlns="http://www.w3.org/2000/svg">
<rect x="0.000976562" y="-0.00439453" width="34" height="34" rx="8" fill="#4A21EF"/>
<g clip-path="url(#clip0_1845_15135)">
<path d="M16.1873 6.84326C15.5389 6.84326 14.9172 7.10082 14.4587 7.55928L7.25728 14.7609C6.98452 15.0336 6.84814 15.3911 6.84814 15.7486C6.84815 16.1061 6.98453 16.4636 7.25729 16.7364L11.9766 21.4557V13.1008C11.9766 12.4773 12.4781 11.9718 13.1016 11.9718C15.7358 11.9718 22.1479 11.9718 23.0225 11.9718L28.151 6.84333L16.1873 6.84326Z" fill="white"/>
<path d="M11.9771 23.0176H21.8941C22.5175 23.0176 23.023 22.5122 23.023 21.8886V13.5337L27.7423 18.2531C28.0151 18.5258 28.1514 18.8833 28.1514 19.2408C28.1514 19.5983 28.0151 19.9558 27.7423 20.2286L20.5409 27.4301C20.0824 27.8886 19.4607 28.1462 18.8123 28.1462L6.84863 28.1461L11.9771 23.0176Z" fill="white"/>
</g>
<defs>
<clipPath id="clip0_1845_15135">
<rect width="21.303" height="21.303" fill="white" transform="translate(6.84814 6.84326)"/>
</clipPath>
</defs>
</svg>
