<svg width="24" height="24" viewBox="0 0 24 24" fill="none" xmlns="http://www.w3.org/2000/svg">
<g clip-path="url(#clip0_1_1985)">
<path d="M3.98093 11.6615C3.98093 11.6615 11.0574 8.80779 13.5116 7.80291C14.4524 7.401 17.6429 6.11476 17.6429 6.11476C17.6429 6.11476 19.1155 5.55207 18.9927 6.91864C18.9518 7.48138 18.6246 9.45085 18.2974 11.5811C17.8065 14.5957 17.2747 17.8916 17.2747 17.8916C17.2747 17.8916 17.1929 18.8161 16.4976 18.9768C15.8022 19.1376 14.6569 18.4142 14.4524 18.2533C14.2887 18.1328 11.3846 16.324 10.3211 15.4398C10.0347 15.1986 9.70751 14.7163 10.3619 14.1536C11.8345 12.8272 13.5934 11.1792 14.6569 10.1342C15.1477 9.65184 15.6386 8.52642 13.5934 9.89299C10.6892 11.8625 7.82592 13.7114 7.82592 13.7114C7.82592 13.7114 7.17144 14.1134 5.94433 13.7516C4.71716 13.3899 3.28552 12.9076 3.28552 12.9076C3.28552 12.9076 2.30388 12.3047 3.98093 11.6615Z" fill="white"/>
</g>
<defs>
<clipPath id="clip0_1_1985">
<rect width="24" height="24" rx="4" fill="white"/>
</clipPath>
</defs>
</svg>
