<svg width="24" height="24" viewBox="0 0 24 24" fill="none" xmlns="http://www.w3.org/2000/svg">
<path d="M22.5398 6.42C22.2868 5.46758 21.5416 4.71683 20.5947 4.462C18.8796 4 12 4 12 4C12 4 5.12042 4 3.40442 4.462C2.45842 4.71683 1.71317 5.46667 1.46017 6.42C1 8.147 1 11.7495 1 11.7495C1 11.7495 1 15.352 1.46017 17.079C1.71317 18.0314 2.45842 18.7822 3.40533 19.037C5.12042 19.499 12 19.499 12 19.499C12 19.499 18.8796 19.499 20.5956 19.037C21.5416 18.7822 22.2868 18.0323 22.5408 17.079C23 15.352 23 11.7495 23 11.7495C23 11.7495 23 8.147 22.5398 6.42ZM9.7505 15.0211V8.47792L15.4998 11.7495L9.7505 15.0211Z" fill="white"/>
</svg>
